<?xml version="1.0" encoding="UTF-8" standalone="no"?>
<svg
   xmlns:dc="http://purl.org/dc/elements/1.1/"
   xmlns:cc="http://creativecommons.org/ns#"
   xmlns:rdf="http://www.w3.org/1999/02/22-rdf-syntax-ns#"
   xmlns:svg="http://www.w3.org/2000/svg"
   xmlns="http://www.w3.org/2000/svg"
   viewBox="0 0 1000 666.66669"
   height="666.66669"
   width="1000"
   xml:space="preserve"
   id="svg2"
   version="1.1"><metadata
     id="metadata8"><rdf:RDF><cc:Work
         rdf:about=""><dc:format>image/svg+xml</dc:format><dc:type
           rdf:resource="http://purl.org/dc/dcmitype/StillImage" /></cc:Work></rdf:RDF></metadata><defs
     id="defs6"><clipPath
       id="clipPath398"
       clipPathUnits="userSpaceOnUse"><path
         id="path396"
         d="m 5545.41,3412.29 h 348.96 c 0,0 -77.25,-126.32 -204.59,-126.32 -127.32,0 -144.37,126.32 -144.37,126.32 z" /></clipPath><clipPath
       id="clipPath452"
       clipPathUnits="userSpaceOnUse"><path
         id="path450"
         d="m 5278.87,2347.03 h 345.35 v -114.34 h -394.61 c -15.39,0 -27.86,12.47 -27.86,27.85 v 9.37 c 0,42.6 34.54,77.12 77.12,77.12 z" /></clipPath><clipPath
       id="clipPath506"
       clipPathUnits="userSpaceOnUse"><path
         id="path504"
         d="m 5237.04,2513.69 h 293.6 v -97.21 h -335.49 c -13.07,0 -23.68,10.61 -23.68,23.68 v 7.96 c 0,36.21 29.36,65.57 65.57,65.57 z" /></clipPath><clipPath
       id="clipPath554"
       clipPathUnits="userSpaceOnUse"><path
         id="path552"
         d="m 5124.18,2658.03 h -255.31 v -84.52 h 291.73 c 11.37,0 20.59,9.22 20.59,20.59 v 6.92 c 0,31.49 -25.53,57.01 -57.01,57.01 z" /></clipPath><clipPath
       id="clipPath598"
       clipPathUnits="userSpaceOnUse"><path
         id="path596"
         d="m 5664,2311.57 c -115.1,-58 -187.15,-70.28 -187.15,-70.28 l -194.49,138.08 137.29,112.01 z" /></clipPath></defs><g
     transform="matrix(1.3333333,0,0,-1.3333333,0,666.66667)"
     id="g10"><g
       transform="scale(0.1)"
       id="g12"><path
         id="path14"
         style="fill:#ffffff;fill-opacity:1;fill-rule:nonzero;stroke:none"
         d="M 7500,0 H 0 V 5000 H 7500 V 0" /><path
         id="path16"
         style="fill:#f6f6f4;fill-opacity:1;fill-rule:nonzero;stroke:none"
         d="m 1964.02,3063.09 c -215.09,4 -459.97,41.64 -578.47,221.18 -108.94,165.05 -62.51,396.21 58.72,552.44 121.24,156.22 301.73,253.36 479.12,340.77 310.16,152.83 642.01,292.78 987.51,279.11 345.49,-13.68 705.87,-223.08 788.53,-558.83 52.57,-213.54 -20.22,-453.22 -182.66,-601.47 -202.3,-184.63 -418.5,-132.25 -659.82,-152.04 -300.76,-24.66 -587.41,-86.84 -892.93,-81.16" /><path
         id="path18"
         style="fill:#f6f6f4;fill-opacity:1;fill-rule:nonzero;stroke:none"
         d="m 1324.43,1586.62 c -216.31,14.55 -436.715,50.21 -539.168,210.21 -102.457,159.99 -106.422,349.72 -108.004,531.21 -2.422,277.82 -4.055,560.5 91.097,826.68 95.157,266.18 303.385,518.25 611.015,623.06 417.62,142.28 896.44,-13.63 1341.55,46.85 477.89,64.94 852.94,366.28 1283.32,551.75 339.98,146.5 728.41,221.83 1108.68,187.67 380.25,-34.16 750,-182.71 995.84,-427.74 497.77,-496.13 977.62,-2050.3 461.48,-2477.9 -227.27,-188.28 -671.06,-102.84 -1083.63,-102.84 0,0 -3127.17,-38.57 -4162.18,31.05" /><path
         id="path20"
         style="fill:none;stroke:#ffffff;stroke-width:100;stroke-linecap:butt;stroke-linejoin:miter;stroke-miterlimit:10;stroke-dasharray:none;stroke-opacity:1"
         d="M 3619.49,4337.21 V 1449.02" /><path
         id="path22"
         style="fill:none;stroke:#ffffff;stroke-width:100;stroke-linecap:butt;stroke-linejoin:miter;stroke-miterlimit:10;stroke-dasharray:none;stroke-opacity:1"
         d="M 3619.49,3738.85 H 4709.62" /><path
         id="path24"
         style="fill:none;stroke:#ffffff;stroke-width:100;stroke-linecap:butt;stroke-linejoin:miter;stroke-miterlimit:10;stroke-dasharray:none;stroke-opacity:1"
         d="M 3700.24,4285.52 H 4703" /><path
         id="path26"
         style="fill:none;stroke:#ffffff;stroke-width:100;stroke-linecap:butt;stroke-linejoin:miter;stroke-miterlimit:10;stroke-dasharray:none;stroke-opacity:1"
         d="M 3619.49,3077.62 H 4709.62" /><path
         id="path28"
         style="fill:#ffffff;fill-opacity:1;fill-rule:nonzero;stroke:none"
         d="m 3949.68,3412.45 c 0,-50.73 -41.12,-91.85 -91.84,-91.85 -50.72,0 -91.85,41.12 -91.85,91.85 0,50.72 41.13,91.84 91.85,91.84 50.72,0 91.84,-41.12 91.84,-91.84" /><path
         id="path30"
         style="fill:none;stroke:#ffffff;stroke-width:100;stroke-linecap:butt;stroke-linejoin:miter;stroke-miterlimit:10;stroke-dasharray:none;stroke-opacity:1"
         d="M 3619.49,2332.85 H 4709.62" /><path
         id="path32"
         style="fill:#ffffff;fill-opacity:1;fill-rule:nonzero;stroke:none"
         d="m 3949.68,2667.67 c 0,-50.72 -41.12,-91.84 -91.84,-91.84 -50.72,0 -91.85,41.12 -91.85,91.84 0,50.73 41.13,91.84 91.85,91.84 50.72,0 91.84,-41.11 91.84,-91.84" /><path
         id="path34"
         style="fill:none;stroke:#ffffff;stroke-width:100;stroke-linecap:butt;stroke-linejoin:miter;stroke-miterlimit:10;stroke-dasharray:none;stroke-opacity:1"
         d="M 3619.49,1588.07 H 4709.62" /><path
         id="path36"
         style="fill:#ffffff;fill-opacity:1;fill-rule:nonzero;stroke:none"
         d="m 3949.68,1922.9 c 0,-50.74 -41.12,-91.85 -91.84,-91.85 -50.72,0 -91.85,41.11 -91.85,91.85 0,50.72 41.13,91.83 91.85,91.83 50.72,0 91.84,-41.11 91.84,-91.83" /><path
         id="path38"
         style="fill:#ffffff;fill-opacity:1;fill-rule:nonzero;stroke:none"
         d="m 3949.68,4002.94 c 0,-50.73 -41.12,-91.85 -91.84,-91.85 -50.72,0 -91.85,41.12 -91.85,91.85 0,50.72 41.13,91.84 91.85,91.84 50.72,0 91.84,-41.12 91.84,-91.84" /><path
         id="path40"
         style="fill:none;stroke:#ffffff;stroke-width:100;stroke-linecap:butt;stroke-linejoin:miter;stroke-miterlimit:10;stroke-dasharray:none;stroke-opacity:1"
         d="M 4697.73,4603.34 V 1449.02" /><path
         id="path42"
         style="fill:none;stroke:#ffffff;stroke-width:100;stroke-linecap:butt;stroke-linejoin:miter;stroke-miterlimit:10;stroke-dasharray:none;stroke-opacity:1"
         d="M 5054.51,4649.59 V 1449.02" /><path
         id="path44"
         style="fill:none;stroke:#ffffff;stroke-width:100;stroke-linecap:butt;stroke-linejoin:miter;stroke-miterlimit:10;stroke-dasharray:none;stroke-opacity:1"
         d="M 5054.51,3738.85 H 6144.64" /><path
         id="path46"
         style="fill:none;stroke:#ffffff;stroke-width:100;stroke-linecap:butt;stroke-linejoin:miter;stroke-miterlimit:10;stroke-dasharray:none;stroke-opacity:1"
         d="M 5062.59,4285.52 H 6225.38" /><path
         id="path48"
         style="fill:none;stroke:#ffffff;stroke-width:100;stroke-linecap:butt;stroke-linejoin:miter;stroke-miterlimit:10;stroke-dasharray:none;stroke-opacity:1"
         d="M 5054.51,3077.62 H 6144.64" /><path
         id="path50"
         style="fill:#ffffff;fill-opacity:1;fill-rule:nonzero;stroke:none"
         d="m 5384.7,3412.45 c 0,-50.73 -41.12,-91.85 -91.84,-91.85 -50.72,0 -91.85,41.12 -91.85,91.85 0,50.72 41.13,91.84 91.85,91.84 50.72,0 91.84,-41.12 91.84,-91.84" /><path
         id="path52"
         style="fill:none;stroke:#ffffff;stroke-width:100;stroke-linecap:butt;stroke-linejoin:miter;stroke-miterlimit:10;stroke-dasharray:none;stroke-opacity:1"
         d="M 5054.51,2332.85 H 6144.64" /><path
         id="path54"
         style="fill:#ffffff;fill-opacity:1;fill-rule:nonzero;stroke:none"
         d="m 5384.7,2667.67 c 0,-50.72 -41.12,-91.84 -91.84,-91.84 -50.72,0 -91.85,41.12 -91.85,91.84 0,50.73 41.13,91.84 91.85,91.84 50.72,0 91.84,-41.11 91.84,-91.84" /><path
         id="path56"
         style="fill:none;stroke:#ffffff;stroke-width:100;stroke-linecap:butt;stroke-linejoin:miter;stroke-miterlimit:10;stroke-dasharray:none;stroke-opacity:1"
         d="M 5054.51,1588.07 H 6144.64" /><path
         id="path58"
         style="fill:#ffffff;fill-opacity:1;fill-rule:nonzero;stroke:none"
         d="m 5384.7,1922.9 c 0,-50.74 -41.12,-91.85 -91.84,-91.85 -50.72,0 -91.85,41.11 -91.85,91.85 0,50.72 41.13,91.83 91.85,91.83 50.72,0 91.84,-41.11 91.84,-91.83" /><path
         id="path60"
         style="fill:#ffffff;fill-opacity:1;fill-rule:nonzero;stroke:none"
         d="m 5384.7,4002.94 c 0,-50.73 -41.12,-91.85 -91.84,-91.85 -50.72,0 -91.85,41.12 -91.85,91.85 0,50.72 41.13,91.84 91.85,91.84 50.72,0 91.84,-41.12 91.84,-91.84" /><path
         id="path62"
         style="fill:none;stroke:#ffffff;stroke-width:100;stroke-linecap:butt;stroke-linejoin:miter;stroke-miterlimit:10;stroke-dasharray:none;stroke-opacity:1"
         d="M 6132.74,4603.34 V 1449.02" /><path
         id="path64"
         style="fill:#ebebe8;fill-opacity:1;fill-rule:nonzero;stroke:none"
         d="m 1946.58,3635.54 h 153.7 v 649.98 h -153.7 v -649.98" /><path
         id="path66"
         style="fill:#ebebe8;fill-opacity:1;fill-rule:nonzero;stroke:none"
         d="m 2140.16,3635.54 h 324.61 v 559.91 h -324.61 v -559.91" /><path
         id="path68"
         style="fill:#ebebe8;fill-opacity:1;fill-rule:nonzero;stroke:none"
         d="m 2500.18,3635.54 h 162.31 v 492.5 h -162.31 v -492.5" /><path
         id="path70"
         style="fill:#ebebe8;fill-opacity:1;fill-rule:nonzero;stroke:none"
         d="m 2698.86,3635.54 h 162.31 v 605.91 h -162.31 v -605.91" /><path
         id="path72"
         style="fill:#ebebe8;fill-opacity:1;fill-rule:nonzero;stroke:none"
         d="m 3025.99,3635.54 h 162.31 v 605.91 h -162.31 v -605.91" /><path
         id="path74"
         style="fill:#ebebe8;fill-opacity:1;fill-rule:nonzero;stroke:none"
         d="m 2899.86,3635.54 h 81.16 V 4167 h -81.16 v -531.46" /><path
         id="path76"
         style="fill:#ffffff;fill-opacity:1;fill-rule:nonzero;stroke:none"
         d="M 3287.61,3669.21 H 1810.34 v -67.34 h 1477.27 v 67.34" /><path
         id="path78"
         style="fill:#ebebe8;fill-opacity:1;fill-rule:nonzero;stroke:none"
         d="m 1946.58,2949.94 h 153.7 v 649.99 h -153.7 v -649.99" /><path
         id="path80"
         style="fill:#ebebe8;fill-opacity:1;fill-rule:nonzero;stroke:none"
         d="m 2140.16,2949.94 h 324.61 v 559.91 h -324.61 v -559.91" /><path
         id="path82"
         style="fill:#ebebe8;fill-opacity:1;fill-rule:nonzero;stroke:none"
         d="m 2500.18,2949.94 h 162.31 v 492.51 h -162.31 v -492.51" /><path
         id="path84"
         style="fill:#ebebe8;fill-opacity:1;fill-rule:nonzero;stroke:none"
         d="m 2698.86,2949.94 h 162.31 v 605.92 h -162.31 v -605.92" /><path
         id="path86"
         style="fill:#ebebe8;fill-opacity:1;fill-rule:nonzero;stroke:none"
         d="m 3025.99,2949.94 h 162.31 v 605.92 h -162.31 v -605.92" /><path
         id="path88"
         style="fill:#ebebe8;fill-opacity:1;fill-rule:nonzero;stroke:none"
         d="m 2899.86,2949.94 h 81.16 v 531.47 h -81.16 v -531.47" /><path
         id="path90"
         style="fill:#ffffff;fill-opacity:1;fill-rule:nonzero;stroke:none"
         d="M 3287.61,2983.62 H 1810.34 v -67.34 h 1477.27 v 67.34" /><path
         id="path92"
         style="fill:#ebebe8;fill-opacity:1;fill-rule:nonzero;stroke:none"
         d="m 1946.58,2264.35 h 153.7 v 649.99 h -153.7 v -649.99" /><path
         id="path94"
         style="fill:#ebebe8;fill-opacity:1;fill-rule:nonzero;stroke:none"
         d="m 2140.16,2264.35 h 324.61 v 559.91 h -324.61 v -559.91" /><path
         id="path96"
         style="fill:#ebebe8;fill-opacity:1;fill-rule:nonzero;stroke:none"
         d="m 2500.18,2264.35 h 162.31 v 492.51 h -162.31 v -492.51" /><path
         id="path98"
         style="fill:#ebebe8;fill-opacity:1;fill-rule:nonzero;stroke:none"
         d="m 2698.86,2264.35 h 162.31 v 605.92 h -162.31 v -605.92" /><path
         id="path100"
         style="fill:#ebebe8;fill-opacity:1;fill-rule:nonzero;stroke:none"
         d="m 3025.99,2264.35 h 162.31 v 605.92 h -162.31 v -605.92" /><path
         id="path102"
         style="fill:#ebebe8;fill-opacity:1;fill-rule:nonzero;stroke:none"
         d="m 2899.86,2264.35 h 81.16 v 531.47 h -81.16 v -531.47" /><path
         id="path104"
         style="fill:#ffffff;fill-opacity:1;fill-rule:nonzero;stroke:none"
         d="M 3287.61,2298.02 H 1810.34 v -67.34 h 1477.27 v 67.34" /><path
         id="path106"
         style="fill:#ebebe8;fill-opacity:1;fill-rule:nonzero;stroke:none"
         d="m 1946.58,1578.76 h 153.7 v 649.99 h -153.7 v -649.99" /><path
         id="path108"
         style="fill:#ebebe8;fill-opacity:1;fill-rule:nonzero;stroke:none"
         d="m 2140.16,1578.76 h 324.61 v 559.91 h -324.61 v -559.91" /><path
         id="path110"
         style="fill:#ebebe8;fill-opacity:1;fill-rule:nonzero;stroke:none"
         d="m 2500.18,1578.76 h 162.31 v 492.51 h -162.31 v -492.51" /><path
         id="path112"
         style="fill:#ebebe8;fill-opacity:1;fill-rule:nonzero;stroke:none"
         d="m 2698.86,1578.76 h 162.31 v 605.91 h -162.31 v -605.91" /><path
         id="path114"
         style="fill:#ebebe8;fill-opacity:1;fill-rule:nonzero;stroke:none"
         d="m 3025.99,1578.76 h 162.31 v 605.91 h -162.31 v -605.91" /><path
         id="path116"
         style="fill:#ebebe8;fill-opacity:1;fill-rule:nonzero;stroke:none"
         d="m 2899.86,1578.76 h 81.16 v 531.46 h -81.16 v -531.46" /><path
         id="path118"
         style="fill:#ffffff;fill-opacity:1;fill-rule:nonzero;stroke:none"
         d="M 3287.61,1612.43 H 1810.34 v -67.34 h 1477.27 v 67.34" /><path
         id="path120"
         style="fill:#ffffff;fill-opacity:1;fill-rule:nonzero;stroke:none"
         d="m 3212.68,4413.98 h 91.6 V 1399.99 h -91.6 v 3013.99" /><path
         id="path122"
         style="fill:#ffffff;fill-opacity:1;fill-rule:nonzero;stroke:none"
         d="m 1801.48,4413.98 h 91.6 V 1399.99 h -91.6 v 3013.99" /><path
         id="path124"
         style="fill:#faeeea;fill-opacity:1;fill-rule:nonzero;stroke:none"
         d="m 6175.9,585.25 c -661.9,-301 -996.2,128 -1701.9,-9 C 3768.3,439.352 2659.5,219.551 1997.8,452.652 c -180.3,63.496 -211.7,158.2 -231.2,244.899 -11.6,52.398 -18.9,101.801 -52,139.699 -15.2,17.5 -35.8,32.5 -64.9,44.199 -52.7,21.403 -133.1,31.903 -258.8,26.5 -108,-4.597 -224.4,12.5 -335.2,49.903 -210.497,70.998 -400.399,215.398 -472.001,424.698 -51.199,149.8 17.5,111.9 162.5,111 253.5,-1.4 507.101,-3.6 760.701,-5.5 1047.2,-7.6 2094.5,-15.1 3141.8,-22.8 584.2,-4.2 1559.4,-12.7 2143.6,-12.7 238.7,0 256.9,-470.101 -616.4,-867.3" /><path
         id="path126"
         style="fill:#f7e2dc;fill-opacity:1;fill-rule:nonzero;stroke:none"
         d="m 6499.37,766.211 c 0,-53.32 -673.39,-96.551 -1504.05,-96.551 -830.67,0 -1504.05,43.231 -1504.05,96.551 0,53.309 673.38,96.527 1504.05,96.527 830.66,0 1504.05,-43.218 1504.05,-96.527" /><path
         id="path128"
         style="fill:#f7e2dc;fill-opacity:1;fill-rule:nonzero;stroke:none"
         d="m 2839.7,790.051 c 0,-51.199 -463.1,-92.602 -1034.4,-92.602 -13,0 -25.9,0 -38.7,0.102 -11.6,52.398 -18.9,101.801 -52,139.699 -15.2,17.5 -35.8,32.5 -64.9,44.199 50.8,0.699 102.7,1.102 155.6,1.102 571.3,0 1034.4,-41.403 1034.4,-92.5" /><path
         id="path130"
         style="fill:#d97f6a;fill-opacity:1;fill-rule:nonzero;stroke:none"
         d="m 4379.07,3583.13 -401.9,429.67 -157.48,-80.98 c 0,0 86.03,-205.73 338.82,-515.58 l 220.56,166.89" /><path
         id="path132"
         style="fill:#90bdcb;fill-opacity:1;fill-rule:nonzero;stroke:none"
         d="m 3882.01,4114.43 c 150.57,59.29 213.41,-65.84 120.94,-171.64 l -120.94,171.64" /><path
         id="path134"
         style="fill:#90bdcb;fill-opacity:1;fill-rule:nonzero;stroke:none"
         d="m 3877.51,3865.03 c -142.92,-52.51 -199.33,66.54 -110.04,164.06 l 110.04,-164.06" /><path
         id="path136"
         style="fill:#bc6246;fill-opacity:1;fill-rule:nonzero;stroke:none"
         d="m 3977.17,4012.8 c 0,0 -79.51,110.29 -106.46,226.34 l -233.23,-86.29 182.21,-221.03 157.48,80.98" /><path
         id="path138"
         style="fill:#bc6246;fill-opacity:1;fill-rule:nonzero;stroke:none"
         d="m 3949.17,4056.2 c -36.04,110.85 -12.76,197.58 -12.76,197.58 l -29.56,108.17 c -3.96,14.51 -18.53,23.43 -33.25,20.37 v 0 c -13.79,-2.87 -23.41,-15.37 -22.64,-29.43 l 3.05,-55.43 -39.16,-134.43 134.32,-106.83" /><path
         id="path140"
         style="fill:#bc6246;fill-opacity:1;fill-rule:nonzero;stroke:none"
         d="m 3888.64,4180.34 -122.62,213.34 -98.14,49.61 c -15.02,7.59 -33.29,0.29 -38.95,-15.56 v 0 c -4.3,-12.05 0.13,-25.49 10.77,-32.62 l 65.57,-43.96 80.92,-206.24 102.45,35.43" /><path
         id="path142"
         style="fill:#bc6246;fill-opacity:1;fill-rule:nonzero;stroke:none"
         d="m 3826.55,4123.43 -122.62,213.36 -98.15,49.6 c -15.02,7.59 -33.29,0.29 -38.95,-15.55 v 0 c -4.29,-12.06 0.14,-25.5 10.77,-32.63 l 65.58,-43.96 80.92,-206.25 102.45,35.43" /><path
         id="path144"
         style="fill:#bc6246;fill-opacity:1;fill-rule:nonzero;stroke:none"
         d="m 3835.08,4077.7 -150.24,194.89 -103.93,35.94 c -15.9,5.49 -33.02,-4.2 -36.49,-20.66 v 0 c -2.64,-12.53 3.56,-25.24 15.06,-30.87 l 70.9,-34.73 55.13,-98.81 c 29.52,-52.9 95.51,-73.08 149.57,-45.76 v 0" /><path
         id="path146"
         style="fill:#bc6246;fill-opacity:1;fill-rule:nonzero;stroke:none"
         d="m 3888.22,4064.91 -196.05,148.73 -109.71,7.46 c -16.79,1.14 -30.77,-12.7 -29.81,-29.5 v 0 c 0.74,-12.78 10.05,-23.43 22.62,-25.85 l 77.52,-14.95 154.87,-158.43 80.56,72.54" /><path
         id="path148"
         style="fill:#97442e;fill-opacity:1;fill-rule:nonzero;stroke:none"
         d="m 3799.82,4036.25 c -0.79,1.28 -78.28,128.68 37.36,230.12 l 11.66,-13.3 c -104.2,-91.39 -36.92,-202.77 -34.01,-207.46 l -15.01,-9.36" /><path
         id="path150"
         style="fill:#90bdcb;fill-opacity:1;fill-rule:nonzero;stroke:none"
         d="m 4736.63,3251.74 -128.69,-80 -16.73,-10.42 -254.66,-158.28 c 0,0 -456,409.24 -553,972.62 l 158.01,104.88 321.17,-349.88 367.82,-371.69 106.08,-107.23" /><path
         id="path152"
         style="fill:none;stroke:#67a0ba;stroke-width:20;stroke-linecap:butt;stroke-linejoin:miter;stroke-miterlimit:10;stroke-dasharray:none;stroke-opacity:1"
         d="m 3939.82,3920.04 -128.56,-69.01 c 0,0 67.54,-311.96 296.41,-579.97" /><path
         id="path154"
         style="fill:#1f1215;fill-opacity:1;fill-rule:nonzero;stroke:none"
         d="m 4655.32,4011.28 c -13.74,-85.45 -94.16,-143.58 -179.61,-129.83 -85.45,13.74 -143.57,94.16 -129.83,179.6 13.75,85.46 94.16,143.59 179.6,129.84 85.45,-13.75 143.59,-94.16 129.84,-179.61" /><path
         id="path156"
         style="fill:#1f1215;fill-opacity:1;fill-rule:nonzero;stroke:none"
         d="m 4623.62,3843.2 c -13.75,-85.45 -94.16,-143.58 -179.61,-129.83 -85.46,13.74 -143.58,94.16 -129.83,179.61 13.74,85.44 94.16,143.57 179.61,129.83 85.44,-13.75 143.57,-94.16 129.83,-179.61" /><path
         id="path158"
         style="fill:#1f1215;fill-opacity:1;fill-rule:nonzero;stroke:none"
         d="m 5075.87,4009.25 c 0,-104.92 -85.06,-189.97 -189.98,-189.97 -104.93,0 -189.99,85.05 -189.99,189.97 0,104.93 85.06,189.98 189.99,189.98 104.92,0 189.98,-85.05 189.98,-189.98" /><path
         id="path160"
         style="fill:#1f1215;fill-opacity:1;fill-rule:nonzero;stroke:none"
         d="m 5075.87,3762.65 c 0,-99.36 -80.55,-179.91 -179.92,-179.91 -99.35,0 -179.9,80.55 -179.9,179.91 0,99.36 80.55,179.91 179.9,179.91 99.37,0 179.92,-80.55 179.92,-179.91" /><path
         id="path162"
         style="fill:#1f1215;fill-opacity:1;fill-rule:nonzero;stroke:none"
         d="m 4885.89,4134.74 c 0,-104.92 -85.06,-189.98 -189.99,-189.98 -104.92,0 -189.98,85.06 -189.98,189.98 0,104.92 85.06,189.98 189.98,189.98 104.93,0 189.99,-85.06 189.99,-189.98" /><path
         id="path164"
         style="fill:#1f1215;fill-opacity:1;fill-rule:nonzero;stroke:none"
         d="m 4921.37,3696 c 0,-86.76 -70.33,-157.1 -157.1,-157.1 -86.75,0 -157.1,70.34 -157.1,157.1 0,86.77 70.35,157.11 157.1,157.11 86.77,0 157.1,-70.34 157.1,-157.11" /><path
         id="path166"
         style="fill:#97442e;fill-opacity:1;fill-rule:nonzero;stroke:none"
         d="m 4231.7,1893.07 158.97,776.68 h 270.87 L 4488.87,1826.22 4378.54,988.332 h -270.87 l 101.43,770.218 c 5.94,45.1 13.47,89.96 22.6,134.52" /><path
         id="path168"
         style="fill:#ffffff;fill-opacity:1;fill-rule:nonzero;stroke:none"
         d="M 4404.33,989.59 H 4099.3 l 48.83,398.68 302.2,-23.12 -46,-375.56" /><path
         id="path170"
         style="fill:#1f2023;fill-opacity:1;fill-rule:nonzero;stroke:none"
         d="m 4428.15,740.781 h -692.04 l 18.1,61.77 c 5.96,20.148 14.85,38.859 26.19,55.781 24.06,35.969 59.29,63.688 101.17,78.438 l 18.75,6.601 c 18.38,6.469 35.62,14.988 51.62,25.309 13.75,8.879 26.51,18.941 38.03,30.34 25.14,24.47 44.95,54.46 57.68,88.28 h 388.84 l -6.45,-228.968 -1.89,-117.551" /><path
         id="path172"
         style="fill:none;stroke:#ffffff;stroke-width:10;stroke-linecap:butt;stroke-linejoin:miter;stroke-miterlimit:10;stroke-dasharray:none;stroke-opacity:1"
         d="m 4162.34,1048.25 h -136.7" /><path
         id="path174"
         style="fill:none;stroke:#ffffff;stroke-width:10;stroke-linecap:butt;stroke-linejoin:miter;stroke-miterlimit:10;stroke-dasharray:none;stroke-opacity:1"
         d="m 3990.37,1000.64 h 136.71" /><path
         id="path176"
         style="fill:none;stroke:#ffffff;stroke-width:10;stroke-linecap:butt;stroke-linejoin:miter;stroke-miterlimit:10;stroke-dasharray:none;stroke-opacity:1"
         d="m 4298.27,907.262 c 0.29,-9.321 -7.02,-16.871 -16.35,-16.871 -9.31,0 -17.11,7.55 -17.4,16.871 -0.29,9.316 7.03,16.867 16.35,16.867 9.31,0 17.1,-7.551 17.4,-16.867 z" /><path
         id="path178"
         style="fill:none;stroke:#ffffff;stroke-width:10;stroke-linecap:butt;stroke-linejoin:miter;stroke-miterlimit:10;stroke-dasharray:none;stroke-opacity:1"
         d="m 4215.71,907.262 c 0.29,-9.321 -7.02,-16.871 -16.35,-16.871 -9.31,0 -17.1,7.55 -17.4,16.871 -0.29,9.316 7.03,16.867 16.35,16.867 9.31,0 17.11,-7.551 17.4,-16.867 z" /><path
         id="path180"
         style="fill:#ffffff;fill-opacity:1;fill-rule:nonzero;stroke:none"
         d="m 4428.15,740.781 h -692.04 l 18.1,61.77 c 5.96,20.148 14.85,38.859 26.19,55.781 h 649.64 l -1.89,-117.551" /><path
         id="path182"
         style="fill:none;stroke:#76abc0;stroke-width:20;stroke-linecap:butt;stroke-linejoin:miter;stroke-miterlimit:10;stroke-dasharray:none;stroke-opacity:1"
         d="M 4431.88,799.551 H 3996.69" /><path
         id="path184"
         style="fill:#ffffff;fill-opacity:1;fill-rule:nonzero;stroke:none"
         d="m 4124.5,740.781 h -388.39 l 18.1,61.77 c 5.96,20.148 14.85,38.859 26.19,55.781 24.06,35.969 59.29,63.688 101.17,78.438 l 18.75,6.601 c 18.38,6.469 35.62,14.988 51.62,25.309 90.07,-41.621 157.15,-126.668 172.56,-227.899" /><path
         id="path186"
         style="fill:#1f2023;fill-opacity:1;fill-rule:nonzero;stroke:none"
         d="m 4047.65,1087.3 -8.87,34.44 c -6.25,24.23 11.45,47.31 36.3,47.31 h 34.67 c 27.37,0 53.31,-13.91 68.85,-36.92 l 30.28,-44.83 h -161.23" /><path
         id="path188"
         style="fill:none;stroke:#181817;stroke-width:40;stroke-linecap:butt;stroke-linejoin:miter;stroke-miterlimit:10;stroke-dasharray:none;stroke-opacity:1"
         d="m 4169.57,3227.59 c 0,0 -26.43,-320.91 213.8,-404.32" /><path
         id="path190"
         style="fill:#4f6783;fill-opacity:1;fill-rule:nonzero;stroke:none"
         d="m 4621.92,3554.95 223.82,-47.63 c 136.86,-29.13 251.76,-121.62 309.19,-249.22 73.22,-162.72 140.63,-400.05 67.07,-636.06 -102.47,-328.74 -841.24,-82.08 -841.24,-82.08 l -15.41,873.61 256.57,141.38" /><path
         id="path192"
         style="fill:#323335;fill-opacity:1;fill-rule:nonzero;stroke:none"
         d="m 4621.92,3554.95 127.66,-42.55 c 158.99,-52.99 273.88,-191.74 296.54,-357.79 20.89,-153.07 34.63,-345.6 8.25,-512.22 -53.84,-340.11 -673.61,-102.43 -673.61,-102.43 l -15.41,873.61 256.57,141.38" /><path
         id="path194"
         style="fill:#4f6783;fill-opacity:1;fill-rule:nonzero;stroke:none"
         d="m 5079.06,2544.66 -173.03,109.69 194.19,204.78 z" /><path
         id="path196"
         style="fill:#ffffff;fill-opacity:1;fill-rule:nonzero;stroke:none"
         d="m 4873.54,979.02 -304.52,-13.29 0.73,411.76 299.91,-18.52 3.88,-379.95" /><path
         id="path198"
         style="fill:none;stroke:#76abc0;stroke-width:20;stroke-linecap:butt;stroke-linejoin:miter;stroke-miterlimit:10;stroke-dasharray:none;stroke-opacity:1"
         d="m 4873.58,1316.29 -307.75,18.39" /><path
         id="path200"
         style="fill:none;stroke:#76abc0;stroke-width:20;stroke-linecap:butt;stroke-linejoin:miter;stroke-miterlimit:10;stroke-dasharray:none;stroke-opacity:1"
         d="m 4434.89,1294.08 -291.55,17.43" /><path
         id="path202"
         style="fill:#323335;fill-opacity:1;fill-rule:nonzero;stroke:none"
         d="m 4900.72,731.699 -687.64,0.75 13.95,61.383 c 4.61,20.02 12.22,38.617 22.39,55.41 21.55,35.746 54.76,63.246 95.41,77.867 l 18.19,6.532 c 17.85,6.429 34.43,14.871 49.64,25.109 13.09,8.809 25.11,18.809 35.81,30.109 23.38,24.301 41.11,54.091 51.56,87.701 l 386.36,-0.43 8.53,-227.599 5.8,-116.832" /><path
         id="path204"
         style="fill:none;stroke:#ffffff;stroke-width:10;stroke-linecap:butt;stroke-linejoin:miter;stroke-miterlimit:10;stroke-dasharray:none;stroke-opacity:1"
         d="m 4616.54,1037.61 -135.84,0.15" /><path
         id="path206"
         style="fill:none;stroke:#ffffff;stroke-width:10;stroke-linecap:butt;stroke-linejoin:miter;stroke-miterlimit:10;stroke-dasharray:none;stroke-opacity:1"
         d="m 4584.6,990.328 -135.83,0.164" /><path
         id="path208"
         style="fill:none;stroke:#ffffff;stroke-width:10;stroke-linecap:butt;stroke-linejoin:miter;stroke-miterlimit:10;stroke-dasharray:none;stroke-opacity:1"
         d="m 4760.8,897.32 c 0.9,-9.269 -5.88,-16.769 -15.14,-16.761 -9.26,0.011 -17.49,7.531 -18.4,16.8 -0.9,9.262 5.89,16.762 15.14,16.75 9.26,-0.007 17.5,-7.531 18.4,-16.789 z" /><path
         id="path210"
         style="fill:none;stroke:#ffffff;stroke-width:10;stroke-linecap:butt;stroke-linejoin:miter;stroke-miterlimit:10;stroke-dasharray:none;stroke-opacity:1"
         d="m 4678.76,897.41 c 0.9,-9.262 -5.87,-16.762 -15.14,-16.75 -9.26,0.012 -17.49,7.52 -18.39,16.789 -0.9,9.262 5.88,16.762 15.14,16.75 9.26,-0.008 17.49,-7.527 18.39,-16.789 z" /><path
         id="path212"
         style="fill:#ffffff;fill-opacity:1;fill-rule:nonzero;stroke:none"
         d="m 4900.72,731.699 -687.64,0.75 13.95,61.383 c 4.61,20.02 12.22,38.617 22.39,55.41 l 645.5,-0.711 5.8,-116.832" /><path
         id="path214"
         style="fill:none;stroke:#76abc0;stroke-width:20;stroke-linecap:butt;stroke-linejoin:miter;stroke-miterlimit:10;stroke-dasharray:none;stroke-opacity:1"
         d="m 4463.13,790.59 432.42,-0.481" /><path
         id="path216"
         style="fill:#ffffff;fill-opacity:1;fill-rule:nonzero;stroke:none"
         d="m 4599,732.031 -385.92,0.418 13.95,61.383 c 4.61,20.02 12.22,38.617 22.39,55.41 21.55,35.746 54.76,63.246 95.41,77.867 l 18.19,6.532 c 17.85,6.429 34.43,14.871 49.64,25.109 92.21,-41.48 164.42,-126.078 186.34,-226.719" /><path
         id="path218"
         style="fill:#323335;fill-opacity:1;fill-rule:nonzero;stroke:none"
         d="m 4500.03,1076.56 -11.08,34.23 c -7.79,24.1 8.3,47.01 33,46.98 l 34.44,-0.04 c 27.2,-0.03 53.88,-13.88 70.82,-36.77 l 33.01,-44.58 -160.19,0.18" /><path
         id="path220"
         style="fill:#bc6246;fill-opacity:1;fill-rule:nonzero;stroke:none"
         d="m 4529.41,2620.25 57.56,-1242.76 256.54,-18.52 36.37,1236.06 -350.47,25.22" /><path
         id="path222"
         style="fill:#90bdcb;fill-opacity:1;fill-rule:nonzero;stroke:none"
         d="m 4205.52,2370.06 -220.95,141.89 397.26,521.78 162.64,-186.89 -338.95,-476.78" /><path
         id="path224"
         style="fill:#323335;fill-opacity:1;fill-rule:nonzero;stroke:none"
         d="m 4956.12,3335.32 -23.6,-1465.73 c 0,0 -664.8,-122.09 -992.69,288.45 l 307.12,515.31 58.43,98.13 -1.86,81.77 -15.99,715.72 316.48,11.32 208.19,-61.62 c 114.49,-38.28 139.86,-97.77 143.92,-183.35" /><path
         id="path226"
         style="fill:none;stroke:#1f2023;stroke-width:20;stroke-linecap:butt;stroke-linejoin:miter;stroke-miterlimit:10;stroke-dasharray:none;stroke-opacity:1"
         d="M 4246.95,2376.57 4556.9,2114.65" /><path
         id="path228"
         style="fill:#1f2023;fill-opacity:1;fill-rule:nonzero;stroke:none"
         d="m 4970.74,2859.13 -32.94,-661.62 -363.22,47.39 51.09,372.31 -378.72,56.14 58.43,98.13 -1.86,81.77 667.22,5.88" /><path
         id="path230"
         style="fill:#90bdcb;fill-opacity:1;fill-rule:nonzero;stroke:none"
         d="m 4804.42,3380.74 -110.29,-1103.97 331.4,-37.98 -22.76,1000.67 -198.35,141.28" /><path
         id="path232"
         style="fill:#4f6783;fill-opacity:1;fill-rule:nonzero;stroke:none"
         d="m 4114.07,3139.08 c -22.95,86.12 -52.84,315.79 210.87,485.84 14.44,9.32 32.3,11.87 48.7,6.72 l 83.8,-26.35 c 6.73,-2.11 8.81,-10.67 3.75,-15.58 -49.14,-47.66 -188.46,-202.69 -246.27,-448.37 -6.02,-25.52 -29.81,-42.81 -55.9,-40.18 v 0.01 c -21.38,2.16 -39.42,17.15 -44.95,37.91" /><path
         id="path234"
         style="fill:#bc6246;fill-opacity:1;fill-rule:nonzero;stroke:none"
         d="m 4562.02,3372.9 v 0 c -53.14,18.17 -87.05,70.21 -82.23,126.15 l 12.56,145.57 235.04,-84.98 -3.73,-77 c -3.94,-81.26 -84.67,-136.07 -161.64,-109.74" /><path
         id="path236"
         style="fill:#97442e;fill-opacity:1;fill-rule:nonzero;stroke:none"
         d="m 4482.33,3517.83 c 98.84,-112.62 241.33,-35.19 241.33,-35.19 l 10,143.61 -253.47,98.42 2.14,-206.84" /><path
         id="path238"
         style="fill:#bc6246;fill-opacity:1;fill-rule:nonzero;stroke:none"
         d="m 4853.47,3923.52 -36.6,-102.69 -16.74,-46.8 -44.86,-125.64 c -24.21,-67.84 -81.83,-118.29 -152.26,-133.34 l -22.54,-4.82 c -149.58,-31.98 -285.58,96.14 -260.93,247.1 6.45,39.58 17.18,80.81 34.52,122.66 40.97,98.71 130.07,170.39 230.11,192.87 l 0.41,0.08 17.52,3.46 1.87,0.3 c 8.71,1.4 17.65,2.39 26.52,3 21.11,1.7 42.74,1.23 64.34,-1.45 l 68.59,-8.57 c 69.86,-8.71 113.69,-79.85 90.05,-146.16" /><path
         id="path240"
         style="fill:#040606;fill-opacity:1;fill-rule:nonzero;stroke:none"
         d="m 4372.24,3815.37 c -5.04,-26.07 4.58,-49.86 21.49,-53.13 16.91,-3.26 34.7,15.22 39.74,41.29 5.04,26.07 -4.58,49.85 -21.48,53.12 -16.92,3.27 -34.71,-15.21 -39.75,-41.28" /><path
         id="path242"
         style="fill:#bc6246;fill-opacity:1;fill-rule:nonzero;stroke:none"
         d="m 4467.21,3817.32 c -23.16,-43.54 -55.18,-49.92 -76.83,-48.17 -13.91,1.12 -26.34,-8.53 -28.77,-22.27 v 0 c -3.22,-18.12 4.56,-36.43 19.81,-46.71 l 53.99,-36.39 c 30.91,-13.72 66.91,2.14 77.64,34.21 l 36.37,108.72 -82.21,10.61" /><path
         id="path244"
         style="fill:#97442e;fill-opacity:1;fill-rule:nonzero;stroke:none"
         d="m 4415.07,3673.08 4.09,6.06 -35.7,24.06 c -14.04,9.46 -21.22,26.36 -18.26,43.05 2.12,11.95 12.81,20.23 24.88,19.26 23.49,-1.89 56.51,5.26 80.36,50.09 l -6.45,3.43 c -21.99,-41.33 -52.01,-47.96 -73.32,-46.24 -15.84,1.27 -29.87,-9.59 -32.66,-25.27 -3.45,-19.53 4.95,-39.31 21.38,-50.38 l 35.68,-24.06" /><path
         id="path246"
         style="fill:#040606;fill-opacity:1;fill-rule:nonzero;stroke:none"
         d="m 4551.42,3769.41 c -5.04,-26.07 4.58,-49.86 21.49,-53.13 16.91,-3.27 34.7,15.22 39.74,41.29 5.04,26.06 -4.58,49.85 -21.48,53.12 -16.92,3.27 -34.71,-15.21 -39.75,-41.28" /><path
         id="path248"
         style="fill:#1f1215;fill-opacity:1;fill-rule:nonzero;stroke:none"
         d="m 4628.17,3873.95 c 60.39,-32.22 80.75,-1.58 38.24,30.05 -45.72,34.01 -113.39,10.03 -38.24,-30.05" /><path
         id="path250"
         style="fill:#1f1215;fill-opacity:1;fill-rule:nonzero;stroke:none"
         d="m 4449.75,3920.67 c 49.82,3.29 39.14,35.46 -1.85,39.85 -44.1,4.72 -60.14,-43.95 1.85,-39.85" /><path
         id="path252"
         style="fill:#1f1215;fill-opacity:1;fill-rule:nonzero;stroke:none"
         d="m 4774.59,3731.28 c -114.23,76.64 -54.17,185.23 -12.92,224 -114.23,-8.83 -119.95,86.35 -119.95,86.35 -111.67,-60.31 -171.28,20.63 -171.28,20.63 0,0 134.17,104.71 362.62,0 228.46,-104.71 -58.47,-330.98 -58.47,-330.98" /><path
         id="path254"
         style="fill:#fab343;fill-opacity:1;fill-rule:nonzero;stroke:none"
         d="m 4836.86,3707.28 c 0,0 10.04,324.11 -277.94,387.91 v 0 c 54.17,30.49 121.3,28.83 172.72,-6.09 85.66,-58.19 185.38,-174.77 105.22,-381.82" /><path
         id="path256"
         style="fill:#bc6246;fill-opacity:1;fill-rule:nonzero;stroke:none"
         d="m 4713.11,3717.43 c -5.61,-58.89 37.59,-111.18 96.49,-116.79 58.89,-5.61 111.18,37.58 116.79,96.48 5.61,58.9 -37.59,111.19 -96.48,116.8 -58.9,5.61 -111.19,-37.59 -116.8,-96.49" /><path
         id="path258"
         style="fill:#403c3d;fill-opacity:1;fill-rule:nonzero;stroke:none"
         d="m 4608.11,3625.47 c -3.55,-6.39 -7.19,-12.48 -10.99,-18.13 -9.97,-15.18 -20.31,-27.68 -30.81,-37.67 -57.77,-54.74 -120.66,-33.4 -152.46,19.22 -12.16,20.3 -19.77,45.26 -20.76,72.25 0,0 8.72,0.34 23.08,0.04 40.51,-0.65 126.04,-5.92 191.94,-35.71" /><path
         id="path260"
         style="fill:#ffffff;fill-opacity:1;fill-rule:nonzero;stroke:none"
         d="m 4608.11,3625.47 c -3.55,-6.39 -7.19,-12.48 -10.99,-18.13 l -148.26,16.36 c -10.55,1.17 -19.68,7.87 -23.95,17.59 l -8.74,19.89 c 40.51,-0.65 126.04,-5.92 191.94,-35.71" /><path
         id="path262"
         style="fill:#d33e45;fill-opacity:1;fill-rule:nonzero;stroke:none"
         d="m 4566.31,3569.67 c -57.77,-54.74 -120.66,-33.4 -152.46,19.22 41.59,16.7 93.7,18.95 152.46,-19.22" /><path
         id="path264"
         style="fill:#90bdcb;fill-opacity:1;fill-rule:nonzero;stroke:none"
         d="m 4827.43,3498.85 -11.27,-488.92 -6.58,-287.04 c 0,0 82.27,-17.82 165.76,-36.19 14.82,-3.27 29.66,-6.55 44.03,-9.64 67.4,-15.16 125.95,-28.37 129.56,-29.99 l 0.15,-0.16 c -0.34,-0.45 3.53,43.18 4.46,111.03 0.17,9.76 0.19,19.84 0.1,30.54 -0.72,226.26 -40.1,650.52 -326.21,710.37" /><path
         id="path266"
         style="fill:#4f6783;fill-opacity:1;fill-rule:nonzero;stroke:none"
         d="m 4729,2986.62 c -51.37,73.49 -157.91,278.33 24.05,528.56 15,20.63 40.43,31.04 65.56,26.69 l 78.93,-13.68 c 9.73,-1.68 15.03,-12.31 10.45,-21.06 -34.27,-65.41 -120.31,-251.79 -77.91,-520.12 4.03,-25.45 -27.67,-40.37 -44.7,-21.04 v 0 c -21.27,-5.41 -43.81,2.67 -56.38,20.65" /><path
         id="path268"
         style="fill:#753a70;fill-opacity:1;fill-rule:nonzero;stroke:none"
         d="m 4676.13,2708.69 -393.97,24.45 c -43.48,2.7 -76.55,40.14 -73.85,83.62 l 33.16,534.51 c 2.7,43.48 40.14,76.55 83.62,73.85 l 393.97,-24.44 -42.93,-691.99" /><path
         id="path270"
         style="fill:#865082;fill-opacity:1;fill-rule:nonzero;stroke:none"
         d="m 4693.5,2707.61 -105.47,6.55 42.94,691.98 105.46,-6.54 c 39.06,-2.43 68.75,-36.05 66.33,-75.11 l -34.16,-550.55 c -2.42,-39.05 -36.05,-68.75 -75.1,-66.33" /><path
         id="path272"
         style="fill:#f8a22d;fill-opacity:1;fill-rule:nonzero;stroke:none"
         d="m 4604.22,2975.06 176.19,-10.93 3.62,58.37 -176.18,10.93 -3.63,-58.37" /><path
         id="path274"
         style="fill:#f8a22d;fill-opacity:1;fill-rule:nonzero;stroke:none"
         d="m 4599.15,2893.22 176.18,-10.93 3.62,58.37 -176.18,10.93 -3.62,-58.37" /><path
         id="path276"
         style="fill:#fab343;fill-opacity:1;fill-rule:nonzero;stroke:none"
         d="m 4288.16,3138.08 261.15,-16.2 9.69,156.19 -261.14,16.2 -9.7,-156.19" /><path
         id="path278"
         style="fill:#90bdcb;fill-opacity:1;fill-rule:nonzero;stroke:none"
         d="m 4484.5,2823.27 c -159.27,-48.48 -210.43,46.36 -146.9,133.89 l 146.9,-133.89" /><path
         id="path280"
         style="fill:#90bdcb;fill-opacity:1;fill-rule:nonzero;stroke:none"
         d="m 4411.97,3052.4 c 99.84,102.76 189.37,-31.07 121.15,-115 l -121.15,115" /><path
         id="path282"
         style="fill:#bc6246;fill-opacity:1;fill-rule:nonzero;stroke:none"
         d="m 4383.51,2879.78 -179.65,127.83 8.62,134.6 -13.26,15.77 c -6.01,7.13 -9.04,16.31 -8.44,25.62 v 0 c 1.6,24.97 27.44,40.84 50.43,30.95 l 133.22,-57.26 -12.38,60.7 c -3.25,15.97 6.35,31.74 22.03,36.17 v 0 c 13.94,3.94 28.76,-2.26 35.73,-14.95 l 40.21,-73.14 c 19.77,-35.96 22.14,-78.94 6.47,-116.86 l -5.06,-12.23 23.07,-24.97 -100.99,-132.23" /><path
         id="path284"
         style="fill:#90bdcb;fill-opacity:1;fill-rule:nonzero;stroke:none"
         d="m 4383.46,2879.77 c 141.1,-193.85 389.41,-238.72 564.91,-243.75 19.65,-0.64 38.41,-0.59 55.95,-0.32 86.46,1.45 144.76,11.21 144.76,11.21 l -0.15,0.16 -29.85,105.32 -7.72,27.17 -60.36,212.56 -234.84,17.81 -354.73,27.03 -77.97,-157.19" /><path
         id="path286"
         style="fill:none;stroke:#67a0ba;stroke-width:20;stroke-linecap:butt;stroke-linejoin:miter;stroke-miterlimit:10;stroke-dasharray:none;stroke-opacity:1"
         d="m 5028.29,2969.13 -209.46,52.12" /><path
         id="path288"
         style="fill:none;stroke:#67a0ba;stroke-width:20;stroke-linecap:butt;stroke-linejoin:miter;stroke-miterlimit:10;stroke-dasharray:none;stroke-opacity:1"
         d="m 5148.93,2647.07 c -540.09,-58.52 -712.44,168.91 -712.44,168.91 l 72.12,115.5" /><path
         id="path290"
         style="fill:#89514c;fill-opacity:1;fill-rule:nonzero;stroke:none"
         d="m 5923.97,3363.69 99.34,-49.09 c 121.61,-60.1 207.41,-174.46 230.84,-308.06 29.87,-170.37 36.43,-409.44 -89.12,-613.54 -174.88,-284.31 -809.87,124.1 -809.87,124.1 l 194.47,824.32 167.39,43.52 c 69.29,18.01 142.76,10.47 206.95,-21.25" /><path
         id="path292"
         style="fill:#522c32;fill-opacity:1;fill-rule:nonzero;stroke:none"
         d="m 5961.74,3342.37 v 0 c 136.68,-87.81 211.42,-245.62 192.99,-407.03 -16.99,-148.79 -50.12,-332.93 -114.75,-483.13 -131.92,-306.62 -657.28,64.89 -657.28,64.89 l 194.46,824.32 148.6,38.63 c 80.47,20.92 166.02,7.26 235.98,-37.68" /><path
         id="path294"
         style="fill:#553134;fill-opacity:1;fill-rule:nonzero;stroke:none"
         d="m 5717.92,4084.09 c 229.45,48.39 363.02,-35.17 356.51,-239.37 -6.52,-204.2 123.8,-203.94 101,-394.66 h -823.61 c 16.91,161.62 115.66,102.76 123.65,295.64 l 242.45,338.39" /><path
         id="path296"
         style="fill:#553134;fill-opacity:1;fill-rule:nonzero;stroke:none"
         d="m 5331.56,3450.06 h -53.04 c 0,103.02 47.74,148.89 108.19,206.95 63.54,61.05 150.57,144.66 237.65,341.1 l 48.49,-21.5 c -91.3,-205.97 -182.68,-293.75 -249.4,-357.85 -59.24,-56.92 -91.89,-88.27 -91.89,-168.7" /><path
         id="path298"
         style="fill:#9c421f;fill-opacity:1;fill-rule:nonzero;stroke:none"
         d="m 5980.48,3689.93 -168.64,-109.95 -15.44,121.73 z" /><path
         id="path300"
         style="fill:#fabfa6;fill-opacity:1;fill-rule:nonzero;stroke:none"
         d="M 5595.81,3813.4 V 3356.39 H 5831.1 V 3813.4 H 5595.81" /><path
         id="path302"
         style="fill:#f79770;fill-opacity:1;fill-rule:nonzero;stroke:none"
         d="m 5579.9,3745.7 v -111.29 c 0,-101.87 68.94,-184.35 153.9,-184.35 36.96,0 70.83,15.57 97.3,41.57 v 254.07 h -251.2" /><path
         id="path304"
         style="fill:#553134;fill-opacity:1;fill-rule:nonzero;stroke:none"
         d="m 5846.76,4074.39 c -297.48,145.96 -481.56,-28.41 -421.82,-260.99 l 421.82,260.99" /><path
         id="path306"
         style="fill:#fabfa6;fill-opacity:1;fill-rule:nonzero;stroke:none"
         d="m 5911.57,3869.59 -12.99,-36.43 -16.23,-45.36 -43.48,-121.79 c -23.47,-65.75 -79.32,-114.66 -147.59,-129.26 l -21.86,-4.67 c -144.87,-30.97 -276.78,93.02 -252.98,239.25 6.26,38.45 16.66,78.51 33.52,119.18 39.7,95.68 126.07,165.17 223.05,186.95 l 0.39,0.08 16.99,3.37 1.81,0.27 c 8.45,1.37 17.1,2.33 25.72,2.91 20.46,1.66 41.41,1.21 62.36,-1.41 v 0 c 101.84,-12.7 165.74,-116.42 131.29,-213.09" /><path
         id="path308"
         style="fill:#040606;fill-opacity:1;fill-rule:nonzero;stroke:none"
         d="m 5476.86,3835.09 c -4.88,-25.26 4.44,-48.33 20.83,-51.49 16.39,-3.17 33.64,14.75 38.53,40.02 4.88,25.27 -4.45,48.32 -20.83,51.49 -16.4,3.17 -33.64,-14.75 -38.53,-40.02" /><path
         id="path310"
         style="fill:#fabfa6;fill-opacity:1;fill-rule:nonzero;stroke:none"
         d="m 5568.92,3836.98 c -22.45,-42.2 -53.49,-48.38 -74.48,-46.69 -13.48,1.08 -25.53,-8.27 -27.89,-21.59 v 0 c -3.11,-17.56 4.42,-35.31 19.22,-45.28 l 52.32,-35.27 c 29.96,-13.3 64.87,2.08 75.27,33.17 l 35.25,105.37 -79.69,10.29" /><path
         id="path312"
         style="fill:#f79770;fill-opacity:1;fill-rule:nonzero;stroke:none"
         d="m 5518.39,3697.16 3.95,5.87 -34.6,23.32 c -13.61,9.18 -20.57,25.56 -17.7,41.74 2.05,11.58 12.42,19.62 24.12,18.67 22.77,-1.83 54.76,5.1 77.89,48.56 l -6.25,3.32 c -21.31,-40.07 -50.41,-46.49 -71.08,-44.82 -15.35,1.23 -28.95,-9.3 -31.66,-24.5 -3.34,-18.93 4.8,-38.1 20.73,-48.83 l 34.6,-23.33" /><path
         id="path314"
         style="fill:#040606;fill-opacity:1;fill-rule:nonzero;stroke:none"
         d="m 5650.54,3790.54 c -4.88,-25.27 4.45,-48.33 20.84,-51.5 16.39,-3.16 33.64,14.75 38.52,40.02 4.89,25.27 -4.44,48.32 -20.83,51.49 -16.39,3.17 -33.63,-14.74 -38.53,-40.01" /><path
         id="path316"
         style="fill:#553134;fill-opacity:1;fill-rule:nonzero;stroke:none"
         d="m 5715.66,3884.66 c 58.55,-31.24 78.27,-1.54 37.07,29.12 -44.33,32.98 -109.9,9.73 -37.07,-29.12" /><path
         id="path318"
         style="fill:#553134;fill-opacity:1;fill-rule:nonzero;stroke:none"
         d="m 5542.71,3929.94 c 48.29,3.19 37.94,34.38 -1.8,38.63 -42.73,4.57 -58.29,-42.6 1.8,-38.63" /><path
         id="path320"
         style="fill:#fabfa6;fill-opacity:1;fill-rule:nonzero;stroke:none"
         d="m 5816.91,3749.6 c -5.44,-57.09 36.44,-107.78 93.53,-113.22 57.09,-5.44 107.78,36.44 113.22,93.53 5.43,57.09 -36.44,107.78 -93.53,113.22 -57.1,5.43 -107.78,-36.44 -113.22,-93.53" /><path
         id="path322"
         style="fill:#403c3d;fill-opacity:1;fill-rule:nonzero;stroke:none"
         d="m 5705.49,3651.01 c -3.43,-6.19 -6.96,-12.1 -10.65,-17.57 -9.65,-14.72 -19.68,-26.83 -29.85,-36.51 -56.01,-53.06 -116.98,-32.38 -147.8,18.62 -11.78,19.68 -19.16,43.88 -20.12,70.04 0,0 8.45,0.33 22.37,0.04 39.27,-0.63 122.18,-5.74 186.05,-34.62" /><path
         id="path324"
         style="fill:#ffffff;fill-opacity:1;fill-rule:nonzero;stroke:none"
         d="m 5705.49,3651.01 c -3.43,-6.19 -6.96,-12.1 -10.65,-17.57 l -143.7,15.86 c -10.24,1.13 -19.08,7.63 -23.22,17.05 l -8.48,19.28 c 39.27,-0.63 122.18,-5.74 186.05,-34.62" /><path
         id="path326"
         style="fill:#d33e45;fill-opacity:1;fill-rule:nonzero;stroke:none"
         d="m 5664.99,3596.93 c -56.01,-53.06 -116.98,-32.38 -147.8,18.62 40.32,16.19 90.83,18.37 147.8,-18.62" /><path
         id="path328"
         style="fill:#553134;fill-opacity:1;fill-rule:nonzero;stroke:none"
         d="m 5717.92,4084.09 c 296.9,-96.71 24.33,-328.62 84.89,-634.03 h 86.99 c -66.41,252.19 237.73,677.85 -171.88,634.03" /><path
         id="path330"
         style="fill:#1f2023;fill-opacity:1;fill-rule:nonzero;stroke:none"
         d="m 5385.99,2403.1 258.45,11.63 226.6,-1480.582 -258.45,-11.617 -226.6,1480.569" /><path
         id="path332"
         style="fill:#ffffff;fill-opacity:1;fill-rule:nonzero;stroke:none"
         d="m 5885.92,934.82 -290.71,-13.078 -45.48,377.778 h 285.49 l 50.7,-364.7" /><path
         id="path334"
         style="fill:none;stroke:#c4463a;stroke-width:20;stroke-linecap:butt;stroke-linejoin:miter;stroke-miterlimit:10;stroke-dasharray:none;stroke-opacity:1"
         d="M 5558.12,1229.84 H 5826.3" /><path
         id="path336"
         style="fill:#673f1c;fill-opacity:1;fill-rule:nonzero;stroke:none"
         d="m 5942.58,697.449 h -660.22 l 5.8,58.93 c 1.94,19.223 6.95,37.07 14.64,53.211 16.28,34.332 44.75,60.769 81.96,74.84 l 16.66,6.289 c 16.35,6.179 31.21,14.312 44.55,24.152 11.49,8.469 21.78,18.078 30.66,28.961 19.44,23.328 32.78,51.949 38.65,84.208 h 370.97 l 36.32,-218.45 20.01,-112.141" /><path
         id="path338"
         style="fill:none;stroke:#ffffff;stroke-width:10;stroke-linecap:butt;stroke-linejoin:miter;stroke-miterlimit:10;stroke-dasharray:none;stroke-opacity:1"
         d="M 5631.95,990.789 H 5501.53" /><path
         id="path340"
         style="fill:none;stroke:#ffffff;stroke-width:10;stroke-linecap:butt;stroke-linejoin:miter;stroke-miterlimit:10;stroke-dasharray:none;stroke-opacity:1"
         d="M 5607.14,945.371 H 5476.71" /><path
         id="path342"
         style="fill:none;stroke:#ffffff;stroke-width:10;stroke-linecap:butt;stroke-linejoin:miter;stroke-miterlimit:10;stroke-dasharray:none;stroke-opacity:1"
         d="m 5787.78,856.281 c 2.01,-8.89 -3.57,-16.101 -12.46,-16.101 -8.89,0 -17.73,7.211 -19.74,16.101 -2,8.879 3.58,16.09 12.46,16.09 8.9,0 17.73,-7.211 19.74,-16.09 z" /><path
         id="path344"
         style="fill:none;stroke:#ffffff;stroke-width:10;stroke-linecap:butt;stroke-linejoin:miter;stroke-miterlimit:10;stroke-dasharray:none;stroke-opacity:1"
         d="m 5709.01,856.281 c 2.01,-8.89 -3.56,-16.101 -12.45,-16.101 -8.9,0 -17.73,7.211 -19.74,16.101 -2.01,8.879 3.58,16.09 12.46,16.09 8.89,0 17.73,-7.211 19.73,-16.09 z" /><path
         id="path346"
         style="fill:#ffffff;fill-opacity:1;fill-rule:nonzero;stroke:none"
         d="m 5942.58,697.449 h -660.22 l 5.8,58.93 c 1.94,19.223 6.95,37.07 14.64,53.211 h 619.77 l 20.01,-112.141" /><path
         id="path348"
         style="fill:none;stroke:#76abc0;stroke-width:20;stroke-linecap:butt;stroke-linejoin:miter;stroke-miterlimit:10;stroke-dasharray:none;stroke-opacity:1"
         d="m 5515.21,753.512 h 415.2" /><path
         id="path350"
         style="fill:#ffffff;fill-opacity:1;fill-rule:nonzero;stroke:none"
         d="m 5652.9,697.449 h -370.54 l 5.8,58.93 c 1.94,19.223 6.95,37.07 14.64,53.211 16.28,34.332 44.75,60.769 81.96,74.84 l 16.66,6.289 c 16.35,6.179 31.21,14.312 44.55,24.152 93.66,-39.711 173.43,-120.84 206.93,-217.422" /><path
         id="path352"
         style="fill:#673f1c;fill-opacity:1;fill-rule:nonzero;stroke:none"
         d="m 5515.28,1028.04 -14.85,32.86 c -10.47,23.12 2.14,45.12 25.86,45.12 h 33.06 c 26.12,0 53.44,-13.26 72.54,-35.21 l 37.21,-42.77 h -153.82" /><path
         id="path354"
         style="fill:#323335;fill-opacity:1;fill-rule:nonzero;stroke:none"
         d="m 5645.54,2403.1 258.45,11.63 226.6,-1480.582 -258.45,-11.617 -226.6,1480.569" /><path
         id="path356"
         style="fill:#ffffff;fill-opacity:1;fill-rule:nonzero;stroke:none"
         d="m 6145.47,934.82 -290.7,-13.078 -47.4,373.238 287.41,4.54 50.69,-364.7" /><path
         id="path358"
         style="fill:none;stroke:#c4463a;stroke-width:20;stroke-linecap:butt;stroke-linejoin:miter;stroke-miterlimit:10;stroke-dasharray:none;stroke-opacity:1"
         d="m 5813.8,1214.36 292.15,2.23" /><path
         id="path360"
         style="fill:#89552b;fill-opacity:1;fill-rule:nonzero;stroke:none"
         d="m 6202.13,697.449 h -660.22 l 5.8,58.93 c 1.95,19.223 6.96,37.07 14.65,53.211 16.27,34.332 44.75,60.769 81.96,74.84 l 16.66,6.289 c 16.34,6.179 31.21,14.312 44.55,24.152 11.48,8.469 21.78,18.078 30.66,28.961 19.44,23.328 32.77,51.949 38.64,84.208 h 370.97 l 36.32,-218.45 20.01,-112.141" /><path
         id="path362"
         style="fill:none;stroke:#ffffff;stroke-width:10;stroke-linecap:butt;stroke-linejoin:miter;stroke-miterlimit:10;stroke-dasharray:none;stroke-opacity:1"
         d="M 5891.5,990.789 H 5761.08" /><path
         id="path364"
         style="fill:none;stroke:#ffffff;stroke-width:10;stroke-linecap:butt;stroke-linejoin:miter;stroke-miterlimit:10;stroke-dasharray:none;stroke-opacity:1"
         d="M 5866.69,945.371 H 5736.27" /><path
         id="path366"
         style="fill:none;stroke:#ffffff;stroke-width:10;stroke-linecap:butt;stroke-linejoin:miter;stroke-miterlimit:10;stroke-dasharray:none;stroke-opacity:1"
         d="m 6047.34,856.281 c 2,-8.89 -3.57,-16.101 -12.46,-16.101 -8.9,0 -17.73,7.211 -19.74,16.101 -2.01,8.879 3.58,16.09 12.46,16.09 8.9,0 17.73,-7.211 19.74,-16.09 z" /><path
         id="path368"
         style="fill:none;stroke:#ffffff;stroke-width:10;stroke-linecap:butt;stroke-linejoin:miter;stroke-miterlimit:10;stroke-dasharray:none;stroke-opacity:1"
         d="m 5968.57,856.281 c 2.01,-8.89 -3.57,-16.101 -12.46,-16.101 -8.89,0 -17.72,7.211 -19.73,16.101 -2.01,8.879 3.57,16.09 12.46,16.09 8.89,0 17.73,-7.211 19.73,-16.09 z" /><path
         id="path370"
         style="fill:#ffffff;fill-opacity:1;fill-rule:nonzero;stroke:none"
         d="m 6202.13,697.449 h -660.22 l 5.8,58.93 c 1.95,19.223 6.96,37.07 14.65,53.211 h 619.76 l 20.01,-112.141" /><path
         id="path372"
         style="fill:none;stroke:#c4463a;stroke-width:20;stroke-linecap:butt;stroke-linejoin:miter;stroke-miterlimit:10;stroke-dasharray:none;stroke-opacity:1"
         d="m 5774.77,753.512 h 415.19" /><path
         id="path374"
         style="fill:#ffffff;fill-opacity:1;fill-rule:nonzero;stroke:none"
         d="m 5912.45,697.449 h -370.54 l 5.8,58.93 c 1.95,19.223 6.96,37.07 14.65,53.211 16.27,34.332 44.75,60.769 81.96,74.84 l 16.66,6.289 c 16.34,6.179 31.21,14.312 44.55,24.152 93.66,-39.711 173.43,-120.84 206.92,-217.422" /><path
         id="path376"
         style="fill:#89552b;fill-opacity:1;fill-rule:nonzero;stroke:none"
         d="m 5774.83,1028.04 -14.85,32.86 c -10.46,23.12 2.15,45.12 25.86,45.12 h 33.07 c 26.12,0 53.44,-13.26 72.54,-35.21 l 37.2,-42.77 h -153.82" /><path
         id="path378"
         style="fill:#f8a22d;fill-opacity:1;fill-rule:nonzero;stroke:none"
         d="M 5192.48,2716.1 5043.05,2210.65 H 5354 l 183.52,472.59 -345.04,32.86" /><path
         id="path380"
         style="fill:#698693;fill-opacity:1;fill-rule:nonzero;stroke:none"
         d="m 5385.94,2683.24 c 0,0 -154.15,-262.44 -7.67,-947.56 h 846.83 c -132.88,679.05 -382.64,936.34 -382.64,936.34 l -456.52,11.22" /><path
         id="path382"
         style="fill:none;stroke:#577682;stroke-width:20;stroke-linecap:butt;stroke-linejoin:miter;stroke-miterlimit:10;stroke-dasharray:none;stroke-opacity:1"
         d="m 5413.55,2079.74 436.2,-89.4" /><path
         id="path384"
         style="fill:none;stroke:#577682;stroke-width:20;stroke-linecap:butt;stroke-linejoin:miter;stroke-miterlimit:10;stroke-dasharray:none;stroke-opacity:1"
         d="m 5804.58,2647.05 c 213.13,-366.39 275.8,-852.26 275.8,-852.26" /><path
         id="path386"
         style="fill:#95bcbd;fill-opacity:1;fill-rule:nonzero;stroke:none"
         d="m 6221.5,1803.95 -874.22,-9.16 12.11,-59.11 h 874.99 l -12.88,68.27" /><path
         id="path388"
         style="fill:#f8a22d;fill-opacity:1;fill-rule:nonzero;stroke:none"
         d="m 5610.81,3407.27 c -305.76,5.04 -386.6,-441.21 -418.33,-691.17 l 250.22,-71.96 168.11,763.13" /><path
         id="path390"
         style="fill:#fab343;fill-opacity:1;fill-rule:nonzero;stroke:none"
         d="m 5915.43,2628.05 h -606.55 l 81.16,612.03 c 14.76,99.01 99.81,172.21 199.97,172.21 h 266.8 c 0.88,0 258.05,-0.18 281.21,-223.58 12.02,-116.07 -39.16,-292.53 -222.59,-560.66" /><g
         id="g392"><g
           clip-path="url(#clipPath398)"
           id="g394"><path
             id="path400"
             style="fill:none;stroke:#f3a01f;stroke-width:10;stroke-linecap:butt;stroke-linejoin:miter;stroke-miterlimit:10;stroke-dasharray:none;stroke-opacity:1"
             d="M 5551.01,3436.83 V 3259.34" /><path
             id="path402"
             style="fill:none;stroke:#f3a01f;stroke-width:10;stroke-linecap:butt;stroke-linejoin:miter;stroke-miterlimit:10;stroke-dasharray:none;stroke-opacity:1"
             d="M 5575.24,3436.83 V 3259.34" /><path
             id="path404"
             style="fill:none;stroke:#f3a01f;stroke-width:10;stroke-linecap:butt;stroke-linejoin:miter;stroke-miterlimit:10;stroke-dasharray:none;stroke-opacity:1"
             d="M 5599.46,3436.83 V 3259.34" /><path
             id="path406"
             style="fill:none;stroke:#f3a01f;stroke-width:10;stroke-linecap:butt;stroke-linejoin:miter;stroke-miterlimit:10;stroke-dasharray:none;stroke-opacity:1"
             d="M 5623.69,3436.83 V 3259.34" /><path
             id="path408"
             style="fill:none;stroke:#f3a01f;stroke-width:10;stroke-linecap:butt;stroke-linejoin:miter;stroke-miterlimit:10;stroke-dasharray:none;stroke-opacity:1"
             d="M 5647.92,3436.83 V 3259.34" /><path
             id="path410"
             style="fill:none;stroke:#f3a01f;stroke-width:10;stroke-linecap:butt;stroke-linejoin:miter;stroke-miterlimit:10;stroke-dasharray:none;stroke-opacity:1"
             d="M 5672.14,3436.83 V 3259.34" /><path
             id="path412"
             style="fill:none;stroke:#f3a01f;stroke-width:10;stroke-linecap:butt;stroke-linejoin:miter;stroke-miterlimit:10;stroke-dasharray:none;stroke-opacity:1"
             d="M 5696.36,3436.83 V 3259.34" /><path
             id="path414"
             style="fill:none;stroke:#f3a01f;stroke-width:10;stroke-linecap:butt;stroke-linejoin:miter;stroke-miterlimit:10;stroke-dasharray:none;stroke-opacity:1"
             d="M 5720.58,3436.83 V 3259.34" /><path
             id="path416"
             style="fill:none;stroke:#f3a01f;stroke-width:10;stroke-linecap:butt;stroke-linejoin:miter;stroke-miterlimit:10;stroke-dasharray:none;stroke-opacity:1"
             d="M 5744.81,3436.83 V 3259.34" /><path
             id="path418"
             style="fill:none;stroke:#f3a01f;stroke-width:10;stroke-linecap:butt;stroke-linejoin:miter;stroke-miterlimit:10;stroke-dasharray:none;stroke-opacity:1"
             d="M 5769.04,3436.83 V 3259.34" /><path
             id="path420"
             style="fill:none;stroke:#f3a01f;stroke-width:10;stroke-linecap:butt;stroke-linejoin:miter;stroke-miterlimit:10;stroke-dasharray:none;stroke-opacity:1"
             d="M 5793.26,3436.83 V 3259.34" /><path
             id="path422"
             style="fill:none;stroke:#f3a01f;stroke-width:10;stroke-linecap:butt;stroke-linejoin:miter;stroke-miterlimit:10;stroke-dasharray:none;stroke-opacity:1"
             d="M 5817.49,3436.83 V 3259.34" /><path
             id="path424"
             style="fill:none;stroke:#f3a01f;stroke-width:10;stroke-linecap:butt;stroke-linejoin:miter;stroke-miterlimit:10;stroke-dasharray:none;stroke-opacity:1"
             d="M 5841.71,3436.83 V 3259.34" /></g></g><path
         id="path426"
         style="fill:none;stroke:#f3a01f;stroke-width:10;stroke-linecap:butt;stroke-linejoin:miter;stroke-miterlimit:10;stroke-dasharray:none;stroke-opacity:1"
         d="m 5540.13,3416.78 c 29.26,-164.82 234.01,-183.94 349.32,-6.19" /><path
         id="path428"
         style="fill:#f8a22d;fill-opacity:1;fill-rule:nonzero;stroke:none"
         d="m 5915.43,2628.05 h -343.38 l 316.02,528.07 203.12,-29.35 c 12.03,-116.07 7.67,-230.59 -175.76,-498.72" /><path
         id="path430"
         style="fill:#553134;fill-opacity:1;fill-rule:nonzero;stroke:none"
         d="m 5664.08,4106.67 c -92.03,-161.94 230.45,-225.14 230.45,-225.14 0,0 85.95,190.54 -230.45,225.14" /><path
         id="path432"
         style="fill:#f8a22d;fill-opacity:1;fill-rule:nonzero;stroke:none"
         d="m 5624.22,2392.52 v -188 h -788.59 c -20.93,0 -38.75,15.84 -45.42,38.01 -1.86,6.04 -2.86,12.59 -2.86,19.44 v 73.1 c 0,7.23 1.13,14.15 3.19,20.53 6.93,21.56 24.52,36.92 45.09,36.92 h 788.59" /><path
         id="path434"
         style="fill:#89542d;fill-opacity:1;fill-rule:nonzero;stroke:none"
         d="m 5205.79,2355.6 v -113.07 h -415.58 c -1.86,6.04 -2.86,12.59 -2.86,19.44 v 73.1 c 0,7.23 1.13,14.15 3.19,20.53 h 415.25" /><path
         id="path436"
         style="fill:#89542d;fill-opacity:1;fill-rule:nonzero;stroke:none"
         d="m 5238.24,2392.52 h 372 v -188.01 h -372 c -47.67,0 -86.31,38.64 -86.31,86.31 v 15.39 c 0,47.66 38.64,86.31 86.31,86.31" /><path
         id="path438"
         style="fill:#89542d;fill-opacity:1;fill-rule:nonzero;stroke:none"
         d="m 5633.71,2392.52 h -74.07 v -28.18 h 74.07 c 6.54,0 11.83,6.31 11.83,14.09 v 0 c 0,7.78 -5.29,14.09 -11.83,14.09" /><path
         id="path440"
         style="fill:#89542d;fill-opacity:1;fill-rule:nonzero;stroke:none"
         d="m 5632.61,2232.69 h -72.97 v -28.16 h 72.97 c 7.15,0 12.93,5.78 12.93,12.93 v 2.3 c 0,7.14 -5.78,12.93 -12.93,12.93" /><path
         id="path442"
         style="fill:#ced1de;fill-opacity:1;fill-rule:nonzero;stroke:none"
         d="m 5242.75,2364.33 h 381.47 v -131.64 h -381.47 c -33.38,0 -60.43,27.05 -60.43,60.43 v 10.78 c 0,33.37 27.05,60.43 60.43,60.43" /><path
         id="path444"
         style="fill:#ffffff;fill-opacity:1;fill-rule:nonzero;stroke:none"
         d="m 5277.58,2347.03 h 346.64 V 2232.69 H 5230.9 c -16.1,0 -29.15,13.05 -29.15,29.15 v 9.36 c 0,41.88 33.95,75.83 75.83,75.83" /><g
         id="g446"><g
           clip-path="url(#clipPath452)"
           id="g448"><path
             id="path454"
             style="fill:none;stroke:#eceef2;stroke-width:10;stroke-linecap:butt;stroke-linejoin:miter;stroke-miterlimit:10;stroke-dasharray:none;stroke-opacity:1"
             d="m 5198.29,2332.16 h 425.93" /><path
             id="path456"
             style="fill:none;stroke:#eceef2;stroke-width:10;stroke-linecap:butt;stroke-linejoin:miter;stroke-miterlimit:10;stroke-dasharray:none;stroke-opacity:1"
             d="m 5183.78,2305.95 h 440.44" /><path
             id="path458"
             style="fill:none;stroke:#eceef2;stroke-width:10;stroke-linecap:butt;stroke-linejoin:miter;stroke-miterlimit:10;stroke-dasharray:none;stroke-opacity:1"
             d="m 5183.78,2279.74 h 440.44" /><path
             id="path460"
             style="fill:none;stroke:#eceef2;stroke-width:10;stroke-linecap:butt;stroke-linejoin:miter;stroke-miterlimit:10;stroke-dasharray:none;stroke-opacity:1"
             d="m 5183.78,2253.53 h 440.44" /></g></g><path
         id="path462"
         style="fill:#dbcfc8;fill-opacity:1;fill-rule:nonzero;stroke:none"
         d="m 5320.1,2332.16 v -89.64 l -30.83,18.14 -30.83,-18.14 v 89.64" /><path
         id="path464"
         style="fill:#5e824e;fill-opacity:1;fill-rule:nonzero;stroke:none"
         d="m 5341.93,2260.66 -37.48,19.75 -23.24,-19.75 -22.77,71.5 h 60.72 l 22.77,-71.5" /><path
         id="path466"
         style="fill:#ecf2f2;fill-opacity:1;fill-rule:nonzero;stroke:none"
         d="m 5265.66,2337.76 h 46.64" /><path
         id="path468"
         style="fill:#f8a22d;fill-opacity:1;fill-rule:nonzero;stroke:none"
         d="m 5154.51,2204.54 h -47.85 c -20.93,0 -38.71,15.81 -45.43,37.99 h 47.84 c 6.72,-22.18 24.5,-37.99 45.44,-37.99" /><path
         id="path470"
         style="fill:#f8a22d;fill-opacity:1;fill-rule:nonzero;stroke:none"
         d="m 5109.41,2355.61 h -47.84 c 6.97,21.58 24.5,36.91 45.09,36.91 h 47.85 c -20.59,0 -38.12,-15.33 -45.1,-36.91" /><path
         id="path472"
         style="fill:#f8a22d;fill-opacity:1;fill-rule:nonzero;stroke:none"
         d="m 5085.21,2204.54 h -47.84 c -20.94,0 -38.72,15.81 -45.44,37.99 h 47.84 c 6.72,-22.18 24.51,-37.99 45.44,-37.99" /><path
         id="path474"
         style="fill:#f8a22d;fill-opacity:1;fill-rule:nonzero;stroke:none"
         d="m 5040.12,2355.61 h -47.85 c 6.98,21.58 24.51,36.91 45.1,36.91 h 47.84 c -20.58,0 -38.11,-15.33 -45.09,-36.91" /><path
         id="path476"
         style="fill:#fab343;fill-opacity:1;fill-rule:nonzero;stroke:none"
         d="m 5109.14,2261.99 c 0,-6.85 0.99,-13.4 2.84,-19.46 h -47.84 c -1.86,6.06 -2.84,12.61 -2.84,19.46 v 73.09 c 0,7.22 1.11,14.16 3.18,20.53 h 47.85 c -2.07,-6.37 -3.19,-13.31 -3.19,-20.53 v -73.09" /><path
         id="path478"
         style="fill:#fab343;fill-opacity:1;fill-rule:nonzero;stroke:none"
         d="m 5039.85,2261.99 c 0,-6.85 0.99,-13.4 2.84,-19.46 h -47.85 c -1.85,6.06 -2.84,12.61 -2.84,19.46 v 73.09 c 0,7.22 1.12,14.16 3.19,20.53 h 47.84 c -2.07,-6.37 -3.18,-13.31 -3.18,-20.53 v -73.09" /><path
         id="path480"
         style="fill:#f8a22d;fill-opacity:1;fill-rule:nonzero;stroke:none"
         d="m 4912.38,2204.54 h -47.85 c -20.93,0 -38.71,15.81 -45.43,37.99 h 47.84 c 6.72,-22.18 24.5,-37.99 45.44,-37.99" /><path
         id="path482"
         style="fill:#f8a22d;fill-opacity:1;fill-rule:nonzero;stroke:none"
         d="m 4867.29,2355.61 h -47.85 c 6.97,21.58 24.5,36.91 45.09,36.91 h 47.85 c -20.59,0 -38.12,-15.33 -45.09,-36.91" /><path
         id="path484"
         style="fill:#fab343;fill-opacity:1;fill-rule:nonzero;stroke:none"
         d="m 4867.01,2261.99 c 0,-6.85 0.99,-13.4 2.84,-19.46 h -47.84 c -1.86,6.06 -2.84,12.61 -2.84,19.46 v 73.09 c 0,7.22 1.12,14.16 3.18,20.53 h 47.85 c -2.07,-6.37 -3.19,-13.31 -3.19,-20.53 v -73.09" /><path
         id="path486"
         style="fill:#753a70;fill-opacity:1;fill-rule:nonzero;stroke:none"
         d="m 5530.64,2552.36 v -159.82 h -670.43 c -17.79,0 -32.94,13.46 -38.61,32.3 -1.58,5.15 -2.43,10.71 -2.43,16.53 v 62.14 c 0,6.16 0.96,12.04 2.71,17.46 5.89,18.34 20.85,31.39 38.33,31.39 h 670.43" /><path
         id="path488"
         style="fill:#865082;fill-opacity:1;fill-rule:nonzero;stroke:none"
         d="m 5174.9,2520.97 v -96.13 h -353.3 c -1.58,5.15 -2.43,10.71 -2.43,16.53 v 62.14 c 0,6.16 0.96,12.04 2.71,17.46 h 353.02" /><path
         id="path490"
         style="fill:#865082;fill-opacity:1;fill-rule:nonzero;stroke:none"
         d="m 5202.49,2552.36 h 316.26 v -159.84 h -316.26 c -40.52,0 -73.37,32.85 -73.37,73.38 v 13.08 c 0,40.52 32.85,73.38 73.37,73.38" /><path
         id="path492"
         style="fill:#688493;fill-opacity:1;fill-rule:nonzero;stroke:none"
         d="m 5538.71,2552.36 h -62.97 v -23.95 h 62.97 c 5.55,0 10.06,5.36 10.06,11.97 v 0 c 0,6.61 -4.51,11.98 -10.06,11.98" /><path
         id="path494"
         style="fill:#688493;fill-opacity:1;fill-rule:nonzero;stroke:none"
         d="m 5537.77,2416.48 h -62.03 v -23.94 h 62.03 c 6.07,0 11,4.92 11,10.99 v 1.96 c 0,6.07 -4.93,10.99 -11,10.99" /><path
         id="path496"
         style="fill:#ced1de;fill-opacity:1;fill-rule:nonzero;stroke:none"
         d="m 5206.32,2528.4 h 324.32 v -111.92 h -324.32 c -28.36,0 -51.37,23 -51.37,51.38 v 9.16 c 0,28.37 23.01,51.38 51.37,51.38" /><path
         id="path498"
         style="fill:#ffffff;fill-opacity:1;fill-rule:nonzero;stroke:none"
         d="m 5235.94,2513.69 h 294.7 v -97.21 h -334.38 c -13.7,0 -24.79,11.1 -24.79,24.79 v 7.96 c 0,35.6 28.87,64.46 64.47,64.46" /><g
         id="g500"><g
           clip-path="url(#clipPath506)"
           id="g502"><path
             id="path508"
             style="fill:none;stroke:#eceef2;stroke-width:10;stroke-linecap:butt;stroke-linejoin:miter;stroke-miterlimit:10;stroke-dasharray:none;stroke-opacity:1"
             d="m 5168.52,2501.05 h 362.12" /><path
             id="path510"
             style="fill:none;stroke:#eceef2;stroke-width:10;stroke-linecap:butt;stroke-linejoin:miter;stroke-miterlimit:10;stroke-dasharray:none;stroke-opacity:1"
             d="m 5156.19,2478.77 h 374.45" /><path
             id="path512"
             style="fill:none;stroke:#eceef2;stroke-width:10;stroke-linecap:butt;stroke-linejoin:miter;stroke-miterlimit:10;stroke-dasharray:none;stroke-opacity:1"
             d="m 5156.19,2456.48 h 374.45" /><path
             id="path514"
             style="fill:none;stroke:#eceef2;stroke-width:10;stroke-linecap:butt;stroke-linejoin:miter;stroke-miterlimit:10;stroke-dasharray:none;stroke-opacity:1"
             d="m 5156.19,2434.21 h 374.45" /></g></g><path
         id="path516"
         style="fill:#dbcfc8;fill-opacity:1;fill-rule:nonzero;stroke:none"
         d="m 5272.09,2501.05 v -76.21 l -26.21,15.42 -26.22,-15.42 v 76.21" /><path
         id="path518"
         style="fill:#ec9729;fill-opacity:1;fill-rule:nonzero;stroke:none"
         d="m 5290.64,2440.26 -31.85,16.79 -19.77,-16.79 -19.36,60.79 h 51.63 l 19.35,-60.79" /><path
         id="path520"
         style="fill:#ecf2f2;fill-opacity:1;fill-rule:nonzero;stroke:none"
         d="m 5225.81,2505.81 h 39.65" /><path
         id="path522"
         style="fill:#f8a22d;fill-opacity:1;fill-rule:nonzero;stroke:none"
         d="m 5022.22,2392.55 h -40.68 c -17.79,0 -32.91,13.43 -38.62,32.29 h 40.67 c 5.71,-18.86 20.84,-32.29 38.63,-32.29" /><path
         id="path524"
         style="fill:#f8a22d;fill-opacity:1;fill-rule:nonzero;stroke:none"
         d="m 4983.88,2520.98 h -40.67 c 5.93,18.35 20.83,31.38 38.33,31.38 h 40.68 c -17.5,0 -32.4,-13.03 -38.34,-31.38" /><path
         id="path526"
         style="fill:#fab343;fill-opacity:1;fill-rule:nonzero;stroke:none"
         d="m 4984.09,2441.39 c 0,-5.83 0.84,-11.38 2.42,-16.55 h -40.68 c -1.58,5.17 -2.42,10.72 -2.42,16.55 v 62.13 c 0,6.15 0.95,12.05 2.71,17.46 h 40.68 c -1.75,-5.41 -2.71,-11.31 -2.71,-17.46 v -62.13" /><path
         id="path528"
         style="fill:#f8a22d;fill-opacity:1;fill-rule:nonzero;stroke:none"
         d="m 4963.31,2392.55 h -40.68 c -17.79,0 -32.91,13.43 -38.62,32.29 h 40.67 c 5.72,-18.86 20.83,-32.29 38.63,-32.29" /><path
         id="path530"
         style="fill:#f8a22d;fill-opacity:1;fill-rule:nonzero;stroke:none"
         d="m 4924.98,2520.98 h -40.68 c 5.93,18.35 20.83,31.38 38.33,31.38 h 40.68 c -17.5,0 -32.41,-13.03 -38.33,-31.38" /><path
         id="path532"
         style="fill:#fab343;fill-opacity:1;fill-rule:nonzero;stroke:none"
         d="m 4925.18,2441.39 c 0,-5.83 0.84,-11.38 2.41,-16.55 h -40.67 c -1.57,5.17 -2.41,10.72 -2.41,16.55 v 62.13 c 0,6.15 0.95,12.05 2.7,17.46 h 40.68 c -1.76,-5.41 -2.71,-11.31 -2.71,-17.46 v -62.13" /><path
         id="path534"
         style="fill:#4b7335;fill-opacity:1;fill-rule:nonzero;stroke:none"
         d="m 4868.87,2691.66 v -138.98 h 582.98 c 15.47,0 28.64,11.72 33.58,28.09 1.37,4.48 2.12,9.32 2.12,14.38 v 54.04 c 0,5.35 -0.84,10.46 -2.37,15.18 -5.12,15.94 -18.12,27.29 -33.33,27.29 h -582.98" /><path
         id="path536"
         style="fill:#5e824e;fill-opacity:1;fill-rule:nonzero;stroke:none"
         d="m 5178.21,2664.37 v -83.6 h 307.22 c 1.37,4.48 2.12,9.32 2.12,14.38 v 54.04 c 0,5.35 -0.84,10.46 -2.37,15.18 h -306.97" /><path
         id="path538"
         style="fill:#5e824e;fill-opacity:1;fill-rule:nonzero;stroke:none"
         d="m 5154.22,2691.66 h -275 v -138.99 h 275 c 35.24,0 63.8,28.57 63.8,63.81 v 11.37 c 0,35.24 -28.56,63.81 -63.8,63.81" /><path
         id="path540"
         style="fill:#5e824e;fill-opacity:1;fill-rule:nonzero;stroke:none"
         d="m 4861.86,2691.66 h 54.76 v -20.82 h -54.76 c -4.83,0 -8.75,4.66 -8.75,10.41 v 0 c 0,5.75 3.92,10.41 8.75,10.41" /><path
         id="path542"
         style="fill:#5e824e;fill-opacity:1;fill-rule:nonzero;stroke:none"
         d="m 4862.67,2573.51 h 53.95 v -20.82 h -53.95 c -5.28,0 -9.56,4.27 -9.56,9.55 v 1.71 c 0,5.28 4.28,9.56 9.56,9.56" /><path
         id="path544"
         style="fill:#ced1de;fill-opacity:1;fill-rule:nonzero;stroke:none"
         d="m 5150.89,2670.82 h -282.02 v -97.31 h 282.02 c 24.66,0 44.67,20 44.67,44.67 v 7.97 c 0,24.67 -20.01,44.67 -44.67,44.67" /><path
         id="path546"
         style="fill:#ffffff;fill-opacity:1;fill-rule:nonzero;stroke:none"
         d="m 5125.13,2658.03 h -256.26 v -84.52 h 290.77 c 11.9,0 21.55,9.65 21.55,21.55 v 6.91 c 0,30.97 -25.1,56.06 -56.06,56.06" /><g
         id="g548"><g
           clip-path="url(#clipPath554)"
           id="g550"><path
             id="path556"
             style="fill:none;stroke:#eceef2;stroke-width:10;stroke-linecap:butt;stroke-linejoin:miter;stroke-miterlimit:10;stroke-dasharray:none;stroke-opacity:1"
             d="M 5183.76,2647.05 H 4868.87" /><path
             id="path558"
             style="fill:none;stroke:#eceef2;stroke-width:10;stroke-linecap:butt;stroke-linejoin:miter;stroke-miterlimit:10;stroke-dasharray:none;stroke-opacity:1"
             d="M 5194.48,2627.67 H 4868.87" /><path
             id="path560"
             style="fill:none;stroke:#eceef2;stroke-width:10;stroke-linecap:butt;stroke-linejoin:miter;stroke-miterlimit:10;stroke-dasharray:none;stroke-opacity:1"
             d="M 5194.48,2608.29 H 4868.87" /><path
             id="path562"
             style="fill:none;stroke:#eceef2;stroke-width:10;stroke-linecap:butt;stroke-linejoin:miter;stroke-miterlimit:10;stroke-dasharray:none;stroke-opacity:1"
             d="M 5194.48,2588.92 H 4868.87" /></g></g><path
         id="path564"
         style="fill:#dbcfc8;fill-opacity:1;fill-rule:nonzero;stroke:none"
         d="m 5093.7,2647.05 v -66.28 l 22.79,13.41 22.79,-13.41 v 66.28" /><path
         id="path566"
         style="fill:#d33e45;fill-opacity:1;fill-rule:nonzero;stroke:none"
         d="m 5077.56,2594.18 27.71,14.6 17.18,-14.6 16.83,52.87 h -44.88 l -16.84,-52.87" /><path
         id="path568"
         style="fill:#ecf2f2;fill-opacity:1;fill-rule:nonzero;stroke:none"
         d="m 5133.94,2651.18 h -34.47" /><path
         id="path570"
         style="fill:#ec9729;fill-opacity:1;fill-rule:nonzero;stroke:none"
         d="m 5218.02,2552.7 h 35.37 c 15.47,0 28.63,11.68 33.59,28.08 h -35.37 c -4.96,-16.4 -18.12,-28.08 -33.59,-28.08" /><path
         id="path572"
         style="fill:#ec9729;fill-opacity:1;fill-rule:nonzero;stroke:none"
         d="m 5251.35,2664.38 h 35.37 c -5.15,15.95 -18.11,27.28 -33.33,27.28 h -35.37 c 15.22,0 28.18,-11.33 33.33,-27.28" /><path
         id="path574"
         style="fill:#f0a53f;fill-opacity:1;fill-rule:nonzero;stroke:none"
         d="m 5253.71,2595.17 c 0,-5.07 -0.74,-9.9 -2.1,-14.39 h 35.37 c 1.37,4.49 2.1,9.32 2.1,14.39 v 54.02 c 0,5.35 -0.82,10.48 -2.36,15.19 h -35.37 c 1.54,-4.71 2.36,-9.84 2.36,-15.19 v -54.02" /><path
         id="path576"
         style="fill:#ec9729;fill-opacity:1;fill-rule:nonzero;stroke:none"
         d="m 5390.06,2552.7 h 35.38 c 15.46,0 28.62,11.68 33.58,28.08 h -35.37 c -4.96,-16.4 -18.12,-28.08 -33.59,-28.08" /><path
         id="path578"
         style="fill:#ec9729;fill-opacity:1;fill-rule:nonzero;stroke:none"
         d="m 5423.39,2664.38 h 35.38 c -5.16,15.95 -18.12,27.28 -33.33,27.28 h -35.38 c 15.22,0 28.18,-11.33 33.33,-27.28" /><path
         id="path580"
         style="fill:#f0a53f;fill-opacity:1;fill-rule:nonzero;stroke:none"
         d="m 5425.75,2595.17 c 0,-5.07 -0.73,-9.9 -2.1,-14.39 h 35.37 c 1.37,4.49 2.1,9.32 2.1,14.39 v 54.02 c 0,5.35 -0.82,10.48 -2.35,15.19 h -35.38 c 1.54,-4.71 2.36,-9.84 2.36,-15.19 v -54.02" /><path
         id="path582"
         style="fill:#89514c;fill-opacity:1;fill-rule:nonzero;stroke:none"
         d="m 5954.67,2683.24 c 0,0 -171.49,346.44 -132.46,710.28 3.19,29.64 30.07,51.01 59.72,47.94 l 66.43,-6.9 c 28.95,-3.01 50.39,-28.29 48.62,-57.35 l -42.31,-693.97" /><path
         id="path584"
         style="fill:#fab343;fill-opacity:1;fill-rule:nonzero;stroke:none"
         d="m 5997.08,3380.81 -239.55,-613.72 c 3.36,-11.93 286.02,-178.36 286.02,-178.36 l 0.08,-0.18 c 106.87,139.03 222.42,720.44 -46.55,792.26" /><path
         id="path586"
         style="fill:#fabfa6;fill-opacity:1;fill-rule:nonzero;stroke:none"
         d="m 5555.1,2292.2 -133.44,-88.1 h -268.4 c -10.88,152.14 234.23,193.03 234.23,193.03 L 5555.1,2292.2" /><path
         id="path588"
         style="fill:#f79770;fill-opacity:1;fill-rule:nonzero;stroke:none"
         d="m 5153.26,2204.1 78.44,58.59 -21.39,-58.59 z" /><path
         id="path590"
         style="fill:#fab343;fill-opacity:1;fill-rule:nonzero;stroke:none"
         d="M 6043.61,2588.54 C 5897.13,2446.91 5764.25,2361.96 5664,2311.57 c -115.1,-58 -187.15,-70.28 -187.15,-70.28 l -194.49,138.08 137.29,112.01 337.89,275.74 286.07,-178.58" /><g
         id="g592"><g
           clip-path="url(#clipPath598)"
           id="g594"><path
             id="path600"
             style="fill:none;stroke:#f3a01f;stroke-width:10;stroke-linecap:butt;stroke-linejoin:miter;stroke-miterlimit:10;stroke-dasharray:none;stroke-opacity:1"
             d="m 5276.45,2363.36 176.39,127.43" /><path
             id="path602"
             style="fill:none;stroke:#f3a01f;stroke-width:10;stroke-linecap:butt;stroke-linejoin:miter;stroke-miterlimit:10;stroke-dasharray:none;stroke-opacity:1"
             d="m 5297.1,2347.75 176.38,127.43" /><path
             id="path604"
             style="fill:none;stroke:#f3a01f;stroke-width:10;stroke-linecap:butt;stroke-linejoin:miter;stroke-miterlimit:10;stroke-dasharray:none;stroke-opacity:1"
             d="m 5317.75,2332.15 176.38,127.42" /><path
             id="path606"
             style="fill:none;stroke:#f3a01f;stroke-width:10;stroke-linecap:butt;stroke-linejoin:miter;stroke-miterlimit:10;stroke-dasharray:none;stroke-opacity:1"
             d="m 5338.39,2316.53 176.39,127.43" /><path
             id="path608"
             style="fill:none;stroke:#f3a01f;stroke-width:10;stroke-linecap:butt;stroke-linejoin:miter;stroke-miterlimit:10;stroke-dasharray:none;stroke-opacity:1"
             d="m 5359.04,2300.92 176.39,127.44" /><path
             id="path610"
             style="fill:none;stroke:#f3a01f;stroke-width:10;stroke-linecap:butt;stroke-linejoin:miter;stroke-miterlimit:10;stroke-dasharray:none;stroke-opacity:1"
             d="m 5379.68,2285.32 176.39,127.43" /><path
             id="path612"
             style="fill:none;stroke:#f3a01f;stroke-width:10;stroke-linecap:butt;stroke-linejoin:miter;stroke-miterlimit:10;stroke-dasharray:none;stroke-opacity:1"
             d="m 5400.34,2269.71 176.38,127.44" /><path
             id="path614"
             style="fill:none;stroke:#f3a01f;stroke-width:10;stroke-linecap:butt;stroke-linejoin:miter;stroke-miterlimit:10;stroke-dasharray:none;stroke-opacity:1"
             d="m 5420.98,2254.11 176.39,127.42" /><path
             id="path616"
             style="fill:none;stroke:#f3a01f;stroke-width:10;stroke-linecap:butt;stroke-linejoin:miter;stroke-miterlimit:10;stroke-dasharray:none;stroke-opacity:1"
             d="m 5441.63,2238.49 176.38,127.43" /><path
             id="path618"
             style="fill:none;stroke:#f3a01f;stroke-width:10;stroke-linecap:butt;stroke-linejoin:miter;stroke-miterlimit:10;stroke-dasharray:none;stroke-opacity:1"
             d="m 5462.27,2222.89 176.39,127.43" /><path
             id="path620"
             style="fill:none;stroke:#f3a01f;stroke-width:10;stroke-linecap:butt;stroke-linejoin:miter;stroke-miterlimit:10;stroke-dasharray:none;stroke-opacity:1"
             d="m 5482.93,2207.28 176.37,127.43" /></g></g><path
         id="path622"
         style="fill:none;stroke:#f3a01f;stroke-width:10;stroke-linecap:butt;stroke-linejoin:miter;stroke-miterlimit:10;stroke-dasharray:none;stroke-opacity:1"
         d="M 5419.65,2491.38 5664,2311.57" /><path
         id="path624"
         style="fill:#89514c;fill-opacity:1;fill-rule:nonzero;stroke:none"
         d="m 5332.88,2819.3 c -51.99,321.88 5.56,485.81 46.1,556.4 15.83,27.55 43.57,46.15 74.97,51.03 l 43.05,6.69 c 23.48,3.66 47.17,-5.23 62.45,-23.42 v 0 c -131.34,-126.71 -226.57,-590.7 -226.57,-590.7" /><path
         id="path626"
         style="fill:#865082;fill-opacity:1;fill-rule:nonzero;stroke:none"
         d="m 2018.89,3763.85 -415.71,-147.84 c 0,0 -267.39,-480.51 -74.95,-895.52 150.57,-324.71 878.03,30.54 878.03,30.54 l -103.66,902.26 -283.71,110.56" /><path
         id="path628"
         style="fill:#2b1d2c;fill-opacity:1;fill-rule:nonzero;stroke:none"
         d="m 2018.89,3763.85 -367.28,-179.11 c 0,0 -55.46,-477.26 46.55,-820.34 102.02,-343.07 708.1,-13.37 708.1,-13.37 l -103.66,902.26 -283.71,110.56" /><path
         id="path630"
         style="fill:#d97f6a;fill-opacity:1;fill-rule:nonzero;stroke:none"
         d="m 3010.86,3039.79 -0.15,-0.26 -0.26,0.14 -109.93,26.53 -379.85,92 146.5,335.46 277.14,-106.13 134.29,-51.47 -45.45,-198.36 -22.29,-97.91" /><path
         id="path632"
         style="fill:#d97f6a;fill-opacity:1;fill-rule:nonzero;stroke:none"
         d="m 3107.45,3168.34 c -48.51,-84.38 -92.96,-125 -96.69,-128.39 -0.15,-0.14 -0.31,-0.28 -0.31,-0.28 l -60.66,72.01 -160.94,191.1 13.15,23.12 267.7,469.27 166.75,-22.36 c 10.55,-293.7 -62.98,-489.6 -129,-604.47" /><path
         id="path634"
         style="fill:#bd3740;fill-opacity:1;fill-rule:nonzero;stroke:none"
         d="m 2854.57,3433.13 -144.82,-372.46 -522.98,170.19 72.03,443.63 595.77,-241.36" /><path
         id="path636"
         style="fill:#7f1f26;fill-opacity:1;fill-rule:nonzero;stroke:none"
         d="m 2384.09,3166.65 30.38,278.2 174.17,-344.77" /><path
         id="path638"
         style="fill:#f5efe0;fill-opacity:1;fill-rule:nonzero;stroke:none"
         d="m 2709.75,3060.67 144.82,372.46 -79.08,32.04 -186.85,-365.09 121.11,-39.41" /><path
         id="path640"
         style="fill:none;stroke:#181817;stroke-width:40;stroke-linecap:butt;stroke-linejoin:miter;stroke-miterlimit:10;stroke-dasharray:none;stroke-opacity:1"
         d="m 2450.82,3613.72 c 139.86,-159.6 173.55,-374.7 -6.19,-465.96" /><path
         id="path642"
         style="fill:#485054;fill-opacity:1;fill-rule:nonzero;stroke:none"
         d="m 2022.54,1112.67 309.71,-74.68 136.36,414.3 -315.53,41.76 -130.54,-381.38" /><path
         id="path644"
         style="fill:none;stroke:#aa5a5a;stroke-width:10;stroke-linecap:butt;stroke-linejoin:miter;stroke-miterlimit:10;stroke-dasharray:none;stroke-opacity:1"
         d="m 2075.72,1262.98 323.59,-43.45" /><path
         id="path646"
         style="fill:#577682;fill-opacity:1;fill-rule:nonzero;stroke:none"
         d="m 1912.14,869.379 709.56,-137.68 6.06,64.539 c 1.91,21.071 0.25,41.301 -4.64,60.242 -10.33,40.29 -35.42,74.641 -72.48,97.532 l -16.6,10.23 c -16.27,10.047 -30.56,21.887 -42.84,35.246 -10.57,11.492 -19.64,23.972 -26.9,37.502 -16.03,29.15 -24.4,62.67 -23.98,98.58 l -398.69,77.36 -84.59,-227.2 -44.9,-116.351" /><path
         id="path648"
         style="fill:none;stroke:#ffffff;stroke-width:10;stroke-linecap:butt;stroke-linejoin:miter;stroke-miterlimit:10;stroke-dasharray:none;stroke-opacity:1"
         d="m 2307.16,1119.86 140.18,-27.2" /><path
         id="path650"
         style="fill:none;stroke:#ffffff;stroke-width:10;stroke-linecap:butt;stroke-linejoin:miter;stroke-miterlimit:10;stroke-dasharray:none;stroke-opacity:1"
         d="m 2324.37,1065.88 140.16,-27.2" /><path
         id="path652"
         style="fill:none;stroke:#ffffff;stroke-width:10;stroke-linecap:butt;stroke-linejoin:miter;stroke-miterlimit:10;stroke-dasharray:none;stroke-opacity:1"
         d="m 2111.64,1007.79 c -4.02,-9.13 0.48,-18.04 10.03,-19.892 9.55,-1.859 20.55,4.043 24.57,13.182 4.01,9.13 -0.49,18.05 -10.04,19.9 -9.55,1.85 -20.55,-4.05 -24.56,-13.19 z" /><path
         id="path654"
         style="fill:none;stroke:#ffffff;stroke-width:10;stroke-linecap:butt;stroke-linejoin:miter;stroke-miterlimit:10;stroke-dasharray:none;stroke-opacity:1"
         d="m 2196.29,991.359 c -4.02,-9.129 0.48,-18.027 10.03,-19.89 9.56,-1.848 20.55,4.051 24.57,13.191 4.01,9.129 -0.48,18.04 -10.04,19.9 -9.55,1.84 -20.55,-4.06 -24.56,-13.201 z" /><path
         id="path656"
         style="fill:#ffffff;fill-opacity:1;fill-rule:nonzero;stroke:none"
         d="m 1912.14,869.379 709.56,-137.68 6.06,64.539 c 1.91,21.071 0.25,41.301 -4.64,60.242 l -666.08,129.25 -44.9,-116.351" /><path
         id="path658"
         style="fill:none;stroke:#aa5a5a;stroke-width:10;stroke-linecap:butt;stroke-linejoin:miter;stroke-miterlimit:10;stroke-dasharray:none;stroke-opacity:1"
         d="m 2383.14,840.512 -446.21,86.59" /><path
         id="path660"
         style="fill:#ffffff;fill-opacity:1;fill-rule:nonzero;stroke:none"
         d="m 2223.48,808.961 398.22,-77.262 6.06,64.539 c 1.91,21.071 0.25,41.301 -4.64,60.242 -10.33,40.29 -35.42,74.641 -72.48,97.532 l -16.6,10.23 c -16.27,10.047 -30.56,21.887 -42.84,35.246 -108.93,-23.156 -211.59,-93.707 -267.72,-190.527" /><path
         id="path662"
         style="fill:#577682;fill-opacity:1;fill-rule:nonzero;stroke:none"
         d="m 2440.32,1135.57 22.82,32.2 c 16.07,22.68 7.1,48.96 -18.38,53.91 l -35.54,6.89 c -28.07,5.45 -60.2,-3.11 -85.31,-22.72 l -48.9,-38.21 165.31,-32.07" /><path
         id="path664"
         style="fill:#485054;fill-opacity:1;fill-rule:nonzero;stroke:none"
         d="m 1093.52,1634.95 185.29,-259.15 374.25,223.98 -211.23,238.09 -348.31,-202.92" /><path
         id="path666"
         style="fill:none;stroke:#aa5a5a;stroke-width:10;stroke-linecap:butt;stroke-linejoin:miter;stroke-miterlimit:10;stroke-dasharray:none;stroke-opacity:1"
         d="m 1221.6,1709.01 216.21,-244.63" /><path
         id="path668"
         style="fill:#577682;fill-opacity:1;fill-rule:nonzero;stroke:none"
         d="m 850.82,1523.26 446.37,-568.498 46.83,44.84 c 15.23,14.668 27.22,31.058 35.91,48.578 18.56,37.23 22.07,79.62 9.03,121.18 l -5.84,18.6 c -5.73,18.25 -8.79,36.55 -9.33,54.68 -0.47,15.61 0.84,30.98 4.2,45.97 6.96,32.53 22.58,63.35 46.39,90.22 l -250.8,319.43 -212.662,-116.42 -110.098,-58.58" /><path
         id="path670"
         style="fill:none;stroke:#ffffff;stroke-width:10;stroke-linecap:butt;stroke-linejoin:miter;stroke-miterlimit:10;stroke-dasharray:none;stroke-opacity:1"
         d="m 1313.42,1454.1 88.18,-112.3" /><path
         id="path672"
         style="fill:none;stroke:#ffffff;stroke-width:10;stroke-linecap:butt;stroke-linejoin:miter;stroke-miterlimit:10;stroke-dasharray:none;stroke-opacity:1"
         d="m 1291.1,1402.03 88.17,-112.3" /><path
         id="path674"
         style="fill:none;stroke:#ffffff;stroke-width:10;stroke-linecap:butt;stroke-linejoin:miter;stroke-miterlimit:10;stroke-dasharray:none;stroke-opacity:1"
         d="m 1092.25,1497.35 c -9.02,-4.29 -11.45,-13.96 -5.44,-21.61 6.01,-7.66 18.19,-10.39 27.2,-6.11 9.01,4.27 11.45,13.95 5.44,21.61 -6.01,7.65 -18.19,10.39 -27.2,6.11 z" /><path
         id="path676"
         style="fill:none;stroke:#ffffff;stroke-width:10;stroke-linecap:butt;stroke-linejoin:miter;stroke-miterlimit:10;stroke-dasharray:none;stroke-opacity:1"
         d="m 1145.5,1429.53 c -9.01,-4.29 -11.45,-13.97 -5.44,-21.61 6.02,-7.66 18.19,-10.39 27.2,-6.12 9.02,4.28 11.45,13.96 5.44,21.61 -6.01,7.66 -18.19,10.4 -27.2,6.12 z" /><path
         id="path678"
         style="fill:#ffffff;fill-opacity:1;fill-rule:nonzero;stroke:none"
         d="m 850.82,1523.26 446.37,-568.498 46.83,44.84 c 15.23,14.668 27.22,31.058 35.91,48.578 L 960.918,1581.84 850.82,1523.26" /><path
         id="path680"
         style="fill:none;stroke:#aa5a5a;stroke-width:10;stroke-linecap:butt;stroke-linejoin:miter;stroke-miterlimit:10;stroke-dasharray:none;stroke-opacity:1"
         d="m 1188.04,1193.18 -280.7,357.5" /><path
         id="path682"
         style="fill:#ffffff;fill-opacity:1;fill-rule:nonzero;stroke:none"
         d="m 1046.68,1273.82 250.51,-319.058 46.83,44.84 c 15.23,14.668 27.22,31.058 35.91,48.578 18.56,37.23 22.07,79.62 9.03,121.18 l -5.84,18.6 c -5.73,18.25 -8.79,36.55 -9.33,54.68 -97.51,53.79 -221.31,67.64 -327.11,31.18" /><path
         id="path684"
         style="fill:#577682;fill-opacity:1;fill-rule:nonzero;stroke:none"
         d="m 1424.38,1378.83 38.33,9.42 c 26.99,6.62 37.41,32.36 21.38,52.78 l -22.36,28.48 c -17.65,22.48 -47.55,37.04 -79.37,38.64 l -61.97,3.14 103.99,-132.46" /><path
         id="path686"
         style="fill:#90bdcb;fill-opacity:1;fill-rule:nonzero;stroke:none"
         d="m 2214.1,2818.47 c 0,0 -108.8,-776.67 -113.08,-927.1 -2.4,-84.27 -517.81,-475.99 -517.81,-475.99 l -349.19,332.34 550.85,327.67 72.99,654.36 356.24,88.72" /><path
         id="path688"
         style="fill:#90bdcb;fill-opacity:1;fill-rule:nonzero;stroke:none"
         d="m 2420.91,2889.25 c 0,0 236.53,-821.86 247.11,-920.17 10.59,-98.31 -153.71,-722.53 -153.71,-722.53 l -432.42,70.38 212.99,675.13 -180.14,866.17 306.17,31.02" /><path
         id="path690"
         style="fill:#90bdcb;fill-opacity:1;fill-rule:nonzero;stroke:none"
         d="m 2466.01,2774.1 25.69,-342.91 -657.5,-31.54 23.66,330.1 608.15,44.35" /><path
         id="path692"
         style="fill:#76abc0;fill-opacity:1;fill-rule:nonzero;stroke:none"
         d="m 2500.62,2608.72 -675.74,-174.6 32.98,295.63 606.13,8.91 36.63,-129.94" /><path
         id="path694"
         style="fill:none;stroke:#76abc0;stroke-width:20;stroke-linecap:butt;stroke-linejoin:miter;stroke-miterlimit:10;stroke-dasharray:none;stroke-opacity:1"
         d="M 2246.57,2692.81 2241.35,2488 c 0,0 -56.92,25.47 -66.49,81.17" /><path
         id="path696"
         style="fill:#76abc0;fill-opacity:1;fill-rule:nonzero;stroke:none"
         d="m 2206.4,2417.5 95.45,4.58 94.37,-429.9 -179.33,-697.22 -135,21.97 212.99,675.13 -88.48,425.44" /><path
         id="path698"
         style="fill:none;stroke:#76abc0;stroke-width:20;stroke-linecap:butt;stroke-linejoin:miter;stroke-miterlimit:10;stroke-dasharray:none;stroke-opacity:1"
         d="m 1913.29,2546.19 -56.21,-545.63 -72.69,3.14 28.65,-64.97 -53.26,2.26 -467.11,-249.08" /><path
         id="path700"
         style="fill:none;stroke:#76abc0;stroke-width:20;stroke-linecap:butt;stroke-linejoin:miter;stroke-miterlimit:10;stroke-dasharray:none;stroke-opacity:1"
         d="m 2301.85,2422.08 94.37,-429.9 -179.33,-697.22" /><path
         id="path702"
         style="fill:#bd3740;fill-opacity:1;fill-rule:nonzero;stroke:none"
         d="m 2534.44,2657.88 -752.76,-111.65 -52.73,654.57 79.52,63 10.34,218.89 3.18,67.98 92.65,20.07 286.07,62.06 81.25,17.59 132.51,-205.54 119.97,-786.97" /><path
         id="path704"
         style="fill:#7f1f26;fill-opacity:1;fill-rule:nonzero;stroke:none"
         d="m 1854.22,3272.47 33.6,-710.5 -106.14,-15.74 -52.73,654.57 125.27,71.67" /><path
         id="path706"
         style="fill:none;stroke:#f5efe0;stroke-width:40;stroke-linecap:butt;stroke-linejoin:miter;stroke-miterlimit:10;stroke-dasharray:none;stroke-opacity:1"
         d="m 1736.28,3109.79 711.31,117.8" /><path
         id="path708"
         style="fill:none;stroke:#f5efe0;stroke-width:40;stroke-linecap:butt;stroke-linejoin:miter;stroke-miterlimit:10;stroke-dasharray:none;stroke-opacity:1"
         d="m 1752.43,3012.28 711.31,117.8" /><path
         id="path710"
         style="fill:#d97f6a;fill-opacity:1;fill-rule:nonzero;stroke:none"
         d="m 1894.71,3581.31 -663.66,-52.24 15.81,-397.14 673.3,55.33 -25.45,394.05" /><path
         id="path712"
         style="fill:#bd3740;fill-opacity:1;fill-rule:nonzero;stroke:none"
         d="m 2015.15,3200.8 -441.93,-66.6 -90.34,-9.28 -62.33,421.24 68.43,5.31 433.53,33.59 92.64,-384.26" /><path
         id="path714"
         style="fill:#f5efe0;fill-opacity:1;fill-rule:nonzero;stroke:none"
         d="m 1573.22,3134.2 -90.34,-9.28 -62.33,421.24 68.43,5.31 84.24,-417.27" /><path
         id="path716"
         style="fill:#f5efe0;fill-opacity:1;fill-rule:nonzero;stroke:none"
         d="m 2220.78,3544.04 c 0,-113.6 -92.03,-205.63 -205.63,-205.63 -61.47,0 -104.88,26.32 -134.73,68.65 -23.76,33.7 -35.14,74.6 -35.03,115.84 l 1.7,56.12 353.62,53.78 c 12.82,-26.88 20.07,-56.93 20.07,-88.76" /><path
         id="path718"
         style="fill:#865082;fill-opacity:1;fill-rule:nonzero;stroke:none"
         d="m 2592.15,3441.95 c -7.52,75.32 -53.19,275.68 -324.4,331.98 -14.69,3.05 -30.03,-0.48 -41.76,-9.82 l -59.93,-47.74 c -4.83,-3.85 -3.89,-11.43 1.79,-13.84 54.49,-23.19 254.81,-104.07 346.12,-283.67 10.33,-20.3 35.26,-28.26 55.58,-17.96 v 0 c 15.29,7.74 24.3,24 22.6,41.05" /><path
         id="path720"
         style="fill:#d97f6a;fill-opacity:1;fill-rule:nonzero;stroke:none"
         d="m 1895.17,3556.93 c -0.27,-20.2 4.31,-39.2 12.66,-55.77 24.65,-48.76 81.37,-77.59 138.89,-61.96 46.47,12.66 80.01,51.32 87.02,97.66 0.27,2.02 0.53,4.18 0.67,6.2 l 0.41,4.58 c 0.26,3.36 0.4,6.73 0.26,10.1 l -3.1,143.33 -235.6,-68.43 -1.21,-75.71" /><path
         id="path722"
         style="fill:#cb6045;fill-opacity:1;fill-rule:nonzero;stroke:none"
         d="m 1895.17,3556.93 c -0.27,-20.2 4.31,-39.2 12.66,-55.77 48.36,-20.07 145.62,-44.59 225.91,35.7 0.13,0.13 0.13,0.13 0.27,0.27 l 0.4,5.93 0.41,4.58 c 0.26,3.36 0.4,6.73 0.26,10.1 l -3.1,143.33 -236.82,-27.55 0.01,-116.59" /><path
         id="path724"
         style="fill:#2f1b12;fill-opacity:1;fill-rule:nonzero;stroke:none"
         d="m 1781.7,3691.9 c -126.55,64.8 -158.08,268.65 -107.76,374.12 63.67,133.45 308.18,218.83 499.02,28.52 L 1781.7,3691.9" /><path
         id="path726"
         style="fill:#d97f6a;fill-opacity:1;fill-rule:nonzero;stroke:none"
         d="m 1753.05,3988.54 17.78,-46.07 5.8,-14.96 18.18,-47.42 19,-49.3 51.18,-132.68 c 27.62,-71.67 90.39,-123.8 165.83,-137.95 15.9,-2.96 31.52,-4.44 46.88,-4.44 157.07,0 280.87,149.39 239.78,309.56 -7.55,29.63 -17.79,59.81 -31.25,90.25 -29.77,66.95 -80.56,121.65 -141.58,157.61 -6.87,4.04 -13.88,7.95 -21.02,11.45 -27.74,14.01 -57.38,24.25 -87.69,30.31 h -0.41 l -18.72,3.23 -2.02,0.28 c -9.3,1.21 -18.86,2.15 -28.29,2.55 -22.63,1.22 -45.66,0.14 -68.56,-3.37 l -72.88,-10.91 c -74.09,-11.18 -118.95,-88.1 -92.01,-158.14" /><path
         id="path728"
         style="fill:#2f1b12;fill-opacity:1;fill-rule:nonzero;stroke:none"
         d="m 1867.56,3774.11 c 112.13,32.06 120.64,151.63 64.86,274.95 0,0 61.68,88.01 156.81,90.54 0,0 -187.56,96.91 -331.79,-2.4 -144.23,-99.3 110.12,-363.09 110.12,-363.09" /><path
         id="path730"
         style="fill:#d97f6a;fill-opacity:1;fill-rule:nonzero;stroke:none"
         d="m 1693.36,3756.7 c 0,-66.01 53.51,-119.54 119.53,-119.54 66.01,0 119.53,53.53 119.53,119.54 0,66.02 -53.52,119.53 -119.53,119.53 -66.02,0 -119.53,-53.51 -119.53,-119.53" /><path
         id="path732"
         style="fill:#040606;fill-opacity:1;fill-rule:nonzero;stroke:none"
         d="m 2217.97,3907.39 c 5.44,-25.75 23.39,-43.77 40.09,-40.23 16.7,3.53 25.83,27.26 20.39,53.01 -5.44,25.75 -23.39,43.76 -40.09,40.23 -16.7,-3.53 -25.83,-27.26 -20.39,-53.01" /><path
         id="path734"
         style="fill:#d97f6a;fill-opacity:1;fill-rule:nonzero;stroke:none"
         d="m 2205.9,3925.74 c 25.2,-60.64 66.85,-73.13 95.77,-73.55 18.57,-0.27 33.83,-14.63 35.32,-33.15 v 0 c 1.96,-24.42 -10.64,-47.71 -32.16,-59.41 l -76.15,-41.43 c -42.71,-14.28 -88.42,11.31 -98.6,55.17 l -34.48,148.68 110.3,3.69" /><path
         id="path736"
         style="fill:#040606;fill-opacity:1;fill-rule:nonzero;stroke:none"
         d="m 2058.99,3838.63 c 5.44,-25.74 23.39,-43.76 40.09,-40.23 16.7,3.53 25.83,27.27 20.38,53.01 -5.43,25.75 -23.38,43.76 -40.08,40.23 -16.71,-3.52 -25.83,-27.25 -20.39,-53.01" /><path
         id="path738"
         style="fill:none;stroke:#cb6045;stroke-width:10;stroke-linecap:butt;stroke-linejoin:miter;stroke-miterlimit:10;stroke-dasharray:none;stroke-opacity:1"
         d="m 2205.9,3925.74 c 25.2,-60.64 66.85,-73.13 95.77,-73.55 18.57,-0.27 33.83,-14.63 35.32,-33.15 v 0 c 1.96,-24.42 -10.64,-47.71 -32.16,-59.41 l -50.35,-27.39" /><path
         id="path740"
         style="fill:#2f1b12;fill-opacity:1;fill-rule:nonzero;stroke:none"
         d="m 2054.23,3967.61 c -62.63,-26.12 -79.84,6.03 -34.92,33.25 48.32,29.27 112.83,-0.75 34.92,-33.25" /><path
         id="path742"
         style="fill:#2f1b12;fill-opacity:1;fill-rule:nonzero;stroke:none"
         d="m 2214.91,4018.38 c -49.44,-2.13 -42.38,30.73 -2.46,39.46 42.94,9.39 63.98,-36.83 2.46,-39.46" /><path
         id="path744"
         style="fill:#403c3d;fill-opacity:1;fill-rule:nonzero;stroke:none"
         d="m 1979.69,3699.78 c 3.59,-6.97 7.27,-13.64 11.15,-19.82 10.15,-16.64 20.8,-30.4 31.71,-41.48 60.03,-60.72 128.22,-40.06 164.17,15.25 13.76,21.35 22.78,47.84 24.8,76.75 0,0 -9.35,0.67 -24.75,0.85 -43.46,0.74 -135.37,-1.91 -207.08,-31.55" /><path
         id="path746"
         style="fill:#ffffff;fill-opacity:1;fill-rule:nonzero;stroke:none"
         d="m 1979.69,3699.78 c 3.59,-6.97 7.27,-13.64 11.15,-19.82 l 159.55,12.34 c 11.36,0.87 21.39,7.74 26.31,18.01 l 10.07,21.02 c -43.46,0.74 -135.37,-1.91 -207.08,-31.55" /><path
         id="path748"
         style="fill:#d33e45;fill-opacity:1;fill-rule:nonzero;stroke:none"
         d="m 2022.55,3638.48 c 60.03,-60.72 128.22,-40.06 164.17,15.25 -44.01,19.38 -99.81,23.62 -164.17,-15.25" /><path
         id="path750"
         style="fill:#865082;fill-opacity:1;fill-rule:nonzero;stroke:none"
         d="m 1700.17,2645.2 59.59,198.96 -149.71,37.75 z" /><path
         id="path752"
         style="fill:#d97f6a;fill-opacity:1;fill-rule:nonzero;stroke:none"
         d="m 1581.08,2872.55 186.93,-106.31 115.5,62.98 19.39,-5.25 c 8.79,-2.38 18.15,-1.27 26.13,3.08 v 0 c 21.44,11.68 24.83,41.06 6.64,57.33 l -105.44,94.27 58.79,14.02 c 15.45,3.68 25.45,18.66 22.92,34.35 v 0 c -2.25,13.95 -13.83,24.51 -27.92,25.45 l -81.23,5.48 c -39.92,2.69 -78.91,-12.88 -106,-42.34 l -8.73,-9.5 -31.57,10.13 -75.41,-143.69" /><path
         id="path754"
         style="fill:#d97f6a;fill-opacity:1;fill-rule:nonzero;stroke:none"
         d="m 1581.08,2872.55 c -114.35,64.87 -208.88,123.44 -286.46,191.36 -134.18,117.48 -161.21,315.9 -63.57,465.13 v 0 l 195.79,-90.88 261.22,-432.05 -106.98,-133.56" /><path
         id="path756"
         style="fill:#181817;fill-opacity:1;fill-rule:nonzero;stroke:none"
         d="m 1672.03,2908.18 c 0,-42.53 -34.48,-77.01 -77.01,-77.01 -42.53,0 -77.01,34.48 -77.01,77.01 0,42.53 34.48,77 77.01,77 42.53,0 77.01,-34.47 77.01,-77" /><path
         id="path758"
         style="fill:#181817;fill-opacity:1;fill-rule:nonzero;stroke:none"
         d="m 1639.98,2928.74 49.97,79.42 -34.93,57.77 -85.72,-106.43 70.68,-30.76" /><path
         id="path760"
         style="fill:none;stroke:#181817;stroke-width:40;stroke-linecap:butt;stroke-linejoin:miter;stroke-miterlimit:10;stroke-dasharray:none;stroke-opacity:1"
         d="m 1887.24,3240.4 c 0,0 11.42,-126.26 -66.62,-261.22" /><path
         id="path762"
         style="fill:#865082;fill-opacity:1;fill-rule:nonzero;stroke:none"
         d="m 1929.83,3127.76 c 37.81,67.98 103.28,260.69 -83.88,460.93 -10.14,10.84 -24.64,16.6 -39.46,15.75 l -46.53,-1.67 c -17.53,-0.63 -31.32,-15.19 -31,-32.73 v 0 c 37.87,-38.58 120.06,-187.88 106.03,-446.03 -1.2,-22.02 36.93,-29.64 48.32,-31.3 18.55,-2.71 37.4,18.67 46.52,35.05" /><path
         id="path764"
         style="fill:#d97f6a;fill-opacity:1;fill-rule:nonzero;stroke:none"
         d="m 3064.91,3708.68 c 0,0 -2.75,131.09 -49.31,236.12 l 229.72,68.85 -12.12,-275.98 -168.29,-28.99" /><path
         id="path766"
         style="fill:#d97f6a;fill-opacity:1;fill-rule:nonzero;stroke:none"
         d="m 3061.3,3758.37 c -36.56,106.28 -104.81,159.59 -104.81,159.59 l -39.99,100.47 c -5.36,13.48 0.68,28.8 13.8,34.98 v 0 c 12.27,5.79 26.94,1.74 34.51,-9.53 l 29.81,-44.46 108.16,-80.84 -41.48,-160.21" /><path
         id="path768"
         style="fill:#d97f6a;fill-opacity:1;fill-rule:nonzero;stroke:none"
         d="m 3035.9,3889.1 -29.33,235.48 46.82,95.15 c 7.16,14.57 25.47,19.54 39.02,10.62 v 0 c 10.31,-6.79 14.69,-19.71 10.63,-31.37 l -25,-71.92 57.33,-205.81 -99.47,-32.15" /><path
         id="path770"
         style="fill:#d97f6a;fill-opacity:1;fill-rule:nonzero;stroke:none"
         d="m 3116.74,3881.3 -29.33,235.49 46.82,95.15 c 7.17,14.56 25.47,19.54 39.02,10.61 v 0 c 10.31,-6.78 14.7,-19.71 10.64,-31.37 l -25.01,-71.91 57.34,-205.82 -99.48,-32.15" /><path
         id="path772"
         style="fill:#d97f6a;fill-opacity:1;fill-rule:nonzero;stroke:none"
         d="m 3136.71,3841.12 2.64,237.29 59.21,87.98 c 9.06,13.46 27.87,15.93 40.1,5.26 v 0 c 9.3,-8.12 11.9,-21.51 6.31,-32.52 l -34.47,-67.89 14.87,-108.09 c 7.95,-57.87 -31.17,-111.72 -88.66,-122.03 v 0" /><path
         id="path774"
         style="fill:#d97f6a;fill-opacity:1;fill-rule:nonzero;stroke:none"
         d="m 3103.2,3800.44 64.71,228.3 80.19,69.4 c 12.27,10.63 31.07,8.08 40.08,-5.42 v 0 c 6.85,-10.27 5.84,-23.88 -2.43,-33.04 l -51.05,-56.49 -27.36,-211.89 -104.14,9.14" /><path
         id="path776"
         style="fill:none;stroke:#cb6045;stroke-width:20;stroke-linecap:butt;stroke-linejoin:miter;stroke-miterlimit:10;stroke-dasharray:none;stroke-opacity:1"
         d="m 3024.95,3976.98 c 149.52,-12.24 134.76,-140.85 134.76,-140.85" /><path
         id="path778"
         style="fill:#7f1f26;fill-opacity:1;fill-rule:nonzero;stroke:none"
         d="m 2588.64,3100.08 -204.55,66.57" /></g></g></svg>