<?xml version="1.0" encoding="UTF-8"?>
<svg xmlns="http://www.w3.org/2000/svg" xmlns:xlink="http://www.w3.org/1999/xlink" width="22px" height="32px" viewBox="0 0 22 32" version="1.1">
<g id="surface1">
<path style=" stroke:none;fill-rule:evenodd;fill:rgb(13.725491%,12.156863%,12.54902%);fill-opacity:1;" d="M 4.183594 1.519531 L 4.175781 3.917969 L 5.148438 3.589844 L 5.152344 1.148438 L 4.183594 1.519531 "/>
<path style=" stroke:none;fill-rule:evenodd;fill:rgb(13.725491%,12.156863%,12.54902%);fill-opacity:1;" d="M 3.039062 1.941406 L 3.035156 4.320312 C 3.40625 4.328125 3.640625 4.0625 3.921875 4.039062 L 3.921875 1.625 L 3.039062 1.941406 "/>
<path style=" stroke:none;fill-rule:evenodd;fill:rgb(13.725491%,12.156863%,12.54902%);fill-opacity:1;" d="M 1.925781 2.363281 L 1.917969 4.796875 L 2.804688 4.433594 L 2.808594 2.015625 L 1.925781 2.363281 "/>
<path style=" stroke:none;fill-rule:evenodd;fill:rgb(13.725491%,12.156863%,12.54902%);fill-opacity:1;" d="M 4.183594 4.054688 L 4.175781 6.539062 L 5.148438 6.261719 L 5.152344 3.707031 L 4.183594 4.054688 "/>
<path style=" stroke:none;fill-rule:evenodd;fill:rgb(13.725491%,12.156863%,12.54902%);fill-opacity:1;" d="M 3.039062 4.476562 L 3.03125 6.875 L 3.921875 6.628906 L 3.921875 4.15625 L 3.039062 4.476562 "/>
<path style=" stroke:none;fill-rule:evenodd;fill:rgb(13.725491%,12.156863%,12.54902%);fill-opacity:1;" d="M 1.925781 4.871094 L 1.917969 7.242188 L 2.804688 6.964844 L 2.808594 4.550781 L 1.925781 4.871094 "/>
<path style=" stroke:none;fill-rule:evenodd;fill:rgb(13.725491%,12.156863%,12.54902%);fill-opacity:1;" d="M 4.183594 6.671875 L 4.175781 9.097656 L 5.148438 8.878906 L 5.152344 6.382812 L 4.183594 6.671875 "/>
<path style=" stroke:none;fill-rule:evenodd;fill:rgb(13.725491%,12.156863%,12.54902%);fill-opacity:1;" d="M 3.039062 7.039062 L 3.03125 9.378906 L 3.921875 9.160156 L 3.921875 6.777344 L 3.039062 7.039062 "/>
<path style=" stroke:none;fill-rule:evenodd;fill:rgb(13.725491%,12.156863%,12.54902%);fill-opacity:1;" d="M 1.921875 7.371094 L 1.917969 9.660156 L 2.804688 9.441406 L 2.808594 7.082031 L 1.921875 7.371094 "/>
<path style=" stroke:none;fill-rule:evenodd;fill:rgb(13.725491%,12.156863%,12.54902%);fill-opacity:1;" d="M 4.183594 9.234375 L 4.175781 11.65625 L 5.148438 11.46875 L 5.152344 9 L 4.183594 9.234375 "/>
<path style=" stroke:none;fill-rule:evenodd;fill:rgb(13.725491%,12.156863%,12.54902%);fill-opacity:1;" d="M 3.039062 9.515625 L 3.03125 11.878906 L 3.921875 11.695312 L 3.921875 9.3125 L 3.039062 9.515625 "/>
<path style=" stroke:none;fill-rule:evenodd;fill:rgb(13.725491%,12.156863%,12.54902%);fill-opacity:1;" d="M 1.921875 9.792969 L 1.917969 12.136719 L 2.804688 11.949219 L 2.808594 9.566406 L 1.921875 9.792969 "/>
<path style=" stroke:none;fill-rule:evenodd;fill:rgb(13.725491%,12.156863%,12.54902%);fill-opacity:1;" d="M 4.179688 11.792969 L 4.179688 14.21875 L 5.148438 14.085938 L 5.152344 11.59375 L 4.179688 11.792969 "/>
<path style=" stroke:none;fill-rule:evenodd;fill:rgb(13.725491%,12.156863%,12.54902%);fill-opacity:1;" d="M 9.324219 14.058594 C 9.597656 14.203125 9.910156 14.199219 10.316406 14.203125 L 10.695312 14.679688 C 10.394531 14.820312 10.257812 14.773438 10.007812 14.648438 C 9.855469 14.574219 9.492188 14.40625 9.324219 14.367188 Z M 8.179688 16.085938 L 8.203125 16.105469 L 11.410156 14.425781 L 11.410156 14.367188 C 10.839844 14.367188 9.808594 13.917969 9.238281 13.917969 C 9.066406 13.917969 8.382812 15.855469 8.179688 16.085938 "/>
<path style=" stroke:none;fill-rule:evenodd;fill:rgb(13.725491%,12.156863%,12.54902%);fill-opacity:1;" d="M 3.035156 12.015625 L 3.03125 14.378906 L 3.890625 14.253906 L 3.894531 11.847656 L 3.035156 12.015625 "/>
<path style=" stroke:none;fill-rule:evenodd;fill:rgb(13.725491%,12.156863%,12.54902%);fill-opacity:1;" d="M 1.921875 12.273438 L 1.917969 14.523438 L 2.804688 14.425781 L 2.808594 12.070312 L 1.921875 12.273438 "/>
<path style=" stroke:none;fill-rule:evenodd;fill:rgb(13.725491%,12.156863%,12.54902%);fill-opacity:1;" d="M 10.695312 15.101562 C 10.875 15.007812 11.007812 14.902344 11.179688 14.902344 L 11.382812 14.902344 C 11.410156 15.03125 11.53125 15.167969 11.589844 15.289062 C 11.664062 15.4375 11.695312 15.628906 11.753906 15.746094 C 11.578125 15.746094 11.472656 15.785156 11.34375 15.78125 C 11.148438 15.769531 11.042969 15.9375 11.011719 15.777344 C 10.957031 15.503906 10.828125 15.296875 10.695312 15.101562 Z M 15.753906 15.410156 C 15.835938 15.410156 15.808594 15.402344 15.839844 15.351562 C 15.445312 15.351562 14.203125 14.992188 13.726562 14.902344 C 13.261719 14.8125 12.03125 14.453125 11.636719 14.453125 C 11.621094 14.453125 8.410156 16.097656 8.292969 16.199219 L 15.101562 15.472656 L 15.097656 15.433594 L 13.667969 15.5625 L 13.550781 14.933594 L 15.578125 15.339844 L 15.582031 15.410156 L 15.753906 15.410156 "/>
<path style=" stroke:none;fill-rule:evenodd;fill:rgb(13.725491%,12.156863%,12.54902%);fill-opacity:1;" d="M 7.496094 14.324219 L 7.5 14.902344 C 7.386719 14.886719 7.167969 14.480469 7.09375 14.355469 Z M 7.808594 14.425781 L 7.808594 14.929688 C 7.808594 15.027344 7.847656 15.078125 7.894531 15.128906 C 7.960938 14.847656 7.980469 14.867188 7.980469 14.480469 C 7.976562 13.957031 8.117188 14.324219 8.4375 14.171875 C 8.4375 14.527344 8.480469 14.90625 8.378906 15.101562 C 8.296875 15.261719 8.074219 15.664062 8.035156 15.832031 L 7.960938 15.824219 L 7.578125 15.210938 C 7.597656 15.171875 7.609375 15.164062 7.609375 15.101562 L 7.609375 14.285156 L 7.835938 14.285156 C 7.820312 14.347656 7.808594 14.347656 7.808594 14.425781 Z M 9.015625 13.949219 L 6.867188 14.257812 L 8.023438 16.191406 Z M 9.015625 13.949219 "/>
<path style=" stroke:none;fill-rule:evenodd;fill:rgb(13.725491%,12.156863%,12.54902%);fill-opacity:1;" d="M 5.4375 15.023438 L 5.433594 15.382812 L 5.125 15.285156 L 5.125 15.113281 Z M 6.664062 14.679688 C 6.664062 14.625 6.65625 14.628906 6.636719 14.59375 C 6.8125 14.613281 7.28125 15.574219 7.4375 15.746094 L 7.402344 15.914062 L 6.667969 15.679688 Z M 7.839844 16.164062 L 6.746094 14.316406 L 4.796875 15.242188 Z M 7.839844 16.164062 "/>
<path style=" stroke:none;fill-rule:evenodd;fill:rgb(13.725491%,12.156863%,12.54902%);fill-opacity:1;" d="M 2.804688 16.691406 L 2.8125 16.324219 L 3.234375 16.140625 L 3.234375 16.640625 Z M 3.890625 16.550781 L 3.898438 15.761719 L 4.292969 15.605469 L 4.289062 16.496094 Z M 5.1875 15.554688 C 5.257812 15.589844 5.433594 15.613281 5.433594 15.71875 L 5.433594 16.367188 L 5.378906 16.367188 L 5.378906 16.449219 L 5.34375 16.367188 L 5.121094 16.417969 L 5.121094 15.664062 Z M 6.949219 16.039062 L 4.660156 15.335938 L 1.539062 16.914062 C 2.546875 16.847656 3.640625 16.644531 4.636719 16.59375 C 5.136719 16.566406 5.6875 16.460938 6.179688 16.421875 C 6.417969 16.40625 7.613281 16.332031 7.695312 16.226562 L 7.324219 16.132812 L 7.320312 16.199219 L 6.519531 16.296875 L 6.519531 15.925781 L 6.949219 16.039062 "/>
<path style=" stroke:none;fill-rule:evenodd;fill:rgb(13.725491%,12.156863%,12.54902%);fill-opacity:1;" d="M 6.550781 16.957031 L 6.664062 16.816406 L 6.40625 16.816406 C 6.421875 16.972656 6.433594 16.902344 6.550781 16.957031 "/>
<path style=" stroke:none;fill-rule:evenodd;fill:rgb(13.725491%,12.156863%,12.54902%);fill-opacity:1;" d="M 7.414062 17.320312 L 7.550781 17.324219 C 7.558594 17.230469 7.605469 17.183594 7.492188 17.183594 L 7.378906 17.183594 L 7.414062 17.320312 "/>
<path style=" stroke:none;fill-rule:evenodd;fill:rgb(13.725491%,12.156863%,12.54902%);fill-opacity:1;" d="M 7.835938 17.210938 C 7.839844 17.207031 7.847656 17.222656 7.847656 17.222656 C 7.847656 17.222656 7.832031 17.214844 7.835938 17.210938 Z M 7.835938 17.210938 L 7.695312 17.210938 L 7.695312 17.378906 C 7.769531 17.398438 7.746094 17.40625 7.808594 17.40625 C 7.875 17.40625 7.839844 17.398438 7.933594 17.375 L 7.863281 17.234375 L 7.984375 17.210938 L 7.949219 17.070312 L 7.835938 17.070312 L 7.835938 17.210938 "/>
<path style=" stroke:none;fill-rule:evenodd;fill:rgb(13.725491%,12.156863%,12.54902%);fill-opacity:1;" d="M 8.238281 17.40625 C 8.308594 17.40625 8.347656 17.300781 8.351562 17.210938 C 8.285156 17.195312 8.285156 17.183594 8.207031 17.183594 L 8.09375 17.183594 C 8.101562 17.257812 8.199219 17.40625 8.238281 17.40625 "/>
<path style=" stroke:none;fill-rule:evenodd;fill:rgb(13.725491%,12.156863%,12.54902%);fill-opacity:1;" d="M 8.410156 17.15625 L 8.410156 17.402344 L 8.464844 17.4375 C 8.574219 17.378906 8.539062 17.394531 8.609375 17.296875 L 8.488281 17.238281 L 8.523438 17.15625 C 8.464844 17.035156 8.542969 17.050781 8.410156 17.015625 L 8.410156 17.15625 "/>
<path style=" stroke:none;fill-rule:evenodd;fill:rgb(13.725491%,12.156863%,12.54902%);fill-opacity:1;" d="M 8.660156 17.433594 L 8.769531 17.457031 L 8.839844 17.34375 L 8.699219 17.324219 L 8.660156 17.433594 "/>
<path style=" stroke:none;fill-rule:evenodd;fill:rgb(13.725491%,12.156863%,12.54902%);fill-opacity:1;" d="M 8.867188 17.660156 L 8.835938 17.519531 L 8.722656 17.519531 C 8.726562 17.660156 8.722656 17.660156 8.867188 17.660156 "/>
<path style=" stroke:none;fill-rule:evenodd;fill:rgb(13.725491%,12.156863%,12.54902%);fill-opacity:1;" d="M 8.953125 17.605469 C 8.953125 17.660156 9.003906 17.71875 9.035156 17.71875 C 9.132812 17.71875 9.121094 17.667969 9.121094 17.578125 C 9.046875 17.558594 9.070312 17.546875 9.007812 17.546875 C 8.984375 17.546875 8.953125 17.578125 8.953125 17.605469 "/>
<path style=" stroke:none;fill-rule:evenodd;fill:rgb(13.725491%,12.156863%,12.54902%);fill-opacity:1;" d="M 7.011719 19.011719 C 7.085938 19.03125 7.0625 19.039062 7.121094 19.039062 C 7.167969 19.039062 7.207031 19.023438 7.207031 18.984375 C 7.207031 18.917969 7.160156 18.871094 7.09375 18.871094 L 6.976562 18.871094 L 7.011719 19.011719 "/>
<path style=" stroke:none;fill-rule:evenodd;fill:rgb(13.725491%,12.156863%,12.54902%);fill-opacity:1;" d="M 7.035156 19.210938 C 7.035156 19.273438 7.082031 19.320312 7.152344 19.320312 L 7.179688 19.320312 C 7.246094 19.320312 7.265625 19.300781 7.265625 19.238281 C 7.265625 19.171875 7.21875 19.125 7.152344 19.125 L 7.035156 19.125 L 7.035156 19.210938 "/>
<path style=" stroke:none;fill-rule:evenodd;fill:rgb(13.725491%,12.156863%,12.54902%);fill-opacity:1;" d="M 8.09375 19.714844 C 8.160156 19.714844 8.128906 19.707031 8.207031 19.6875 C 8.199219 19.5625 8.078125 19.542969 7.980469 19.519531 C 7.984375 19.59375 8.027344 19.714844 8.09375 19.714844 "/>
<path style=" stroke:none;fill-rule:evenodd;fill:rgb(13.725491%,12.156863%,12.54902%);fill-opacity:1;" d="M 8.457031 19.773438 L 8.578125 19.742188 C 8.554688 19.65625 8.511719 19.585938 8.394531 19.578125 L 8.457031 19.773438 "/>
<path style=" stroke:none;fill-rule:evenodd;fill:rgb(13.725491%,12.156863%,12.54902%);fill-opacity:1;" d="M 9.523438 20.277344 C 9.621094 20.253906 9.628906 20.253906 9.636719 20.140625 L 9.4375 20.082031 C 9.453125 20.25 9.484375 20.128906 9.523438 20.277344 "/>
<path style=" stroke:none;fill-rule:evenodd;fill:rgb(13.725491%,12.156863%,12.54902%);fill-opacity:1;" d="M 10.292969 20.53125 L 10.375 20.53125 L 10.410156 20.386719 L 10.292969 20.363281 L 10.292969 20.53125 "/>
<path style=" stroke:none;fill-rule:evenodd;fill:rgb(13.725491%,12.156863%,12.54902%);fill-opacity:1;" d="M 7.4375 31.3125 C 7.421875 31.28125 7.613281 30.757812 7.648438 30.59375 C 7.699219 30.371094 7.75 29.925781 7.75 29.679688 C 7.925781 29.796875 8.457031 30.066406 8.722656 30.074219 L 8.722656 31.199219 C 8.636719 31.21875 8.230469 31.222656 8.058594 31.25 C 7.890625 31.273438 7.847656 31.25 7.726562 31.257812 C 7.621094 31.265625 7.476562 31.332031 7.4375 31.3125 Z M 10.007812 30.410156 L 10.007812 30.242188 L 10.496094 30.25 L 11.066406 30.15625 C 11.066406 30.671875 11.199219 31.367188 11.410156 31.6875 L 9.78125 31.902344 C 9.777344 31.898438 9.90625 31.363281 9.925781 31.203125 C 9.960938 30.953125 10.007812 30.621094 10.007812 30.410156 Z M 15.667969 30.972656 C 15.632812 30.953125 15.636719 30.945312 15.582031 30.945312 L 14.496094 30.945312 C 14.386719 30.945312 14.488281 30.9375 14.410156 30.972656 L 14.410156 30.890625 C 14.613281 30.871094 14.878906 30.648438 14.953125 30.503906 L 15.296875 30.550781 C 15.429688 30.574219 16.300781 30.394531 16.382812 30.355469 C 16.367188 30.539062 15.785156 30.800781 15.667969 30.972656 Z M 14.898438 30.453125 C 14.832031 30.308594 14.890625 30.269531 15.011719 30.269531 L 15.867188 30.269531 L 15.867188 30.34375 Z M 12.324219 29.988281 L 12.808594 29.960938 L 13.640625 29.960938 C 13.640625 30.21875 13.898438 30.800781 14.066406 30.859375 C 14.042969 30.914062 13.992188 31.339844 13.984375 31.425781 C 13.953125 31.746094 13.960938 31.632812 13.585938 31.679688 C 13.394531 31.707031 12.554688 31.859375 12.453125 31.816406 L 12.496094 31.339844 C 12.515625 31.140625 12.386719 30.121094 12.324219 29.988281 Z M 12.4375 29.851562 L 12.4375 29.792969 C 12.699219 29.792969 13.15625 29.535156 13.332031 29.425781 L 13.46875 29.84375 Z M 5.121094 29.828125 C 5.242188 29.644531 5.355469 29.492188 5.476562 29.296875 C 5.640625 29.03125 5.632812 28.902344 5.75 28.664062 C 5.988281 28.824219 6.203125 29.148438 6.550781 29.230469 L 6.550781 29.785156 Z M 14.867188 29.21875 C 14.894531 28.988281 15.609375 28.863281 15.839844 28.863281 L 16.871094 28.863281 C 17.421875 28.863281 17.300781 28.996094 17.625 29.210938 L 17.441406 29.464844 L 16.527344 29.539062 L 15.898438 29.539062 C 15.636719 29.539062 15.445312 29.527344 15.296875 29.300781 L 15.925781 29.339844 L 16.074219 29.363281 L 16.898438 29.230469 C 16.835938 29.175781 16.394531 29.089844 16.269531 29.089844 L 15.75 29.074219 Z M 18.070312 28.949219 C 18.027344 28.789062 17.730469 28.640625 17.527344 28.636719 L 17.527344 28.5625 L 18.527344 28.496094 C 18.457031 28.597656 18.203125 28.9375 18.070312 28.949219 Z M 14.558594 28.5625 L 14.726562 28.171875 L 14.953125 28.101562 L 14.949219 28.449219 Z M 14.953125 22.953125 L 15.125 22.953125 L 15.132812 28.03125 L 15.238281 27.933594 C 15.351562 28.007812 15.390625 28.039062 15.476562 28.152344 C 15.621094 28.339844 15.535156 28.339844 15.609375 28.492188 L 15.527344 28.523438 C 15.960938 28.523438 17.230469 28.5 17.269531 28.820312 L 16.183594 28.695312 C 15.953125 28.664062 15.292969 28.792969 15.09375 28.832031 C 14.714844 28.90625 14.453125 28.992188 14.296875 29.285156 C 14.496094 29.65625 15.414062 29.761719 16.011719 29.761719 L 16.328125 29.761719 C 16.550781 29.761719 17.125 29.722656 17.289062 29.667969 C 17.503906 29.597656 17.871094 29.449219 17.871094 29.199219 C 17.871094 28.933594 17.519531 28.972656 17.496094 28.792969 L 17.726562 28.808594 C 17.917969 28.933594 17.953125 28.960938 18.105469 29.136719 C 18.28125 29.339844 18.1875 29.449219 18.183594 29.652344 C 18.085938 29.675781 17.988281 29.824219 17.84375 29.90625 C 17.71875 29.976562 17.578125 30.039062 17.417969 30.078125 C 17.046875 30.171875 16.816406 30.214844 16.410156 30.214844 L 16.011719 30.214844 C 15.597656 30.214844 15.125 30.160156 14.707031 30.0625 C 14.523438 30.015625 14.332031 29.929688 14.199219 29.832031 C 13.917969 29.621094 14.027344 29.636719 13.839844 29.425781 C 14 29.09375 13.910156 29.027344 14.285156 28.824219 C 14.515625 28.703125 14.792969 28.582031 15.125 28.582031 C 15.105469 28.546875 15.097656 28.550781 15.097656 28.496094 L 15.097656 28.019531 L 14.953125 28.019531 Z M 15.496094 28.519531 L 15.496094 28.492188 L 15.125 28.523438 L 15.125 28.558594 Z M 0.746094 27.566406 C 0.773438 27.339844 1.296875 27.257812 1.492188 27.257812 L 2.234375 27.257812 C 2.574219 27.257812 2.636719 27.320312 2.789062 27.550781 L 2.574219 27.746094 L 1.832031 27.792969 L 1.773438 27.808594 L 1.253906 27.773438 L 1.058594 27.578125 L 1.40625 27.625 L 1.636719 27.640625 L 2.210938 27.546875 L 2.207031 27.511719 C 1.933594 27.511719 1.757812 27.40625 1.484375 27.449219 C 1.238281 27.488281 0.929688 27.484375 0.746094 27.566406 Z M 3.632812 27.371094 C 3.726562 27.3125 3.996094 26.894531 4.035156 26.894531 C 4.140625 26.894531 4.53125 27.507812 4.664062 27.597656 C 4.644531 27.628906 4.636719 27.625 4.636719 27.679688 L 4.636719 27.820312 L 3.664062 27.820312 L 3.664062 27.457031 C 3.664062 27.347656 3.671875 27.445312 3.632812 27.371094 Z M 0.605469 27.625 C 0.605469 27.945312 3.207031 28.234375 3.207031 27.484375 C 3.207031 27.300781 2.96875 27.34375 2.945312 27.183594 L 3.148438 27.203125 C 3.339844 27.484375 3.464844 27.347656 3.464844 27.851562 C 3.328125 27.9375 3.414062 27.960938 3.214844 28.058594 C 3.121094 28.101562 2.988281 28.160156 2.894531 28.191406 C 2.613281 28.289062 2.417969 28.300781 2.121094 28.300781 L 1.664062 28.300781 C 1.40625 28.300781 0.976562 28.265625 0.726562 28.152344 C 0.390625 27.996094 0.261719 27.925781 0.261719 27.539062 C 0.53125 27.140625 0.976562 27.003906 1.546875 27.003906 L 2.0625 27.003906 C 2.230469 27.003906 2.753906 27.039062 2.777344 27.257812 C 2.355469 27.058594 0.605469 27.105469 0.605469 27.625 Z M 16.070312 26.554688 L 17.382812 26.554688 L 17.382812 28.441406 L 16.871094 28.441406 C 16.871094 27.753906 16.332031 27.042969 16.070312 26.554688 Z M 17.554688 26.527344 L 17.753906 26.527344 C 18.085938 26.746094 18.207031 26.972656 18.359375 27.367188 C 18.425781 27.542969 18.46875 27.699219 18.511719 27.921875 C 18.554688 28.164062 18.675781 28.414062 18.414062 28.414062 C 18.160156 28.414062 17.980469 28.429688 17.726562 28.441406 C 17.554688 28.449219 17.554688 28.511719 17.554688 28.300781 C 17.554688 28.179688 17.554688 28.054688 17.554688 27.933594 C 17.554688 27.742188 17.558594 26.53125 17.554688 26.527344 Z M 2.886719 27.089844 L 2.753906 26.949219 L 2.722656 26.585938 L 2.898438 26.441406 Z M 17.328125 26.273438 L 17.328125 26.441406 L 16.136719 26.449219 L 16.625 25.472656 L 17.355469 26.1875 C 17.335938 26.222656 17.328125 26.21875 17.328125 26.273438 Z M 19.671875 26.613281 L 18.285156 26.617188 L 18.527344 26.019531 L 20.097656 26.019531 C 19.960938 26.277344 19.917969 26.449219 19.671875 26.613281 Z M 2.921875 26.078125 C 2.941406 26.042969 2.949219 26.046875 2.949219 25.992188 L 2.949219 25.625 L 3.320312 25.625 C 3.25 25.730469 3.054688 26.0625 2.921875 26.078125 Z M 8.207031 24.472656 C 8.902344 24.472656 9.644531 24.167969 10.054688 23.871094 C 10.382812 23.632812 10.988281 22.890625 11.179688 22.53125 C 11.597656 22.53125 11.59375 22.320312 11.757812 22.316406 L 13.238281 25.738281 C 13.144531 25.800781 12.976562 26.039062 12.816406 26.167969 C 12.664062 26.285156 12.449219 26.398438 12.265625 26.46875 C 11.769531 26.648438 11.417969 26.695312 10.839844 26.695312 L 10.464844 26.695312 C 9.785156 26.695312 9.007812 26.492188 8.554688 26.15625 C 7.96875 25.71875 7.847656 25.214844 8.207031 24.472656 Z M 2.890625 25.035156 L 3.292969 25.542969 L 2.921875 25.542969 L 2.921875 25.121094 C 2.921875 25.011719 2.929688 25.109375 2.890625 25.035156 Z M 2.71875 25.035156 L 2.71875 25.542969 L 1.976562 25.542969 C 1.867188 25.542969 1.964844 25.535156 1.890625 25.570312 C 1.910156 25.355469 2.488281 25.167969 2.578125 24.839844 L 2.648438 24.847656 L 2.75 24.949219 C 2.730469 24.984375 2.71875 24.980469 2.71875 25.035156 Z M 17.667969 24.558594 L 17.667969 24.246094 L 19.011719 24.246094 C 19.167969 24.246094 19.589844 24.847656 19.6875 24.992188 C 19.921875 25.332031 19.996094 25.554688 20.183594 25.90625 L 18.554688 25.90625 C 18.527344 25.5625 17.667969 24.578125 17.667969 24.558594 Z M 19.097656 24.105469 L 17.667969 24.105469 L 17.667969 23.09375 C 17.96875 23.25 18.214844 23.433594 18.480469 23.5625 C 18.632812 23.636719 18.765625 23.691406 18.933594 23.734375 C 19.285156 23.824219 19.097656 23.753906 19.097656 24.105469 Z M 1.691406 25.597656 L 2.691406 25.597656 L 2.691406 26.46875 C 2.691406 26.605469 2.660156 26.761719 2.609375 26.925781 C 2.566406 27.050781 2.414062 26.921875 2.148438 26.921875 C 1.871094 26.921875 1.304688 26.875 1.089844 26.976562 L 1.089844 22.867188 L 2.160156 22.871094 L 2.292969 23.347656 C 2.085938 23.398438 1.570312 24.121094 1.460938 24.332031 C 1.351562 24.550781 1.25 24.734375 1.34375 25.011719 C 1.394531 25.167969 1.519531 25.597656 1.691406 25.597656 Z M 19.527344 22.785156 L 20.871094 22.894531 L 20.984375 22.894531 L 20.984375 23.066406 C 20.984375 23.164062 20.921875 23.6875 20.839844 23.722656 C 20.773438 23.753906 20.125 23.691406 20.015625 23.683594 C 18.898438 23.601562 19.527344 23.863281 19.527344 22.785156 Z M 0.777344 21.40625 L 1.003906 21.40625 L 1.003906 22.726562 L 0.777344 22.726562 Z M 1.347656 22.707031 C 1.359375 22.617188 1.667969 22.503906 1.800781 22.257812 L 2.035156 22.304688 L 2.035156 22.390625 C 2.035156 22.492188 2.085938 22.628906 2.121094 22.695312 Z M 4.773438 22.199219 L 4.984375 22 L 5.003906 22.023438 L 4.996094 21.867188 L 4.925781 21.800781 L 4.953125 21.683594 L 4.890625 21.601562 C 4.890625 20.835938 4.996094 20.464844 5.332031 19.925781 C 5.636719 19.429688 5.960938 19.128906 6.4375 18.816406 C 6.617188 19.1875 6.601562 19.3125 6.945312 19.582031 C 7.113281 19.710938 7.535156 20.003906 7.75 20.054688 C 7.730469 20.28125 7.066406 20.65625 7.066406 21.152344 L 7.0625 21.226562 L 6.632812 21.292969 L 6.644531 20.644531 L 6.609375 20.644531 L 6.523438 21.265625 L 6.292969 21.265625 L 6.285156 21.179688 L 6.273438 21.035156 L 6.351562 20.476562 C 6.292969 20.539062 6.148438 21.066406 6.148438 21.179688 L 6.148438 21.3125 L 5.832031 21.367188 L 5.796875 21.371094 L 5.980469 20.417969 C 5.855469 20.507812 5.691406 21.171875 5.691406 21.40625 L 5.566406 21.40625 C 5.570312 21.035156 5.617188 20.699219 5.722656 20.335938 C 5.523438 20.558594 5.441406 21.0625 5.445312 21.402344 L 4.953125 21.671875 L 5.433594 21.574219 L 5.433594 21.882812 L 5.148438 21.882812 C 5.324219 22.003906 5.402344 21.832031 5.476562 22.039062 C 5.535156 22.203125 5.535156 22.332031 5.664062 22.417969 L 5.664062 22.117188 L 5.78125 22.148438 L 5.921875 22.429688 L 5.957031 22.417969 L 5.921875 22.222656 L 6.246094 22.230469 L 6.378906 22.417969 L 6.378906 22.191406 L 6.609375 22.191406 L 6.609375 22.304688 C 6.609375 22.480469 6.804688 23.195312 6.894531 23.375 L 6.550781 23.375 L 6.550781 23.390625 L 7.265625 23.460938 L 7.261719 23.53125 L 6.785156 23.625 L 6.667969 23.464844 L 6.46875 23.515625 L 6.4375 23.628906 L 6.121094 23.640625 L 5.921875 23.601562 L 6.117188 23.597656 L 6.179688 23.515625 L 6.117188 23.394531 L 5.980469 23.460938 L 5.980469 23.40625 L 5.78125 23.4375 L 5.769531 23.394531 L 5.546875 23.460938 L 5.601562 23.554688 L 5.398438 23.476562 L 5.507812 23.410156 L 5.316406 23.25 L 5.066406 23.15625 L 4.957031 23.226562 L 4.921875 23.167969 L 4.863281 22.972656 L 4.824219 22.972656 L 4.761719 23.082031 L 4.664062 22.953125 L 4.777344 22.953125 C 4.757812 22.917969 4.75 22.921875 4.75 22.867188 L 4.742188 22.792969 L 4.660156 22.722656 L 4.582031 22.78125 L 4.550781 22.726562 C 4.566406 22.9375 4.703125 23.121094 4.847656 23.222656 C 5.152344 23.445312 5.03125 23.324219 5.167969 23.722656 C 5.246094 23.949219 5.628906 24.621094 5.777344 24.726562 C 5.808594 24.609375 6.175781 24.089844 6.292969 24.078125 C 6.203125 24.242188 5.835938 24.917969 5.835938 25.089844 C 5.835938 25.402344 6.070312 25.761719 6.378906 25.765625 C 6.40625 25.65625 6.683594 25.1875 6.757812 25.042969 C 6.828125 24.914062 6.886719 24.8125 6.960938 24.679688 C 7.011719 24.578125 7.078125 24.375 7.203125 24.359375 L 6.636719 25.824219 C 7.15625 26.589844 8.585938 27.625 9.894531 27.625 L 10.292969 27.625 C 10.757812 27.625 11.414062 27.355469 11.742188 27.191406 C 11.960938 27.085938 12.15625 26.992188 12.339844 26.851562 C 12.445312 26.777344 12.8125 26.445312 12.867188 26.46875 C 12.894531 26.535156 12.316406 27.066406 12.191406 27.15625 C 11.847656 27.410156 11.683594 27.484375 11.296875 27.679688 C 10.734375 27.960938 9.527344 28.03125 8.839844 27.816406 C 7.875 27.515625 7.640625 27.417969 6.871094 26.914062 C 6.4375 26.632812 5.769531 25.898438 5.453125 25.46875 C 5.058594 24.933594 4.660156 24.3125 4.402344 23.660156 C 4.277344 23.339844 4.121094 23.019531 3.996094 22.652344 C 3.867188 22.277344 3.789062 21.925781 3.675781 21.535156 C 3.535156 21.066406 3.347656 19.589844 3.347656 19.011719 C 3.347656 18.5 3.347656 18.152344 3.347656 17.660156 C 3.347656 17.441406 3.277344 17.09375 3.460938 17.066406 C 3.53125 17.058594 4.046875 17.035156 4.0625 17.042969 C 4.113281 17.144531 4.0625 16.972656 4.0625 17.125 L 4.0625 17.839844 L 7.121094 17.691406 L 7.121094 17.773438 C 6.679688 17.773438 5.960938 17.875 5.542969 17.9375 C 5.324219 17.96875 4.035156 18.011719 4.035156 18.167969 L 4.035156 18.898438 C 4.035156 19.628906 4.082031 20.160156 4.203125 20.757812 C 4.265625 21.0625 4.632812 22.242188 4.609375 22.367188 L 4.71875 22.277344 L 4.890625 22.3125 L 4.910156 22.289062 L 4.832031 22.199219 L 4.800781 22.226562 Z M 4.574219 22.375 C 4.546875 22.492188 4.476562 22.628906 4.578125 22.699219 L 4.578125 22.53125 C 4.601562 22.546875 4.648438 22.585938 4.664062 22.585938 C 4.710938 22.585938 4.75 22.570312 4.75 22.53125 C 4.75 22.464844 4.738281 22.496094 4.714844 22.433594 Z M 6.414062 20.367188 L 6.363281 20.480469 Z M 6.664062 20.644531 C 6.695312 20.617188 6.625 20.542969 6.648438 20.613281 C 6.648438 20.613281 6.652344 20.617188 6.652344 20.617188 C 6.652344 20.617188 6.65625 20.652344 6.664062 20.644531 Z M 9.09375 22.671875 C 9.128906 22.597656 9.179688 22.390625 9.179688 22.277344 L 9.183594 22.175781 L 9.320312 22.113281 L 9.4375 22.136719 C 9.363281 22.285156 9.285156 22.652344 9.09375 22.671875 Z M 8.007812 22.8125 C 8.023438 22.671875 8.265625 22.535156 8.265625 22.25 L 8.265625 22.171875 L 8.492188 22.136719 C 8.605469 22.371094 8.191406 22.714844 8.007812 22.8125 Z M 5.585938 21.496094 L 5.699219 21.496094 L 5.765625 21.941406 L 5.605469 21.9375 C 5.570312 21.785156 5.582031 21.652344 5.585938 21.496094 Z M 8.152344 24.386719 L 7.894531 24.386719 C 7.414062 24.386719 7.3125 24.375 6.898438 24.214844 C 6.714844 24.144531 6.195312 23.886719 6.179688 23.683594 C 6.292969 23.738281 7.023438 23.992188 7.152344 23.992188 C 7.292969 23.992188 7.527344 23.621094 7.554688 23.40625 C 7.578125 23.199219 7.757812 22.832031 7.949219 22.8125 C 7.828125 23.0625 7.984375 23.085938 7.746094 23.453125 C 7.660156 23.585938 7.472656 23.921875 7.4375 24.078125 L 7.664062 24.078125 C 7.839844 24.078125 8.253906 23.339844 8.304688 23.300781 C 8.441406 23.203125 8.566406 23.171875 8.746094 23.03125 C 8.832031 22.964844 9.054688 22.738281 9.152344 22.726562 C 8.957031 23.089844 8.902344 23.152344 8.539062 23.363281 C 8.472656 23.402344 8.355469 23.632812 8.28125 23.730469 C 8.1875 23.855469 8.042969 23.984375 7.980469 24.078125 C 8.683594 24.078125 9.285156 23.960938 9.71875 23.679688 C 10.09375 23.4375 10.554688 22.949219 10.667969 22.472656 C 10.589844 22.53125 10.386719 22.851562 10.300781 22.957031 C 10.167969 23.121094 10.023438 23.261719 9.859375 23.394531 C 9.550781 23.648438 9.09375 23.882812 8.636719 23.882812 L 8.378906 23.882812 C 8.269531 23.882812 8.371094 23.871094 8.292969 23.910156 C 8.308594 23.769531 8.636719 23.601562 8.746094 23.507812 C 8.851562 23.414062 9.011719 23.167969 9.128906 23.042969 C 9.238281 22.929688 9.382812 22.667969 9.425781 22.492188 C 9.511719 22.128906 9.667969 22.1875 9.808594 21.996094 C 9.925781 22.050781 10.078125 22 10.140625 22.035156 C 10.195312 22.0625 10.125 22.203125 10.125 22.332031 C 10.386719 22.160156 10.128906 21.996094 10.472656 21.917969 C 10.601562 21.886719 10.984375 21.792969 11.066406 21.730469 L 10.335938 21.796875 L 10.410156 21.40625 C 10.589844 21.492188 11.046875 21.5 11.066406 21.746094 L 11.179688 21.742188 C 11.25 21.886719 10.957031 22.664062 10.875 22.820312 C 10.652344 23.261719 10.503906 23.285156 10.21875 23.609375 C 9.851562 24.019531 8.839844 24.386719 8.152344 24.386719 Z M 10.074219 22.394531 L 10.097656 22.417969 L 10.117188 22.328125 Z M 10.714844 22.414062 L 10.695312 22.390625 L 10.675781 22.480469 Z M 18.15625 21.628906 L 19.871094 21.742188 C 19.917969 21.8125 20.363281 22.117188 20.480469 22.210938 C 20.644531 22.347656 20.898438 22.613281 21.015625 22.785156 C 20.675781 22.785156 20.472656 22.769531 20.179688 22.734375 C 19.972656 22.707031 19.480469 22.800781 19.40625 22.59375 C 19.320312 22.359375 18.539062 21.714844 18.242188 21.714844 L 18.15625 21.714844 Z M 9.75 21.445312 L 9.75 21.546875 C 9.75 21.769531 9.746094 21.769531 9.636719 21.96875 C 9.476562 21.890625 9.355469 22.019531 9.410156 21.832031 C 9.4375 21.734375 9.492188 21.605469 9.492188 21.476562 Z M 6.988281 21.851562 C 7.015625 22.007812 6.902344 21.894531 6.75 21.96875 C 6.671875 21.808594 6.664062 21.695312 6.664062 21.546875 L 6.664062 21.433594 L 6.921875 21.433594 L 6.921875 21.515625 C 6.921875 21.679688 6.964844 21.71875 6.988281 21.851562 Z M 6.492188 21.574219 C 6.492188 21.945312 6.777344 21.976562 6.382812 22.003906 C 6.238281 22.015625 6.265625 21.652344 6.265625 21.515625 L 6.265625 21.433594 L 6.492188 21.433594 Z M 9.980469 21.628906 C 9.847656 21.382812 10.050781 21.550781 10.238281 21.460938 L 10.222656 21.855469 L 9.921875 21.855469 Z M 8.621094 21.351562 L 8.832031 21.523438 C 8.757812 21.679688 8.832031 21.703125 8.660156 21.851562 C 8.585938 21.914062 8.484375 22.054688 8.398438 22.019531 Z M 6.148438 21.417969 L 6.148438 21.546875 C 6.148438 21.707031 6.242188 21.921875 6.207031 21.996094 L 5.894531 21.992188 L 5.78125 21.46875 Z M 10.636719 21.207031 C 10.625 21.363281 10.613281 21.292969 10.496094 21.347656 L 10.378906 21.207031 C 10.402344 21.183594 10.449219 21.152344 10.496094 21.152344 C 10.554688 21.152344 10.484375 21.195312 10.636719 21.207031 Z M 10.265625 21.152344 L 10.265625 21.292969 L 10.203125 21.308594 C 10.15625 21.285156 10.039062 21.171875 10.039062 21.09375 C 10.039062 21.035156 10.046875 21.058594 10.066406 20.980469 L 10.179688 20.980469 C 10.203125 21.027344 10.265625 21.109375 10.265625 21.152344 Z M 9.953125 21.125 C 9.953125 21.164062 9.894531 21.15625 9.867188 21.265625 C 9.800781 21.246094 9.78125 21.257812 9.78125 21.179688 L 9.78125 21.152344 C 9.78125 21.066406 9.726562 20.945312 9.894531 20.925781 C 9.898438 21.117188 9.953125 21.015625 9.953125 21.125 Z M 9.609375 21.292969 C 9.417969 21.203125 9.382812 21.363281 9.460938 21.089844 C 9.496094 20.960938 9.523438 20.882812 9.523438 20.730469 L 9.6875 20.875 Z M 18.242188 20.335938 C 18.550781 20.480469 19.167969 20.566406 19.585938 20.617188 C 20.058594 20.671875 19.953125 20.582031 19.871094 20.984375 C 19.851562 21.097656 19.78125 21.578125 19.707031 21.585938 C 19.460938 21.625 18.535156 21.492188 18.183594 21.492188 C 17.898438 21.488281 18.109375 21.246094 18.171875 21 C 18.214844 20.84375 18.242188 20.554688 18.242188 20.335938 Z M 8.578125 21.207031 C 8.613281 21.136719 8.640625 20.894531 8.683594 20.777344 C 8.761719 20.578125 8.855469 20.617188 8.894531 20.476562 L 9.058594 20.570312 L 9.066406 20.644531 C 8.910156 20.683594 8.808594 21 8.808594 21.207031 Z M 21.671875 20.167969 C 21.671875 20.3125 21.667969 20.3125 21.617188 20.480469 C 21.546875 20.710938 21.640625 20.65625 21.417969 20.644531 C 21.160156 20.632812 20.863281 20.644531 20.617188 20.613281 C 20.476562 20.597656 20.394531 20.589844 20.210938 20.589844 C 19.980469 20.589844 20.058594 20.542969 20.101562 20.390625 C 20.15625 20.183594 20.128906 19.859375 20.128906 19.601562 C 20.375 19.722656 21.273438 19.800781 21.527344 19.800781 L 21.671875 19.800781 Z M 1.089844 19.742188 L 1.605469 19.742188 L 1.777344 20.679688 L 1.089844 21.09375 Z M 7.519531 17.679688 L 7.523438 18.253906 C 7.21875 18.332031 7.382812 18.746094 7.558594 18.890625 C 7.746094 19.046875 7.957031 19.140625 8.1875 19.257812 C 8.648438 19.484375 9.265625 19.597656 9.667969 19.800781 C 9.890625 19.914062 10.1875 19.953125 10.398438 20.09375 C 10.609375 20.234375 10.800781 20.324219 11.003906 20.480469 C 11.402344 20.78125 11.78125 21.0625 11.78125 21.65625 L 11.78125 21.714844 C 11.78125 21.902344 11.761719 21.980469 11.640625 22.136719 C 11.578125 22.214844 11.320312 22.355469 11.265625 22.332031 L 11.238281 22.316406 L 11.417969 22 L 11.324219 21.996094 L 11.359375 21.828125 L 11.523438 21.859375 L 11.570312 21.765625 L 11.496094 21.628906 L 11.351562 21.628906 L 11.40625 21.460938 L 11.324219 21.320312 L 11.179688 21.320312 L 10.902344 21.117188 L 10.980469 20.953125 L 10.917969 20.902344 L 10.722656 20.882812 L 10.613281 20.960938 L 10.527344 20.921875 C 10.566406 20.765625 10.636719 20.894531 10.636719 20.757812 C 10.636719 20.648438 10.445312 20.609375 10.351562 20.558594 L 10.121094 20.726562 L 10.039062 20.695312 L 10.144531 20.527344 L 10.0625 20.335938 L 9.953125 20.335938 C 9.621094 20.335938 9.601562 20.472656 9.378906 20.476562 C 9.382812 20.300781 9.386719 20.164062 9.179688 20.109375 L 9.074219 20.355469 L 9.035156 20.363281 L 9.015625 20.1875 L 8.980469 20.195312 L 8.980469 20.082031 C 8.980469 19.980469 8.84375 19.832031 8.722656 19.828125 C 8.730469 19.917969 8.75 19.929688 8.75 20.027344 L 8.75 20.167969 C 8.75 20.25 8.71875 20.242188 8.636719 20.25 C 8.632812 20.03125 8.382812 19.96875 8.324219 19.800781 L 8.152344 19.800781 L 8.230469 20 L 8.238281 20.109375 L 8.011719 20.019531 L 8.066406 19.914062 L 7.945312 19.753906 C 7.917969 19.578125 7.875 19.566406 7.746094 19.496094 C 7.5625 19.394531 7.660156 19.324219 7.464844 19.320312 L 7.699219 19.839844 L 7.660156 19.867188 L 7.492188 19.804688 L 7.492188 19.492188 L 7.429688 19.441406 L 7.148438 19.390625 L 7.011719 19.472656 C 6.992188 19.398438 6.980469 19.398438 6.980469 19.320312 L 6.980469 19.097656 C 6.871094 19.066406 6.664062 18.96875 6.636719 18.84375 L 6.753906 18.921875 C 6.839844 18.882812 7.007812 18.851562 7.007812 18.730469 C 7.007812 18.671875 6.996094 18.695312 6.980469 18.617188 L 6.863281 18.617188 L 6.957031 18.425781 C 6.875 18.382812 6.972656 18.394531 6.863281 18.394531 L 6.777344 18.394531 L 6.78125 18.222656 L 7.089844 18.160156 C 7.105469 18.015625 7.199219 17.984375 7.066406 17.859375 Z M 11.09375 21.066406 C 11.09375 21.21875 11.082031 21.261719 11.238281 21.265625 L 11.238281 21.179688 C 11.238281 21.085938 11.179688 21.074219 11.09375 21.066406 Z M 12.785156 19.742188 C 13.070312 19.554688 13.445312 18.847656 13.601562 18.46875 C 13.65625 18.339844 13.695312 18.234375 13.730469 18.089844 C 13.785156 17.878906 13.664062 17.71875 13.894531 17.714844 C 14.082031 17.710938 14.796875 17.710938 14.898438 17.660156 C 14.898438 18.769531 14.898438 19.875 14.898438 20.980469 C 14.898438 21.535156 14.898438 22.089844 14.898438 22.644531 C 14.898438 22.894531 14.917969 23.238281 14.902344 23.40625 C 14.871094 23.742188 14.726562 23.8125 14.667969 24.023438 L 14.597656 24.015625 Z M 20.160156 19.535156 C 19.859375 19.351562 18.953125 18.910156 18.5 18.898438 L 18.5 18.816406 C 18.753906 18.875 19.136719 18.867188 19.425781 18.917969 C 19.726562 18.96875 20 18.984375 20.289062 19.050781 C 20.585938 19.121094 21.589844 19.519531 21.613281 19.742188 Z M 5.40625 19.519531 C 5.515625 19.300781 5.386719 18.738281 5.433594 18.449219 C 5.464844 18.269531 6.242188 18.386719 6.40625 18.308594 L 6.40625 18.757812 C 6.074219 18.835938 5.5625 19.503906 5.40625 19.519531 Z M 5.207031 18.449219 L 5.308594 19.71875 C 4.972656 19.878906 5.109375 19.6875 5.09375 19.292969 C 5.089844 19.210938 5.054688 18.597656 5.039062 18.570312 Z M 15.238281 22.613281 L 15.152344 22.613281 C 15.175781 22.582031 15.183594 22.585938 15.183594 22.53125 L 15.183594 17.660156 L 15.953125 17.660156 L 15.953125 18.308594 C 15.953125 19.007812 15.863281 19.898438 15.726562 20.5625 C 15.652344 20.929688 15.609375 21.261719 15.507812 21.613281 C 15.464844 21.765625 15.242188 22.546875 15.238281 22.613281 Z M 18.382812 18.730469 C 18.453125 18.585938 18.414062 18.019531 18.414062 17.800781 C 18.410156 17.335938 18.582031 17.589844 18.984375 17.632812 C 19.128906 17.648438 19.648438 17.757812 19.789062 17.796875 C 19.996094 17.855469 20.085938 17.761719 20.109375 17.964844 C 20.117188 18.054688 20.128906 18.199219 20.128906 18.308594 C 20.128906 18.480469 20.113281 18.652344 20.074219 18.847656 C 20.03125 19.050781 19.785156 18.867188 19.609375 18.847656 C 19.191406 18.789062 18.808594 18.730469 18.382812 18.730469 Z M 12.496094 19.292969 C 12.496094 19.308594 13.441406 21.5625 13.535156 21.761719 C 13.71875 22.152344 13.886719 22.585938 14.058594 22.992188 C 14.191406 23.316406 14.523438 23.9375 14.523438 24.21875 L 14.523438 24.445312 L 14.453125 24.4375 L 12.238281 19.265625 C 12.382812 19.050781 12.539062 18.882812 12.660156 18.636719 C 12.695312 18.5625 12.917969 17.917969 12.925781 17.859375 L 13.097656 17.859375 C 13.066406 17.921875 13.035156 18.160156 13 18.269531 C 12.953125 18.398438 12.910156 18.472656 12.855469 18.636719 C 12.816406 18.753906 12.496094 19.277344 12.496094 19.292969 Z M 8.351562 19.183594 C 8.191406 19.121094 8.015625 19.054688 7.863281 18.984375 C 7.683594 18.902344 7.605469 18.796875 7.464844 18.703125 L 7.449219 18.503906 C 7.714844 18.304688 7.636719 17.964844 7.636719 17.632812 L 7.636719 17.546875 L 7.75 17.546875 C 7.90625 17.546875 7.847656 17.46875 7.867188 17.71875 C 7.875 17.828125 7.894531 17.875 7.894531 18.027344 L 7.921875 18.027344 C 7.921875 17.328125 7.945312 17.578125 8.523438 17.578125 L 8.523438 18.363281 C 9.011719 18.375 9.835938 18.765625 10.101562 19.003906 C 10.335938 19.214844 10.453125 19.316406 10.636719 19.574219 C 10.714844 19.683594 11.046875 20.171875 11.007812 20.25 C 10.960938 20.273438 10.585938 20.097656 10.476562 20.042969 C 10.265625 19.941406 10.085938 19.941406 9.980469 19.742188 L 9.898438 19.804688 C 9.777344 19.71875 9.566406 19.722656 9.488281 19.636719 C 9.398438 19.539062 9.355469 19.398438 9.238281 19.320312 C 9.238281 19.589844 9.070312 19.4375 8.863281 19.355469 C 8.691406 19.289062 8.515625 19.246094 8.351562 19.183594 Z M 9.941406 19.753906 L 9.964844 19.734375 L 9.59375 19.332031 Z M 18.671875 17.351562 C 18.980469 17.5 19.824219 17.183594 20.097656 17.183594 L 20.414062 17.183594 C 20.46875 17.183594 20.464844 17.175781 20.5 17.15625 C 20.574219 17.253906 21.308594 17.472656 21.441406 17.40625 L 21.441406 17.492188 C 20.988281 17.492188 20.480469 17.78125 20.054688 17.707031 C 19.625 17.628906 19.074219 17.46875 18.671875 17.4375 Z M 20.242188 16.085938 L 21.722656 16.523438 L 21.730469 17.40625 L 20.242188 17.015625 Z M 6.949219 17.4375 C 6.773438 17.4375 6.421875 17.402344 6.351562 17.210938 C 6.054688 17.21875 6.019531 17.210938 5.863281 16.984375 C 6.042969 16.9375 5.945312 16.832031 6.253906 16.75 C 6.472656 16.6875 6.46875 16.648438 6.691406 16.648438 L 6.777344 16.648438 L 6.785156 16.613281 L 7.953125 16.8125 L 7.863281 16.675781 C 7.96875 16.464844 8.042969 16.507812 8.265625 16.507812 C 8.320312 16.507812 8.316406 16.5 8.351562 16.480469 C 8.410156 16.558594 8.480469 16.554688 8.476562 16.671875 C 8.472656 16.804688 8.414062 16.820312 8.574219 16.855469 C 8.6875 16.878906 8.871094 16.886719 9.015625 16.980469 C 9.152344 17.070312 9.242188 17.167969 9.304688 17.339844 C 9.382812 17.554688 9.292969 17.648438 9.292969 17.859375 C 9.125 17.96875 9.25 17.976562 9.007812 18.082031 C 8.824219 18.167969 8.707031 18.109375 8.578125 18.167969 L 8.761719 17.921875 L 8.636719 17.9375 L 8.636719 17.632812 L 8.695312 17.632812 C 8.609375 17.476562 8.429688 17.4375 8.179688 17.433594 C 8.066406 17.433594 7.933594 17.445312 7.832031 17.449219 C 7.75 17.449219 7.628906 17.394531 7.523438 17.40625 L 7.152344 17.453125 Z M 8.75 17.886719 C 8.699219 17.9375 8.800781 17.835938 8.75 17.886719 Z M 11.222656 16.246094 C 11.234375 16.179688 11.609375 16.15625 11.636719 16.167969 C 11.691406 16.277344 11.5625 16.546875 11.597656 16.714844 C 11.628906 16.882812 11.714844 17.058594 11.78125 17.183594 L 15.125 16.929688 C 15.457031 16.710938 16.003906 15.800781 16.296875 15.605469 L 17.570312 17.417969 C 17.550781 17.457031 17.527344 17.457031 17.527344 17.519531 L 17.527344 26.386719 L 17.382812 26.386719 L 17.382812 17.519531 C 17.382812 17.484375 16.34375 15.996094 16.269531 15.945312 C 16.003906 16.136719 15.207031 17.363281 14.984375 17.378906 L 14.882812 17.25 L 14.964844 17.136719 L 11.867188 17.410156 C 11.867188 17.773438 11.628906 18.484375 11.496094 18.730469 L 14.207031 24.925781 L 14.113281 25.113281 L 14.039062 25.121094 C 14.023438 24.941406 12.875 22.378906 12.703125 21.988281 C 12.480469 21.46875 12.269531 20.9375 12.027344 20.429688 C 11.941406 20.242188 11.433594 18.929688 11.324219 18.929688 L 11.238281 18.929688 C 11 18.929688 10.726562 19.320312 10.636719 19.320312 C 10.609375 19.320312 10.410156 19.023438 10.378906 18.984375 C 10.835938 18.683594 11.265625 17.542969 11.265625 16.761719 C 11.265625 16.632812 11.210938 16.332031 11.222656 16.246094 Z M 0.0898438 18.335938 L 0.0898438 19.210938 L 0.117188 19.351562 C 0.195312 19.390625 0.691406 19.621094 0.691406 19.6875 L 0.691406 21.265625 C 0.691406 21.367188 0.382812 21.835938 0.320312 21.882812 C 0.339844 21.917969 0.347656 21.914062 0.347656 21.96875 C 0.347656 22.320312 0.746094 22.863281 0.746094 22.980469 L 0.746094 26.835938 C 0.746094 26.933594 0.464844 27.003906 0.371094 27.082031 C 0.308594 27.132812 0.15625 27.355469 0.0898438 27.425781 L 0.0898438 27.851562 C 0.128906 27.859375 0.507812 28.152344 0.679688 28.226562 C 0.964844 28.34375 1.128906 28.382812 1.433594 28.382812 L 2.375 28.382812 C 2.640625 28.382812 2.738281 28.34375 3 28.265625 C 3.136719 28.226562 3.515625 27.992188 3.519531 27.992188 L 4.464844 27.992188 C 4.429688 28.375 4.261719 28.722656 4.261719 29.171875 L 4.265625 29.535156 L 5.035156 30.019531 L 6.378906 29.933594 L 6.464844 29.933594 L 6.464844 30.15625 C 6.464844 30.382812 6.398438 30.402344 6.441406 30.601562 C 6.472656 30.742188 6.464844 30.9375 6.464844 31.085938 C 7.539062 31.648438 7.402344 31.339844 8.722656 31.339844 C 8.746094 31.441406 8.820312 31.6875 8.871094 31.753906 C 9.050781 31.984375 9.050781 31.878906 9.207031 32.015625 L 10.09375 32.015625 L 11.378906 31.847656 L 11.46875 32.015625 L 12.410156 32.015625 C 12.527344 31.933594 13.375 31.828125 13.585938 31.792969 C 13.792969 31.761719 14.066406 31.792969 14.070312 31.59375 C 14.074219 31.363281 14.125 31.1875 14.125 30.945312 C 14.261719 30.976562 14.300781 31.050781 14.4375 31.058594 C 14.566406 31.066406 14.738281 31.058594 14.867188 31.058594 C 15.089844 31.058594 15.542969 31.011719 15.6875 31.074219 L 16.726562 30.242188 C 17.28125 30.242188 17.316406 30.1875 17.714844 30.035156 C 17.886719 29.96875 17.957031 29.90625 18.097656 29.820312 C 18.292969 29.699219 18.296875 29.667969 18.296875 29.453125 L 18.296875 29.257812 C 18.296875 29.117188 18.308594 29.199219 18.261719 29.023438 L 18.785156 28.414062 C 18.71875 28.277344 18.703125 27.769531 18.613281 27.539062 C 18.550781 27.386719 18.355469 26.902344 18.328125 26.78125 L 19.640625 26.78125 C 19.75 26.78125 20.125 26.3125 20.183594 26.21875 C 20.394531 25.878906 20.289062 25.765625 20.148438 25.4375 C 19.910156 24.886719 19.542969 24.574219 19.234375 24.132812 L 19.355469 23.824219 L 20.929688 23.824219 C 21.066406 23.570312 21.1875 23.160156 21.1875 22.867188 C 21.1875 22.761719 21.175781 22.859375 21.214844 22.785156 C 21.089844 22.703125 20.734375 22.257812 20.605469 22.113281 C 20.472656 21.964844 20.0625 21.671875 19.863281 21.570312 L 20.070312 20.785156 L 21.558594 20.785156 C 21.734375 20.785156 21.621094 20.863281 21.683594 20.65625 C 21.714844 20.546875 21.734375 20.5625 21.769531 20.402344 C 21.804688 20.234375 21.816406 20.066406 21.816406 19.914062 L 21.816406 19.6875 C 21.714844 19.664062 21.242188 19.335938 21.089844 19.25 C 20.832031 19.101562 20.496094 19.046875 20.238281 18.925781 L 20.269531 18.476562 L 20.289062 18.195312 L 20.246094 17.867188 L 21.871094 17.519531 L 21.871094 16.367188 L 20.1875 15.90625 L 20.183594 15.128906 L 20.199219 15.15625 L 21.703125 14.375 L 21.699219 13.214844 C 21.539062 13.175781 21.417969 13.070312 21.28125 13.007812 C 21.148438 12.945312 20.976562 12.902344 20.84375 12.847656 C 20.558594 12.734375 20.25 12.613281 19.929688 12.539062 L 19.929688 12.371094 C 20.148438 12.3125 20.515625 11.917969 20.679688 11.757812 C 20.804688 11.632812 20.898438 11.554688 21.023438 11.421875 C 21.109375 11.328125 21.246094 11.105469 21.328125 11.046875 C 21.234375 10.855469 21.230469 10.519531 21.101562 10.257812 C 20.929688 9.921875 20.914062 9.96875 20.558594 9.808594 C 20.28125 9.683594 19.402344 9.308594 19.070312 9.300781 L 19.070312 9.191406 L 20.722656 8.808594 L 20.726562 7.640625 L 19.816406 7.15625 L 19.8125 1.027344 L 18.382812 0.0703125 L 18.242188 0.0703125 C 18.09375 0.199219 16.984375 0.4375 16.984375 0.578125 L 16.984375 1.871094 L 15.460938 1.097656 L 14.214844 1.492188 L 14.210938 7.839844 L 12.46875 8.242188 L 12.46875 7.21875 C 12.691406 7.21875 13.34375 7.0625 13.5 6.941406 C 13.792969 6.722656 14.039062 6.605469 14.039062 6.179688 L 14.039062 3.390625 C 14.039062 3.335938 14.046875 3.339844 14.066406 3.308594 C 14.019531 3.273438 13.757812 3.035156 13.675781 2.960938 C 13.542969 2.851562 13.386719 2.746094 13.238281 2.660156 C 12.960938 2.5 12.566406 2.238281 12.238281 2.238281 L 12.210938 2.238281 C 11.703125 2.238281 10.492188 2.867188 9.921875 2.914062 L 9.921875 4.292969 L 9.671875 4.171875 L 9.664062 2.210938 L 6.609375 0.738281 L 6.609375 0.605469 L 5.414062 1.070312 L 5.40625 3.476562 L 6.550781 3.054688 L 6.566406 3.113281 C 6.59375 3.046875 6.609375 3.046875 6.609375 2.96875 L 6.609375 0.914062 L 7.261719 1.207031 L 7.265625 3.476562 L 6.609375 3.164062 L 5.414062 3.605469 L 5.40625 6.179688 L 6.519531 5.859375 L 6.523438 5.925781 L 5.410156 6.304688 L 5.40625 8.796875 L 6.519531 8.585938 L 6.523438 8.683594 L 5.410156 8.949219 L 5.40625 11.414062 L 6.519531 11.179688 L 6.523438 11.273438 L 5.410156 11.480469 L 5.40625 14.03125 L 6.523438 13.890625 L 5.152344 14.601562 L 5.148438 14.226562 L 4.179688 14.382812 L 4.175781 15.042969 C 4.175781 15.140625 3.964844 15.203125 3.890625 15.242188 L 3.890625 14.398438 L 3.035156 14.523438 L 3.035156 15.691406 L 2.808594 15.78125 L 2.804688 14.539062 L 1.921875 14.691406 L 1.917969 16.253906 L 1.832031 16.28125 L 1.835938 14.003906 L 1.832031 11.105469 L 1.839844 10.960938 L 1.832031 9.273438 C 1.832031 9.21875 1.84375 9.222656 1.863281 9.191406 L 1.777344 9.191406 C 1.765625 9.335938 1.566406 9.773438 1.503906 9.933594 C 1.367188 10.269531 1.289062 10.332031 1.496094 10.648438 C 1.691406 10.945312 1.804688 10.84375 1.804688 11.355469 C 1.804688 11.683594 1.804688 12.011719 1.804688 12.34375 C 1.601562 12.207031 1.558594 12.089844 1.289062 12.089844 L 1.234375 12.089844 L 0.777344 12.144531 C 0.53125 12.597656 0.519531 12.5625 0.519531 13.1875 C 0.667969 13.40625 0.894531 13.535156 1.113281 13.699219 C 1.195312 13.757812 1.777344 14.074219 1.777344 14.113281 C 1.777344 14.164062 1.582031 14.667969 1.578125 14.902344 L 1.492188 14.902344 C 1.1875 14.902344 0.867188 14.953125 0.496094 15.023438 C 0.226562 15.070312 0.269531 15.113281 0.210938 15.359375 C 0.175781 15.492188 0.175781 15.675781 0.175781 15.804688 L 0.175781 16.140625 C 0.34375 16.183594 0.867188 16.570312 1.148438 16.59375 L 0.0898438 17.210938 L 0.0898438 17.296875 L 1.433594 17.230469 L 1.433594 17.464844 L 1.8125 17.050781 L 0.632812 17.171875 C 0.648438 17.035156 0.921875 16.972656 1.042969 16.910156 C 1.207031 16.832031 1.335938 16.765625 1.5 16.6875 C 1.808594 16.535156 2.101562 16.375 2.40625 16.226562 C 2.960938 15.953125 3.679688 15.628906 4.207031 15.324219 C 4.753906 15.011719 5.425781 14.707031 6.007812 14.425781 C 6.34375 14.261719 6.527344 14.085938 6.980469 14.03125 C 7.371094 13.984375 7.773438 13.90625 8.152344 13.863281 C 8.40625 13.832031 9.171875 13.6875 9.320312 13.71875 C 9.691406 13.800781 10.085938 13.894531 10.445312 13.96875 C 11.179688 14.117188 11.949219 14.277344 12.667969 14.453125 C 13.386719 14.628906 14.152344 14.789062 14.890625 14.9375 C 15.351562 15.03125 16.738281 15.410156 17.125 15.410156 L 17.125 15.496094 L 1.890625 17.042969 L 2.910156 18.121094 C 2.882812 18.1875 2.890625 18.089844 2.890625 18.195312 L 2.890625 24.699219 L 2.691406 24.699219 L 2.691406 18.222656 C 2.691406 18.148438 1.929688 17.359375 1.832031 17.296875 C 1.730469 17.445312 1.003906 18.234375 1.003906 18.308594 L 1.003906 19.492188 L 0.804688 19.492188 L 0.804688 18.253906 C 0.804688 18.199219 0.796875 18.203125 0.777344 18.167969 L 1.4375 17.464844 C 1.332031 17.488281 0.820312 17.789062 0.71875 17.859375 C 0.476562 18.019531 0.324219 18.183594 0.0898438 18.335938 Z M 18.414062 15.296875 L 18.355469 14.625 L 20.03125 15.160156 L 20.042969 15.128906 L 20.042969 16 C 19.867188 15.917969 19.425781 15.832031 19.15625 15.832031 L 18.414062 15.832031 L 18.414062 15.605469 L 18.40625 15.464844 Z M 18.585938 14.539062 C 18.886719 14.511719 19.957031 13.984375 20.011719 13.777344 L 21.40625 14.300781 L 21.414062 14.367188 C 21.402344 14.371094 20.882812 14.6875 20.785156 14.734375 C 20.664062 14.792969 20.15625 14.992188 20.097656 15.042969 L 18.589844 14.605469 Z M 14.3125 10.179688 L 14.695312 10.175781 C 14.703125 10.261719 15.046875 11.144531 15.105469 11.292969 C 15.257812 11.664062 15.355469 12.039062 15.480469 12.445312 C 15.566406 12.738281 16.011719 14.777344 15.898438 15.015625 L 15.890625 15.042969 L 13.300781 14.492188 C 13.210938 14.347656 12.976562 13.875 12.816406 13.835938 Z M 8.070312 12.65625 L 8.433594 12.773438 L 8.4375 13.75 L 7.867188 13.820312 C 7.84375 13.761719 7.96875 13.355469 7.949219 13.242188 L 7.90625 12.933594 C 7.921875 12.929688 7.894531 12.878906 7.902344 12.882812 Z M 8.78125 12.566406 L 8.867188 12.566406 L 9.289062 13.609375 L 9.09375 13.609375 C 9.070312 13.304688 8.78125 13.027344 8.78125 12.734375 Z M 20.042969 13.382812 L 19.957031 12.765625 C 20.183594 12.65625 21.3125 13.253906 21.527344 13.269531 L 21.527344 14.199219 L 20.046875 13.652344 L 20.035156 13.441406 Z M 7.664062 12.820312 C 7.664062 12.765625 7.65625 12.769531 7.636719 12.734375 L 7.660156 12.710938 L 7.863281 12.90625 C 7.839844 12.949219 7.78125 13.03125 7.78125 13.074219 C 7.78125 13.199219 7.835938 13.261719 7.835938 13.441406 L 7.835938 13.523438 L 7.804688 13.804688 L 7.664062 13.804688 Z M 7.492188 12.734375 C 6.871094 12.308594 8.050781 11.894531 8.507812 12.21875 C 8.78125 12.414062 8.765625 12.742188 8.292969 12.625 C 7.984375 12.546875 7.71875 12.585938 7.492188 12.734375 Z M 18.097656 13.015625 C 18.097656 12.722656 17.921875 11.902344 17.925781 11.890625 C 18.097656 11.8125 19.433594 12.464844 19.671875 12.484375 L 19.671875 12.566406 C 19.285156 12.566406 18.363281 12.878906 18.097656 13.015625 Z M 7.621094 11.582031 L 8.410156 11.582031 L 8.34375 12.003906 L 7.675781 12.003906 Z M 17.984375 11.695312 C 18.148438 11.652344 18.671875 11.273438 18.804688 11.152344 C 19.078125 10.910156 19.234375 10.757812 19.414062 10.429688 C 19.613281 10.523438 20.058594 10.628906 20.3125 10.726562 C 20.628906 10.847656 20.824219 10.988281 21.101562 11.132812 C 20.78125 11.601562 20.1875 11.972656 19.757812 12.34375 L 17.988281 11.761719 Z M 9.035156 11.246094 C 9.125 11.1875 11.804688 10.617188 11.929688 10.632812 C 12.027344 10.648438 11.554688 11.664062 11.488281 11.828125 C 11.324219 12.222656 11.160156 12.675781 10.980469 13.046875 C 10.453125 12.925781 10.335938 12.933594 9.808594 12.933594 Z M 19.472656 10.285156 C 19.46875 10.066406 19.261719 9.542969 19.269531 9.527344 C 19.394531 9.46875 20.300781 9.886719 20.488281 9.960938 C 20.75 10.066406 20.820312 10.125 20.945312 10.351562 C 21.023438 10.488281 21.210938 10.789062 21.128906 10.960938 Z M 17.070312 9.359375 C 17.292969 9.03125 17.445312 8.820312 17.785156 8.597656 C 17.921875 8.714844 18.1875 8.722656 18.371094 8.835938 C 18.53125 8.929688 18.75 9.054688 18.898438 9.132812 L 18.636719 9.554688 C 18.339844 9.5625 17.671875 10.078125 17.441406 10.230469 Z M 8.523438 3.8125 L 9.945312 4.53125 L 9.953125 8.992188 L 8.523438 9.300781 Z M 6.949219 10.652344 C 7.21875 10.648438 8.34375 10.351562 8.675781 10.269531 C 9.132812 10.15625 9.835938 10.023438 10.355469 9.921875 C 11.5 9.699219 12.632812 9.410156 13.78125 9.1875 C 14.921875 8.964844 16.074219 8.695312 17.230469 8.445312 C 17.550781 8.378906 18.703125 8.078125 18.933594 8.078125 C 19.046875 8.078125 20.085938 8.648438 20.355469 8.710938 L 20.355469 8.796875 L 18.984375 9.097656 C 18.867188 8.949219 18.039062 8.570312 17.753906 8.570312 C 17.503906 8.570312 16.398438 8.875 16.050781 8.949219 C 15.582031 9.046875 14.78125 9.296875 14.355469 9.332031 L 14.546875 9.914062 L 14.519531 9.9375 L 14.382812 9.886719 L 12.453125 14.222656 L 12.296875 14.226562 C 12.476562 13.890625 14.210938 9.800781 14.210938 9.667969 L 14.210938 9.441406 L 13.582031 9.507812 L 11.679688 14.023438 L 11.496094 14.03125 L 13.347656 9.554688 L 12.355469 9.734375 C 12.320312 9.867188 12.238281 10.023438 12.179688 10.148438 C 12.109375 10.304688 12.117188 10.457031 11.933594 10.492188 C 11.632812 10.546875 11.246094 10.632812 10.945312 10.703125 C 10.550781 10.800781 9.265625 11.011719 9.007812 11.132812 L 8.828125 10.570312 L 8.664062 10.59375 L 9.820312 13.097656 L 9.980469 13.101562 L 10.753906 13.171875 L 10.753906 13.355469 L 9.808594 13.203125 L 9.664062 13.214844 L 8.511719 10.660156 L 8.09375 10.742188 C 8.160156 10.875 8.242188 11.042969 8.296875 11.183594 C 8.449219 11.566406 8.449219 11.339844 8.179688 11.46875 L 7.867188 10.792969 L 6.980469 10.910156 L 7.292969 12.234375 C 7.199219 12.273438 7.179688 12.4375 7.179688 12.59375 C 7.179688 12.742188 7.363281 12.898438 7.492188 12.933594 L 7.492188 13.917969 L 6.578125 14.019531 L 6.578125 13.863281 L 6.636719 13.863281 L 6.601562 13.863281 L 6.570312 8.683594 L 7.257812 9.003906 L 7.265625 9.613281 L 6.953125 9.671875 Z M 6.578125 6.007812 L 7.257812 6.332031 L 7.265625 8.824219 L 6.578125 8.484375 Z M 11.152344 6.769531 C 11.277344 6.828125 11.34375 6.765625 11.488281 6.832031 C 11.578125 6.875 11.640625 6.910156 11.734375 6.957031 C 11.859375 7.019531 12.144531 7.164062 12.265625 7.191406 L 12.265625 8.289062 L 11.152344 8.515625 Z M 18.957031 6.910156 L 20.550781 7.765625 L 20.558594 8.683594 L 18.957031 7.980469 Z M 18.355469 0.351562 L 19.636719 1.261719 L 19.640625 7.164062 C 19.542969 7.113281 19.015625 6.769531 18.957031 6.769531 C 18.890625 6.769531 18.410156 6.914062 18.355469 6.9375 Z M 11.265625 6.488281 C 11.324219 6.484375 12.238281 6.21875 12.304688 6.1875 C 12.625 6.039062 12.746094 5.757812 12.753906 5.308594 C 12.765625 4.4375 12.753906 3.558594 12.753906 2.6875 C 12.988281 2.8125 13.261719 2.882812 13.472656 3.046875 C 13.734375 3.25 13.839844 3.273438 13.839844 3.730469 C 13.839844 4.421875 13.839844 5.117188 13.839844 5.8125 C 13.839844 6.230469 13.898438 6.40625 13.605469 6.59375 C 13.34375 6.761719 13.195312 6.824219 12.863281 6.902344 C 11.945312 7.128906 11.925781 6.722656 11.265625 6.570312 Z M 6.613281 3.28125 L 7.257812 3.601562 L 7.265625 6.179688 L 6.585938 5.855469 L 6.570312 5.785156 Z M 11.179688 4.09375 L 11.546875 4.273438 L 11.550781 5.136719 C 11.550781 5.402344 11.34375 5.453125 11.179688 5.558594 Z M 15.582031 4.40625 C 15.746094 4.425781 15.882812 4.9375 15.964844 5.097656 C 16.089844 5.347656 16.203125 5.574219 16.328125 5.8125 C 16.566406 6.289062 16.789062 6.78125 17.039062 7.246094 L 15.582031 7.613281 Z M 11.496094 3.730469 L 11.550781 3.761719 L 11.550781 4.09375 L 11.1875 3.9375 L 11.1875 3.878906 Z M 8.894531 2.011719 L 9.460938 2.277344 L 9.464844 4.152344 L 8.894531 3.871094 Z M 7.578125 1.367188 L 8.085938 1.632812 L 8.09375 3.703125 L 7.722656 3.730469 L 7.722656 3.671875 L 7.578125 3.644531 Z M 8.292969 1.703125 L 8.6875 1.914062 L 8.695312 3.757812 C 8.632812 3.726562 8.476562 3.617188 8.410156 3.617188 C 8.40625 3.617188 8.304688 3.667969 8.292969 3.671875 Z M 16.335938 2.761719 C 16.242188 2.582031 15.691406 1.582031 15.738281 1.484375 L 17.003906 2.136719 L 17.011719 3.925781 C 17.011719 3.980469 17.019531 3.976562 17.039062 4.011719 C 16.867188 3.992188 16.734375 3.546875 16.660156 3.402344 C 16.546875 3.175781 16.449219 2.988281 16.335938 2.761719 "/>
<path style=" stroke:none;fill-rule:evenodd;fill:rgb(13.725491%,12.156863%,12.54902%);fill-opacity:1;" d="M 4.949219 22.445312 C 5.003906 22.546875 4.945312 22.527344 5.058594 22.554688 L 5.09375 22.472656 C 5.070312 22.457031 5.023438 22.417969 5.007812 22.417969 C 4.992188 22.417969 4.953125 22.441406 4.949219 22.445312 "/>
<path style=" stroke:none;fill-rule:evenodd;fill:rgb(13.725491%,12.156863%,12.54902%);fill-opacity:1;" d="M 9.722656 22.222656 L 9.582031 22.644531 C 9.800781 22.746094 9.867188 22.308594 9.921875 22.1875 L 9.722656 22.222656 "/>
<path style=" stroke:none;fill-rule:evenodd;fill:rgb(13.725491%,12.156863%,12.54902%);fill-opacity:1;" d="M 4.921875 23.035156 C 5.035156 23.0625 5.007812 23.042969 5.035156 23.121094 C 5.125 23.058594 5.082031 23.140625 5.09375 23.007812 L 5.007812 23.007812 L 5.007812 22.925781 L 4.921875 22.925781 L 4.921875 23.035156 "/>
</g>
</svg>
